<svg xmlns="http://www.w3.org/2000/svg" width="180" height="180" viewBox="0 0 180 180" fill="none">
      <path d="M90 180C139.706 180 180 139.706 180 90C180 40.2944 139.706 0 90 0C40.2944 0 0 40.2944 0 90C0 139.706 40.2944 180 90 180Z" fill="white"></path>
      <g opacity="0.7">
        <path d="M89.9943 174.33C82.596 174.33 75.2521 173.371 68.1589 171.475C61.0439 169.58 54.2013 166.736 47.8163 163.042C41.4422 159.359 35.5694 154.848 30.3611 149.629C25.142 144.41 20.6311 138.537 16.9483 132.174C13.2546 125.789 10.4108 118.946 8.51488 111.831C6.61899 104.749 5.66016 97.3943 5.66016 89.996C5.66016 82.5977 6.61899 75.243 8.51488 68.1607C10.4108 61.0456 13.2546 54.203 16.9483 47.818C20.6311 41.444 25.142 35.5711 30.3611 30.3628C35.5802 25.1437 41.4531 20.6328 47.8163 16.95C54.2013 13.2563 61.0439 10.4125 68.1589 8.5166L68.7255 10.6195C61.7957 12.4718 55.1275 15.2394 48.9059 18.835C42.7062 22.4197 36.9749 26.8217 31.8974 31.8992C26.82 36.9766 22.418 42.7079 18.8333 48.9076C15.2376 55.1292 12.4701 61.7975 10.6178 68.7272C8.77638 75.6243 7.83933 82.7829 7.83933 89.996C7.83933 97.2091 8.77638 104.368 10.6178 111.265C12.4701 118.195 15.2376 124.863 18.8333 131.084C22.418 137.284 26.82 143.015 31.8974 148.093C36.9749 153.17 42.7062 157.572 48.9059 161.157C55.1275 164.753 61.7957 167.52 68.7255 169.372C75.6226 171.214 82.7812 172.151 89.9943 172.151C97.2073 172.151 104.366 171.214 111.263 169.372C118.193 167.52 124.861 164.753 131.083 161.157C137.282 157.572 143.014 153.17 148.091 148.093C153.169 143.015 157.571 137.284 161.155 131.084C164.751 124.863 167.518 118.195 169.371 111.265L171.474 111.831C169.578 118.946 166.734 125.789 163.04 132.174C159.357 138.548 154.847 144.421 149.627 149.629C144.408 154.848 138.535 159.359 132.172 163.042C125.787 166.736 118.945 169.58 111.83 171.475C104.736 173.371 97.3926 174.33 89.9943 174.33Z" fill="#9FA2AB"></path>
        <path d="M16.23 89.9971H14.0508C14.0508 83.3288 14.9116 76.715 16.6222 70.3409C18.3329 63.9341 20.8934 57.7779 24.2166 52.0249C27.5399 46.2937 31.6041 40.9983 36.3002 36.3021C40.9963 31.606 46.2917 27.5418 52.023 24.2186C57.776 20.8954 63.943 18.3348 70.3389 16.6242C76.713 14.9135 83.3268 14.0527 89.9951 14.0527V16.2319C83.523 16.2319 77.0944 17.0709 70.8946 18.7271C64.6731 20.3941 58.6912 22.8675 53.1016 26.1036C47.5338 29.3288 42.391 33.2731 37.8256 37.8385C33.2602 42.4038 29.3159 47.5358 26.0907 53.1145C22.8547 58.7041 20.3813 64.6859 18.7142 70.9075C17.0689 77.0963 16.23 83.5249 16.23 89.9971Z" fill="#9FA2AB"></path>
        <path d="M90.0011 165.942C83.3328 165.942 76.719 165.082 70.3449 163.371C63.9381 161.66 57.782 159.1 52.029 155.777C46.2977 152.453 41.0023 148.389 36.3062 143.693C31.6101 138.997 27.5459 133.702 24.2227 127.97L26.1076 126.881C29.3328 132.449 33.2771 137.591 37.8425 142.157C42.4079 146.722 47.5398 150.666 53.1185 153.892C58.7081 157.128 64.69 159.601 70.9115 161.268C77.1113 162.924 83.5289 163.763 90.012 163.763C96.4842 163.763 102.913 162.924 109.112 161.268C115.334 159.601 121.316 157.128 126.905 153.892C132.473 150.666 137.616 146.722 142.181 142.157C146.747 137.591 150.691 132.459 153.916 126.881C157.152 121.291 159.626 115.309 161.293 109.088C162.949 102.888 163.788 96.4704 163.788 89.9873H165.967C165.967 96.6556 165.106 103.269 163.396 109.643C161.685 116.05 159.125 122.206 155.801 127.959C152.478 133.691 148.414 138.986 143.718 143.682C139.022 148.378 133.726 152.442 127.995 155.766C122.242 159.089 116.075 161.65 109.679 163.36C103.283 165.082 96.6694 165.942 90.0011 165.942Z" fill="#9FA2AB"></path>
        <path d="M89.9725 157.554C84.0451 157.554 78.1613 156.78 72.4846 155.265C66.786 153.74 61.3054 151.474 56.1843 148.51C51.0851 145.557 46.378 141.94 42.2049 137.767C38.0318 133.593 34.4143 128.886 31.4616 123.787C28.4979 118.666 26.2315 113.186 24.7061 107.487C23.1916 101.81 22.418 95.9264 22.418 89.9991C22.418 84.0717 23.1916 78.1879 24.7061 72.5112C26.2315 66.8126 28.4979 61.332 31.4616 56.2109L33.3465 57.3005C30.4809 62.2473 28.28 67.5535 26.809 73.0669C25.3381 78.5693 24.5971 84.2569 24.5971 89.9991C24.5971 95.7412 25.3381 101.429 26.809 106.92C28.28 112.434 30.4809 117.74 33.3465 122.687C36.2013 127.623 39.6988 132.177 43.7412 136.219C47.7836 140.262 52.3381 143.759 57.2739 146.614C62.2206 149.48 67.5269 151.681 73.0403 153.152C78.5318 154.623 84.2303 155.363 89.9616 155.363C95.7037 155.363 101.391 154.623 106.883 153.152C112.396 151.681 117.703 149.48 122.649 146.614C127.585 143.759 132.14 140.262 136.182 136.219L137.718 137.756C133.545 141.929 128.838 145.546 123.739 148.499C118.618 151.463 113.137 153.729 107.439 155.255C101.784 156.78 95.8998 157.554 89.9725 157.554Z" fill="#9FA2AB"></path>
        <path d="M89.985 149.16C84.7876 149.16 79.6339 148.485 74.6653 147.155C69.675 145.826 64.87 143.832 60.3917 141.239C55.9244 138.656 51.8058 135.486 48.1448 131.825C44.4838 128.164 41.3239 124.045 38.7307 119.578C36.1375 115.1 34.1436 110.294 32.8143 105.304C31.4959 100.347 30.8203 95.1928 30.8203 89.9955C30.8203 84.7981 31.4959 79.6444 32.8252 74.6759C34.1545 69.6855 36.1484 64.8805 38.7416 60.4022C41.3239 55.9349 44.4946 51.8163 48.1557 48.1553L49.692 49.6916C46.1617 53.211 43.1218 57.188 40.6266 61.4918C38.1315 65.8066 36.2138 70.4265 34.9281 75.2315C33.6532 80.0257 32.9995 84.9942 32.9995 89.9955C32.9995 94.9967 33.6532 99.9652 34.9281 104.748C36.2138 109.554 38.1315 114.173 40.6266 118.488C43.1218 122.792 46.1617 126.758 49.692 130.288C53.2223 133.819 57.1884 136.859 61.4922 139.354C65.807 141.849 70.4268 143.767 75.2319 145.052C80.0152 146.327 84.9837 146.981 89.985 146.981C94.9862 146.981 99.9547 146.327 104.738 145.052C109.543 143.767 114.163 141.849 118.478 139.354C122.782 136.859 126.748 133.819 130.278 130.288C133.808 126.769 136.848 122.792 139.343 118.488L141.228 119.578C138.646 124.045 135.475 128.164 131.814 131.825C128.153 135.486 124.035 138.646 119.567 141.239C115.089 143.832 110.284 145.826 105.294 147.155C100.336 148.485 95.1823 149.16 89.985 149.16Z" fill="#9FA2AB"></path>
      </g>
      <path d="M89.9893 18.1964C91.6743 18.1964 93.0402 16.8305 93.0402 15.1456C93.0402 13.4606 91.6743 12.0947 89.9893 12.0947C88.3044 12.0947 86.9385 13.4606 86.9385 15.1456C86.9385 16.8305 88.3044 18.1964 89.9893 18.1964Z" fill="#8AEFDB"></path>
      <path d="M68.4151 12.6163C70.1 12.6163 71.466 11.2504 71.466 9.5655C71.466 7.88056 70.1 6.51465 68.4151 6.51465C66.7302 6.51465 65.3643 7.88056 65.3643 9.5655C65.3643 11.2504 66.7302 12.6163 68.4151 12.6163Z" fill="#0C705C"></path>
      <path d="M48.9268 51.9826C50.6118 51.9826 51.9777 50.6166 51.9777 48.9317C51.9777 47.2468 50.6118 45.8809 48.9268 45.8809C47.2419 45.8809 45.876 47.2468 45.876 48.9317C45.876 50.6166 47.2419 51.9826 48.9268 51.9826Z" fill="#17AA8D"></path>
      <path d="M32.4151 59.8087C34.1 59.8087 35.466 58.4428 35.466 56.7579C35.466 55.0729 34.1 53.707 32.4151 53.707C30.7302 53.707 29.3643 55.0729 29.3643 56.7579C29.3643 58.4428 30.7302 59.8087 32.4151 59.8087Z" fill="#0A5161"></path>
      <path d="M15.13 93.0529C16.8149 93.0529 18.1808 91.687 18.1808 90.002C18.1808 88.3171 16.8149 86.9512 15.13 86.9512C13.445 86.9512 12.0791 88.3171 12.0791 90.002C12.0791 91.687 13.445 93.0529 15.13 93.0529Z" fill="#87DFF2"></path>
      <path d="M25.1612 130.492C26.8461 130.492 28.212 129.126 28.212 127.441C28.212 125.757 26.8461 124.391 25.1612 124.391C23.4763 124.391 22.1104 125.757 22.1104 127.441C22.1104 129.126 23.4763 130.492 25.1612 130.492Z" fill="#3EDDBF"></path>
      <path d="M140.286 122.09C141.971 122.09 143.337 120.724 143.337 119.039C143.337 117.354 141.971 115.988 140.286 115.988C138.601 115.988 137.235 117.354 137.235 119.039C137.235 120.724 138.601 122.09 140.286 122.09Z" fill="#149EBD"></path>
      <path d="M136.997 140.153C138.742 140.153 140.157 138.738 140.157 136.993C140.157 135.248 138.742 133.833 136.997 133.833C135.252 133.833 133.837 135.248 133.837 136.993C133.837 138.738 135.252 140.153 136.997 140.153Z" fill="#0F748A"></path>
      <path d="M164.837 93.0529C166.522 93.0529 167.888 91.687 167.888 90.002C167.888 88.3171 166.522 86.9512 164.837 86.9512C163.152 86.9512 161.786 88.3171 161.786 90.002C161.786 91.687 163.152 93.0529 164.837 93.0529Z" fill="#39C9EA"></path>
      <path d="M170.403 114.604C172.088 114.604 173.454 113.238 173.454 111.553C173.454 109.868 172.088 108.502 170.403 108.502C168.718 108.502 167.353 109.868 167.353 111.553C167.353 113.238 168.718 114.604 170.403 114.604Z" fill="#0A4F41"></path>
      <path d="M74.0472 73.2199C74.6792 73.2199 75.3111 73.6557 75.4964 74.2877L78.9504 85.3688L82.3172 74.2005C82.4806 73.623 83.0581 73.209 83.6356 73.209H84.7906C85.3898 73.209 85.9673 73.623 86.1308 74.2005L89.5303 85.3688L92.9516 74.2877C93.115 73.6557 93.747 73.2199 94.4007 73.2199H96.155C96.7869 73.2199 97.1138 73.6884 96.8959 74.2877L91.3935 90.7514C91.1973 91.2961 90.6308 91.7429 90.0206 91.7429H88.8656C88.2881 91.7429 87.7107 91.3288 87.5472 90.7514L84.2349 80.0734L80.8898 90.7514C80.7264 91.3288 80.1489 91.7429 79.5496 91.7429H78.3947C77.8172 91.7429 77.2397 91.307 77.0545 90.7514L71.5194 74.2877C71.3015 73.6884 71.6283 73.2199 72.2821 73.2199H74.0472Z" fill="#3E4049"></path>
      <path d="M100.512 73.2188H111.985C112.639 73.2188 113.108 73.6873 113.108 74.341V75.7139C113.108 76.3459 112.639 76.8362 111.985 76.8362H103.301V80.5953H110.503C111.135 80.5953 111.626 81.0638 111.626 81.6957V83.0686C111.626 83.7224 111.135 84.1909 110.503 84.1909H103.301V88.1461H112.116C112.77 88.1461 113.238 88.6146 113.238 89.2466V90.6195C113.238 91.2514 112.77 91.7418 112.116 91.7418H100.512C99.88 91.7418 99.3896 91.2514 99.3896 90.6195V74.341C99.3896 73.6873 99.88 73.2188 100.512 73.2188Z" fill="#3E4049"></path>
      <path d="M117.059 73.2188H118.726C119.358 73.2188 119.848 73.6873 119.848 74.341V88.1461H127.813C128.445 88.1461 128.935 88.6146 128.935 89.2466V90.6195C128.935 91.2514 128.445 91.7418 127.813 91.7418H117.059C116.427 91.7418 115.937 91.2514 115.937 90.6195V74.341C115.937 73.6873 116.427 73.2188 117.059 73.2188Z" fill="#3E4049"></path>
      <path d="M132.563 73.2188H134.23C134.862 73.2188 135.352 73.6873 135.352 74.341V88.1461H143.317C143.949 88.1461 144.439 88.6146 144.439 89.2466V90.6195C144.439 91.2514 143.949 91.7418 143.317 91.7418H132.563C131.931 91.7418 131.44 91.2514 131.44 90.6195V74.341C131.44 73.6873 131.942 73.2188 132.563 73.2188Z" fill="#3E4049"></path>
      <path d="M72.6594 54.7227C72.9318 54.7227 73.1933 54.897 73.2478 55.1585L75.8083 62.9599L78.2926 55.1258C78.3689 54.8861 78.5977 54.7227 78.8374 54.7227H79.2841C79.5238 54.7227 79.7635 54.8861 79.8289 55.1258L82.3241 62.9599L84.8737 55.1585C84.9391 54.897 85.2115 54.7227 85.4621 54.7227H86.1812C86.4427 54.7227 86.5626 54.9188 86.4863 55.1585L83.0759 65.1391C83.0105 65.3679 82.7708 65.5423 82.5311 65.5423H82.0844C81.8447 65.5423 81.6049 65.3788 81.5287 65.1391L79.0662 57.512L76.6037 65.1391C76.5384 65.3788 76.2878 65.5423 76.0589 65.5423H75.5904C75.3507 65.5423 75.1219 65.3679 75.0456 65.1391L71.6134 55.1585C71.5371 54.9188 71.6788 54.7227 71.9294 54.7227H72.6594V54.7227Z" fill="#3E4049"></path>
      <path d="M89.9209 55.1694C89.9209 54.9079 90.1279 54.7227 90.3894 54.7227H91.0759C91.3374 54.7227 91.5226 54.9188 91.5226 55.1694V65.0846C91.5226 65.3461 91.3265 65.5314 91.0759 65.5314H90.3894C90.1279 65.5314 89.9209 65.3352 89.9209 65.0846V55.1694Z" fill="#3E4049"></path>
      <path d="M95.4277 54.7227H103.916C104.188 54.7227 104.384 54.9188 104.384 55.1694V55.7469C104.384 56.0084 104.188 56.2154 103.916 56.2154H100.472V65.0846C100.472 65.3461 100.276 65.5314 100.004 65.5314H99.3284C99.056 65.5314 98.8599 65.3352 98.8599 65.0846V56.2154H95.4168C95.1553 56.2154 94.9482 56.0084 94.9482 55.7469V55.1694C94.9591 54.9188 95.1662 54.7227 95.4277 54.7227Z" fill="#3E4049"></path>
      <path d="M107.804 55.1694C107.804 54.9079 108.011 54.7227 108.272 54.7227H108.959C109.22 54.7227 109.405 54.9188 109.405 55.1694V59.3207H115.474V55.1694C115.474 54.9079 115.671 54.7227 115.943 54.7227H116.629C116.891 54.7227 117.076 54.9188 117.076 55.1694V65.0846C117.076 65.3461 116.88 65.5314 116.629 65.5314H115.943C115.671 65.5314 115.474 65.3352 115.474 65.0846V60.8135H109.405V65.0846C109.405 65.3461 109.209 65.5314 108.959 65.5314H108.272C108.011 65.5314 107.804 65.3352 107.804 65.0846V55.1694V55.1694Z" fill="#3E4049"></path>
      <path d="M72.6594 36.1934C72.9318 36.1934 73.1933 36.3677 73.2478 36.6292L75.8083 44.4306L78.2926 36.5965C78.3689 36.3568 78.5977 36.1934 78.8374 36.1934H79.2841C79.5238 36.1934 79.7635 36.3568 79.8289 36.5965L82.3241 44.4306L84.8737 36.6292C84.9391 36.3677 85.2115 36.1934 85.4621 36.1934H86.1812C86.4427 36.1934 86.5626 36.3895 86.4863 36.6292L83.0759 46.6098C83.0105 46.8386 82.7708 47.013 82.5311 47.013H82.0844C81.8447 47.013 81.6049 46.8495 81.5287 46.6098L79.0662 38.9827L76.6037 46.6098C76.5384 46.8495 76.2878 47.013 76.0589 47.013H75.5904C75.3507 47.013 75.1219 46.8386 75.0456 46.6098L71.6134 36.6292C71.5371 36.3895 71.6788 36.1934 71.9294 36.1934H72.6594V36.1934Z" fill="#3E4049"></path>
      <path d="M94.6081 36.0088C97.8006 36.0088 100.22 38.4168 100.22 41.6202C100.22 44.8127 97.8006 47.2098 94.6081 47.2098C91.4156 47.2098 89.0186 44.8127 89.0186 41.6202C89.0186 38.4059 91.4265 36.0088 94.6081 36.0088ZM94.6081 45.6625C96.8527 45.6625 98.5525 43.9192 98.5525 41.6093C98.5525 39.2885 96.8527 37.5451 94.6081 37.5451C92.3636 37.5451 90.6638 39.2885 90.6638 41.6093C90.6747 43.9192 92.3745 45.6625 94.6081 45.6625Z" fill="#3E4049"></path>
      <path d="M104.452 36.1934H108.919C110.957 36.1934 112.493 37.6534 112.493 39.5711C112.493 41.0311 111.632 42.2188 110.336 42.7091L112.678 46.6207C112.82 46.8495 112.722 47.0021 112.471 47.0021H111.589C111.316 47.0021 111.033 46.8386 110.88 46.6207L108.658 42.9706H105.585V46.5553C105.585 46.8168 105.389 47.0021 105.138 47.0021H104.452C104.19 47.0021 103.983 46.8059 103.983 46.5553V36.6401C103.983 36.3895 104.19 36.1934 104.452 36.1934ZM105.585 37.6861V41.4779H108.919C110.009 41.4779 110.826 40.6607 110.826 39.5711C110.826 38.5033 110.009 37.6861 108.919 37.6861H105.585Z" fill="#3E4049"></path>
      <path d="M116.37 46.5553V36.6401C116.37 36.3786 116.577 36.1934 116.839 36.1934H117.525C117.787 36.1934 117.972 36.3895 117.972 36.6401V46.5553C117.972 46.8168 117.776 47.0021 117.525 47.0021H116.839C116.577 47.013 116.37 46.8168 116.37 46.5553ZM118.004 41.4779L122.374 36.5311C122.548 36.335 122.875 36.1934 123.126 36.1934H124.259C124.52 36.1934 124.575 36.335 124.4 36.5311L120.031 41.4779L124.705 46.6643C124.88 46.8604 124.814 47.0021 124.564 47.0021H123.431C123.169 47.0021 122.853 46.8604 122.679 46.6643L118.004 41.4779Z" fill="#3E4049"></path>
      <path d="M131.394 37.5479C130.239 37.5479 129.324 38.1907 129.324 39.0515C129.324 40.043 130.544 40.3808 132.244 40.8493C133.606 41.198 135.491 41.7428 135.491 43.9111C135.491 45.8941 133.846 47.2125 131.536 47.2125C129.618 47.2125 128.158 46.2973 127.613 45.0551C127.504 44.8263 127.624 44.5757 127.886 44.4995L128.714 44.238C128.747 44.2271 128.779 44.2271 128.812 44.2271C128.943 44.2271 129.073 44.3033 129.15 44.4559C129.455 45.1641 130.348 45.6871 131.547 45.6871C132.865 45.6871 133.889 45.0116 133.889 44.0527C133.889 43.0285 132.724 42.658 131.776 42.4183C129.825 41.8627 127.744 41.3614 127.744 39.1823C127.744 37.2973 129.248 36.0225 131.362 36.0225C133.094 36.0225 134.434 36.8723 134.968 38.0055C135.077 38.2343 134.968 38.4849 134.696 38.5612L133.846 38.8009C133.813 38.8118 133.78 38.8118 133.748 38.8118C133.639 38.8118 133.508 38.7355 133.432 38.6048C133.116 38.0055 132.353 37.5479 131.394 37.5479Z" fill="#3E4049"></path>
    </svg>