<svg width="180" height="180" viewBox="0 0 180 180" fill="none" xmlns="http://www.w3.org/2000/svg">
      <path d="M90 180C139.706 180 180 139.706 180 90C180 40.2944 139.706 0 90 0C40.2944 0 0 40.2944 0 90C0 139.706 40.2944 180 90 180Z" fill="#E67357"></path>
      <path d="M9.22571 89.9851C9.22571 89.1153 9.93086 88.4101 10.8007 88.4101C11.6706 88.4101 12.3757 89.1153 12.3757 89.9851C12.3757 96.9572 13.2876 103.721 15.0073 110.159L15.0914 110.47C16.8682 117.011 19.4832 123.198 22.7984 128.945L22.9595 129.222C26.3554 135.026 30.476 140.358 35.1945 145.076C39.9875 149.869 45.4131 154.045 51.3241 157.472L51.5975 157.629C57.3443 160.921 63.558 163.513 70.1121 165.263H70.1122L70.4141 165.343C76.7615 167.011 83.4225 167.895 90.2858 167.895C97.2579 167.895 104.021 166.983 110.459 165.263L110.771 165.179C117.313 163.402 123.5 160.787 129.249 157.471C135.159 154.045 140.584 149.869 145.377 145.076C150.17 140.283 154.347 134.857 157.773 128.945C161.14 123.123 163.786 116.816 165.564 110.159L165.644 109.857C167.312 103.509 168.196 96.8483 168.196 89.9851C168.196 83.013 167.284 76.2495 165.564 69.8116V69.8114C163.786 63.1553 161.141 56.8638 157.773 51.0248L157.612 50.7481C154.216 44.9439 150.096 39.6123 145.377 34.8938C140.584 30.1004 135.157 25.9241 129.246 22.4977V22.4976C123.514 19.1833 117.314 16.5679 110.771 14.7907L110.459 14.7066C104.122 13.0137 97.4835 12.1038 90.613 12.0758L90.2858 12.075L90.2046 12.073C89.3725 12.0308 88.7108 11.3427 88.7108 10.5C88.7108 9.6302 89.4159 8.92505 90.2858 8.92505L90.626 8.92578C97.7681 8.95493 104.675 9.90119 111.272 11.6634L111.597 11.7509C118.301 13.5718 124.657 16.2375 130.54 19.608L130.824 19.7716L130.825 19.7724L131.113 19.9399C137.15 23.4719 142.696 27.7577 147.604 32.6664C152.513 37.5751 156.799 43.1206 160.331 49.1574L160.498 49.4453L160.499 49.4467L160.5 49.448C164.001 55.5182 166.755 62.0658 168.607 68.9986L168.691 69.3129C170.427 75.9205 171.346 82.8505 171.346 89.9851C171.346 97.1197 170.427 104.05 168.691 110.657L168.607 110.971C166.756 117.903 164.002 124.466 160.499 130.523L160.498 130.525C156.935 136.673 152.591 142.317 147.604 147.304C142.618 152.29 136.974 156.634 130.825 160.198L130.824 160.199L130.823 160.199C124.847 163.646 118.409 166.369 111.597 168.219L111.272 168.307C104.57 170.097 97.5336 171.045 90.2858 171.045C83.1512 171.045 76.2212 170.126 69.6136 168.39L69.2992 168.307C62.3674 166.455 55.8043 163.701 49.7472 160.198L49.7459 160.198C43.5975 156.634 37.9536 152.29 32.967 147.304C27.9804 142.317 23.6367 136.673 20.073 130.525L20.0723 130.523L20.0714 130.522C16.6247 124.547 13.9021 118.109 12.0515 111.296L11.9641 110.971C10.1738 104.27 9.22571 97.2329 9.22571 89.9851Z" fill="white"></path>
      <path d="M71.6575 159.488C72.4979 159.713 72.9971 160.576 72.7724 161.417C72.5478 162.257 71.6844 162.756 70.8441 162.532L71.6575 159.488ZM15.2108 90.0001C15.2108 83.2757 16.0993 76.7642 17.7539 70.5593C17.9781 69.7188 18.8412 69.2191 19.6817 69.4432C20.5221 69.6673 21.0217 70.5303 20.7976 71.3708C19.2122 77.3158 18.3608 83.5546 18.3608 90.0001C18.3608 96.4453 19.2121 102.684 20.7973 108.628C22.4408 114.777 24.8772 120.589 27.9897 125.977C31.1461 131.424 34.9921 136.429 39.4245 140.861C43.8435 145.28 48.8493 149.141 54.3087 152.296L54.5615 152.442C59.8785 155.485 65.605 157.871 71.6575 159.488L70.8441 162.532C64.4227 160.815 58.3548 158.271 52.7329 155.024L52.7326 155.024C47.0322 151.729 41.808 147.7 37.1971 143.089C32.5701 138.462 28.5565 133.238 25.2632 127.555L25.2626 127.554L25.262 127.553C22.0652 122.019 19.5503 116.053 17.8352 109.743L17.7542 109.442L17.7539 109.441C16.0993 103.236 15.2108 96.7246 15.2108 90.0001Z" fill="white"></path>
      <path d="M90.2857 14.925C96.9051 14.9251 103.318 15.7861 109.435 17.3913L109.727 17.4682L109.727 17.4685L110.028 17.5495C116.238 19.2373 122.115 21.6998 127.575 24.8245L127.838 24.9762L127.839 24.9764L128.106 25.1313C133.702 28.3971 138.835 32.3725 143.374 36.9113C147.929 41.4661 151.89 46.5992 155.154 52.1792L155.308 52.4453L155.347 52.5165C155.728 53.2576 155.464 54.1752 154.735 54.5977C154.006 55.0202 153.079 54.7927 152.625 54.0938L152.583 54.0248L152.435 53.7698C149.306 48.4214 145.511 43.5025 141.147 39.1388C136.728 34.7198 131.722 30.8591 126.263 27.7038V27.7039C120.875 24.5914 115.063 22.1552 108.914 20.5117V20.5115C102.969 18.9263 96.7309 18.0751 90.2857 18.075C83.8402 18.075 77.6015 18.9265 71.6564 20.5118C70.816 20.7359 69.953 20.2363 69.7289 19.3959C69.5047 18.5554 70.0044 17.6923 70.8449 17.4682C77.0499 15.8135 83.5613 14.925 90.2857 14.925Z" fill="white"></path>
      <path d="M156.211 90.0001C156.211 84.095 155.434 78.3821 153.985 72.933L153.913 72.6697C152.406 67.1409 150.204 61.8984 147.393 57.0392L147.119 56.5706C144.362 51.8978 141.055 47.6014 137.281 43.7658L136.902 43.3838L136.846 43.325C136.288 42.7068 136.306 41.7522 136.902 41.1563C137.498 40.5605 138.452 40.5419 139.071 41.1005L139.13 41.1563L139.328 41.356C143.43 45.4914 147.012 50.1436 149.976 55.2152L150.119 55.461L150.119 55.4613L150.259 55.704C153.139 60.7285 155.398 66.1402 156.952 71.841L157.027 72.117L157.027 72.1184L157.028 72.1201C158.547 77.8301 159.361 83.8162 159.361 90.0001C159.361 96.184 158.547 102.17 157.028 107.88L157.027 107.882C155.446 113.792 153.113 119.381 150.118 124.541L150.118 124.541C147.08 129.772 143.382 134.591 139.13 138.844C134.878 143.095 130.074 146.794 124.825 149.833L124.825 149.833C119.651 152.827 114.063 155.16 108.169 156.741L108.167 156.742L108.166 156.742C102.456 158.262 96.4697 159.075 90.2858 159.075C84.1019 159.075 78.1158 158.262 72.4058 156.742L72.4037 156.742C66.5865 155.185 61.0799 152.9 55.9874 149.972L55.7452 149.832L55.6762 149.79C54.9776 149.336 54.7506 148.408 55.1736 147.679C55.5966 146.951 56.5143 146.688 57.2552 147.069L57.3264 147.108L57.7888 147.374C62.5799 150.102 67.7537 152.237 73.2179 153.699H73.2177C78.6671 155.149 84.3804 155.925 90.2858 155.925C96.1908 155.925 101.904 155.149 107.353 153.699L107.616 153.628C113.145 152.12 118.388 149.919 123.247 147.107C128.258 144.206 132.844 140.675 136.902 136.616C140.96 132.559 144.491 127.958 147.394 122.959C150.249 118.039 152.475 112.708 153.984 107.068C155.434 101.619 156.211 95.9054 156.211 90.0001Z" fill="white"></path>
      <path d="M43.5726 69.3008C44.4426 69.3008 45.3126 69.9008 45.5676 70.7708L50.3226 86.0258L54.9576 70.6508C55.1826 69.8558 55.9776 69.2858 56.7726 69.2858H58.3626C59.1876 69.2858 59.9826 69.8558 60.2076 70.6508L64.8876 86.0258L69.5976 70.7708C69.8226 69.9008 70.6926 69.3008 71.5926 69.3008H74.0076C74.8776 69.3008 75.3276 69.9458 75.0276 70.7708L67.4526 93.4358C67.1826 94.1858 66.4026 94.8008 65.5626 94.8008H63.9726C63.1776 94.8008 62.3826 94.2308 62.1576 93.4358L57.5976 78.7358L52.9926 93.4358C52.7676 94.2308 51.9726 94.8008 51.1476 94.8008H49.5576C48.7626 94.8008 47.9676 94.2008 47.7126 93.4358L40.0926 70.7708C39.7926 69.9458 40.2426 69.3008 41.1426 69.3008H43.5576H43.5726Z" fill="white"></path>
      <path d="M79.9925 69.3007H95.7875C96.6875 69.3007 97.3325 69.9457 97.3325 70.8457V72.7357C97.3325 73.6057 96.6875 74.2807 95.7875 74.2807H83.8325V79.4557H93.7475C94.6175 79.4557 95.2925 80.1007 95.2925 80.9707V82.8607C95.2925 83.7607 94.6175 84.4057 93.7475 84.4057H83.8325V89.8507H95.9675C96.8675 89.8507 97.5125 90.4957 97.5125 91.3657V93.2557C97.5125 94.1257 96.8675 94.8007 95.9675 94.8007H79.9925C79.1225 94.8007 78.4475 94.1257 78.4475 93.2557V70.8607C78.4475 69.9607 79.1225 69.3157 79.9925 69.3157V69.3007Z" fill="white"></path>
      <path d="M102.793 69.3007H105.088C105.958 69.3007 106.633 69.9457 106.633 70.8457V89.8507H117.598C118.468 89.8507 119.143 90.4957 119.143 91.3657V93.2557C119.143 94.1257 118.468 94.8007 117.598 94.8007H102.793C101.923 94.8007 101.248 94.1257 101.248 93.2557V70.8607C101.248 69.9607 101.923 69.3157 102.793 69.3157V69.3007Z" fill="white"></path>
      <path d="M124.153 69.3007H126.448C127.318 69.3007 127.993 69.9457 127.993 70.8457V89.8507H138.958C139.828 89.8507 140.503 90.4957 140.503 91.3657V93.2557C140.503 94.1257 139.828 94.8007 138.958 94.8007H124.153C123.283 94.8007 122.608 94.1257 122.608 93.2557V70.8607C122.608 69.9607 123.283 69.3157 124.153 69.3157V69.3007Z" fill="white"></path>
      <path d="M53.5642 112.012V104.054C53.5642 103.848 53.7313 103.694 53.937 103.694H57.0227C59.5813 103.694 61.5227 105.584 61.5227 108.026C61.5227 110.469 59.5813 112.372 57.0227 112.372H53.937C53.7313 112.372 53.5642 112.218 53.5642 112.012ZM57.0227 104.889H54.8499V111.176H57.0227C58.8227 111.176 60.1856 109.801 60.1856 108.026C60.1856 106.265 58.8227 104.889 57.0227 104.889ZM64.5364 104.054C64.5364 103.848 64.7036 103.694 64.9093 103.694H70.4636C70.6821 103.694 70.8364 103.848 70.8364 104.054V104.516C70.8364 104.722 70.6821 104.889 70.4636 104.889H65.8221V107.384H69.8207C70.0264 107.384 70.1807 107.538 70.1807 107.756V108.206C70.1807 108.425 70.0264 108.579 69.8207 108.579H65.8221V111.176H70.5279C70.7464 111.176 70.9007 111.344 70.9007 111.549V112.012C70.9007 112.218 70.7464 112.372 70.5279 112.372H64.9093C64.7036 112.372 64.5364 112.218 64.5364 112.012V104.054ZM78.2885 105.622C78.0443 105.146 77.4271 104.774 76.6557 104.774C75.73 104.774 74.9971 105.288 74.9971 105.982C74.9971 106.779 75.9743 107.049 77.3371 107.422C78.43 107.705 79.9471 108.142 79.9471 109.878C79.9471 111.472 78.6228 112.526 76.7714 112.526C75.2285 112.526 74.0585 111.794 73.6214 110.791C73.5314 110.611 73.6343 110.405 73.84 110.341L74.5085 110.135C74.5343 110.122 74.56 110.122 74.5857 110.122C74.6885 110.122 74.7914 110.186 74.8557 110.302C75.1 110.868 75.82 111.292 76.7843 111.292C77.8385 111.292 78.6614 110.752 78.6614 109.981C78.6614 109.158 77.7228 108.862 76.9643 108.669C75.3957 108.219 73.7243 107.821 73.7243 106.072C73.7243 104.555 74.9328 103.539 76.63 103.539C78.0185 103.539 79.0985 104.221 79.5228 105.134C79.6128 105.314 79.5228 105.519 79.3043 105.584L78.6228 105.776C78.5971 105.789 78.5714 105.789 78.5457 105.789C78.4557 105.789 78.3528 105.725 78.2885 105.622ZM82.9653 112.012V104.054C82.9653 103.848 83.1325 103.694 83.3382 103.694H83.891C84.0968 103.694 84.251 103.848 84.251 104.054V112.012C84.251 112.218 84.0968 112.372 83.891 112.372H83.3382C83.1325 112.372 82.9653 112.218 82.9653 112.012ZM96.1986 108.065C96.1858 110.585 94.2829 112.526 91.7501 112.526C89.2172 112.526 87.2886 110.598 87.2886 108.026C87.2886 105.468 89.2429 103.539 91.8529 103.539C93.4986 103.539 94.9001 104.324 95.6844 105.532C95.7872 105.712 95.7229 105.918 95.5172 105.982L94.9515 106.201C94.9001 106.214 94.8615 106.226 94.8101 106.226C94.6686 106.226 94.5144 106.149 94.4244 106.021C93.8586 105.249 92.9329 104.774 91.8529 104.774C90.0144 104.774 88.6129 106.175 88.6129 108.026C88.6129 109.891 89.9758 111.292 91.7115 111.292C93.1772 111.292 94.4372 110.315 94.7458 108.901H91.8915C91.6858 108.901 91.5186 108.734 91.5186 108.528V108.065C91.5186 107.859 91.6858 107.705 91.8915 107.705H95.8258C96.0315 107.705 96.1986 107.872 96.1986 108.065ZM99.2221 104.054C99.2221 103.848 99.3892 103.694 99.5949 103.694H100.019C100.212 103.694 100.444 103.809 100.572 103.964L105.484 110.161V104.054C105.484 103.848 105.638 103.694 105.844 103.694H106.345C106.564 103.694 106.718 103.848 106.718 104.054V112.012C106.718 112.218 106.564 112.372 106.358 112.372H105.921C105.728 112.372 105.496 112.256 105.381 112.115L100.469 105.918V112.012C100.469 112.218 100.302 112.372 100.096 112.372H99.5949C99.3892 112.372 99.2221 112.218 99.2221 112.012V104.054ZM110.031 104.054C110.031 103.848 110.198 103.694 110.404 103.694H115.958C116.177 103.694 116.331 103.848 116.331 104.054V104.516C116.331 104.722 116.177 104.889 115.958 104.889H111.317V107.384H115.315C115.521 107.384 115.675 107.538 115.675 107.756V108.206C115.675 108.425 115.521 108.579 115.315 108.579H111.317V111.176H116.023C116.241 111.176 116.395 111.344 116.395 111.549V112.012C116.395 112.218 116.241 112.372 116.023 112.372H110.404C110.198 112.372 110.031 112.218 110.031 112.012V104.054ZM119.283 112.012V104.054C119.283 103.848 119.45 103.694 119.656 103.694H122.742C125.3 103.694 127.242 105.584 127.242 108.026C127.242 110.469 125.3 112.372 122.742 112.372H119.656C119.45 112.372 119.283 112.218 119.283 112.012ZM122.742 104.889H120.569V111.176H122.742C124.542 111.176 125.905 109.801 125.905 108.026C125.905 106.265 124.542 104.889 122.742 104.889Z" fill="white"></path>
    </svg>