<svg xmlns="http://www.w3.org/2000/svg" width="180" height="180" viewBox="0 0 180 180" fill="none">
      <path d="M90 180C139.706 180 180 139.706 180 90C180 40.2944 139.706 0 90 0C40.2944 0 0 40.2944 0 90C0 139.706 40.2944 180 90 180Z" fill="#EFEAE6"></path>
      <path d="M147.146 122.898C147.599 122.199 148.527 121.971 149.256 122.393C150.009 122.829 150.266 123.792 149.83 124.545L149.687 124.79C146.681 129.935 143.03 134.657 138.843 138.844C134.591 143.097 129.785 146.797 124.545 149.83L124.545 149.83C119.376 152.82 113.785 155.16 107.882 156.739H107.881C102.176 158.263 96.182 159.076 89.9998 159.076C83.8179 159.076 77.8235 158.265 72.1178 156.739V156.738C66.3069 155.185 60.7983 152.893 55.6976 149.97L55.455 149.83L55.4549 149.83C50.2146 146.797 45.4089 143.097 41.1561 138.844C36.9697 134.657 33.3185 129.935 30.3123 124.79L30.1696 124.545L30.1308 124.474C29.7505 123.732 30.0145 122.815 30.7438 122.393C31.4731 121.971 32.4001 122.199 32.8535 122.898L32.896 122.967L33.1692 123.435C36.0121 128.255 39.4503 132.683 43.3835 136.616C47.4436 140.676 52.0309 144.209 57.0325 147.104L57.4961 147.369C62.2987 150.096 67.4758 152.237 72.9316 153.695H72.9318L73.4429 153.83C78.7318 155.199 84.2793 155.926 89.9998 155.926C95.7201 155.926 101.268 155.198 106.557 153.83L107.068 153.695C112.524 152.237 117.701 150.096 122.503 147.369L122.967 147.104C127.969 144.209 132.556 140.676 136.616 136.616C140.676 132.556 144.209 127.969 147.104 122.967L147.146 122.898Z" fill="#D2C2B6"></path>
      <path d="M155.926 90.0015C155.926 84.0967 155.15 78.3758 153.695 72.9331V72.933C152.189 67.3014 149.957 61.9668 147.104 57.0344L146.83 56.5667C143.987 51.7465 140.549 47.3184 136.616 43.3852C132.556 39.325 127.968 35.7926 122.967 32.8976V32.8975C118.111 30.0884 112.866 27.8816 107.332 26.3772L107.068 26.306L106.99 26.2831C106.197 26.0274 105.736 25.1917 105.953 24.3776C106.171 23.5636 106.988 23.0697 107.803 23.2439L107.882 23.2629L108.158 23.3375C113.867 24.8894 119.282 27.1544 124.302 30.0315L124.544 30.1711L124.545 30.1713L124.79 30.3139C129.935 33.3201 134.657 36.9713 138.844 41.1577C143.03 45.3441 146.681 50.0661 149.687 55.2111L149.83 55.4565L149.83 55.4567L149.97 55.6992C152.847 60.719 155.112 66.1339 156.664 71.8431L156.738 72.1197V72.1198L156.879 72.6555C158.313 78.1999 159.076 84.0125 159.076 90.0015C159.076 90.8713 158.371 91.5765 157.501 91.5765C156.631 91.5765 155.926 90.8713 155.926 90.0015Z" fill="#D2C2B6"></path>
      <path d="M20.9248 89.9994C20.9248 83.8174 21.7366 77.8231 23.2628 72.1173C24.8411 66.2142 27.1808 60.623 30.171 55.4545L30.1712 55.4544L30.3139 55.209C33.32 50.064 36.9713 45.342 41.1577 41.1556C45.4105 36.9028 50.216 33.2022 55.4563 30.1691C56.2091 29.7334 57.1727 29.9905 57.6084 30.7434C58.0442 31.4962 57.7871 32.4598 57.0342 32.8955C52.0326 35.7904 47.4451 39.3229 43.385 43.3831C39.3248 47.4432 35.7923 52.0307 32.8974 57.0323C30.0438 61.9647 27.8116 67.2995 26.3059 72.9311L26.3058 72.9313C24.85 78.3735 24.0748 84.0943 24.0748 89.9994C24.0748 90.8692 23.3696 91.5744 22.4998 91.5744C21.63 91.5744 20.9248 90.8692 20.9248 89.9994Z" fill="#D2C2B6"></path>
      <path d="M90 14.9248C96.7191 14.9248 103.234 15.8086 109.434 17.4651H109.434L109.735 17.5461C116.04 19.2596 122.015 21.7745 127.545 24.9735L127.811 25.1285C133.316 28.3432 138.373 32.2388 142.869 36.698L143.086 36.9142L143.142 36.9729C143.7 37.5912 143.681 38.5456 143.086 39.1415C142.49 39.7373 141.535 39.756 140.917 39.1974L140.858 39.1415L140.65 38.9343C136.342 34.6609 131.496 30.9282 126.223 27.8485L125.967 27.7001C120.586 24.5869 114.766 22.1505 108.621 20.5083V20.5085C102.683 18.9221 96.4418 18.0748 90 18.0748C83.5581 18.0748 77.3168 18.9221 71.379 20.5085L71.3789 20.5083C65.2344 22.1505 59.4138 24.5869 54.0328 27.7001H54.0326C48.5753 30.8574 43.5709 34.7122 39.1416 39.1415C34.7124 43.5707 30.8576 48.5751 27.7003 54.0325C27.2647 54.7854 26.3012 55.0427 25.5483 54.6071C24.7954 54.1715 24.5381 53.208 24.9737 52.4551C28.2694 46.7585 32.2926 41.5359 36.9143 36.9142C41.5361 32.2924 46.7586 28.2692 52.4553 24.9735L52.7188 24.8217C58.2621 21.6445 64.2497 19.1532 70.5659 17.4651L70.8568 17.3881C76.9698 15.7812 83.3858 14.9248 90 14.9248Z" fill="#D2C2B6"></path>
      <path d="M14.9248 89.9998C14.9248 89.13 15.63 88.4248 16.4998 88.4248C17.3697 88.4248 18.0748 89.13 18.0748 89.9998C18.0748 96.4416 18.9221 102.683 20.5085 108.621H20.5083C22.1505 114.765 24.5869 120.586 27.7001 125.967V125.967L27.8485 126.223C30.9779 131.581 34.7814 136.498 39.1415 140.858C43.5015 145.218 48.4189 149.022 53.777 152.151L54.0325 152.299L54.1016 152.342C54.8008 152.795 55.0291 153.722 54.6071 154.451C54.1852 155.181 53.2678 155.445 52.5263 155.065L52.4551 155.026L52.1884 154.871C46.5953 151.605 41.4637 147.635 36.9142 143.085C32.3646 138.536 28.395 133.404 25.1285 127.811L24.9735 127.544C21.7745 122.015 19.2596 116.04 17.5461 109.734L17.4651 109.434C15.8086 103.234 14.9248 96.719 14.9248 89.9998Z" fill="#D2C2B6"></path>
      <path d="M161.925 89.9994C161.925 83.5575 161.078 77.3161 159.491 71.3784C159.267 70.5381 159.766 69.6748 160.606 69.4502C161.447 69.2257 162.31 69.7251 162.535 70.5654C164.191 76.7657 165.075 83.2802 165.075 89.9994C165.075 96.7185 164.191 103.233 162.535 109.433C160.903 115.539 158.358 121.729 155.178 127.28L155.026 127.544C151.73 133.241 147.707 138.463 143.086 143.085C138.536 147.635 133.404 151.604 127.811 154.871L127.545 155.026C121.928 158.275 115.851 160.819 109.434 162.534L109.355 162.553C108.54 162.727 107.724 162.233 107.506 161.419C107.281 160.579 107.78 159.715 108.621 159.491L108.909 159.413C114.947 157.772 120.67 155.364 125.967 152.299L126.223 152.151C131.581 149.021 136.498 145.218 140.858 140.858C145.287 136.428 149.142 131.424 152.3 125.967L152.445 125.714C155.49 120.399 157.93 114.463 159.491 108.62C161.078 102.683 161.925 96.4412 161.925 89.9994Z" fill="#D2C2B6"></path>
      <path d="M89.9996 8.9248C97.1424 8.9248 104.071 9.84948 110.673 11.5844L110.987 11.6676L110.988 11.6677L111.312 11.7552C118.122 13.6051 124.575 16.3217 130.546 19.7761H130.546L130.834 19.9435C136.873 23.4716 142.416 27.7578 147.329 32.6707C152.243 37.5849 156.529 43.1264 160.056 49.1657L160.224 49.4537L160.262 49.5249C160.642 50.2663 160.378 51.1837 159.649 51.6057C158.919 52.0275 157.992 51.7993 157.539 51.1001L157.497 51.031L157.336 50.7541C153.946 44.9498 149.826 39.6227 145.101 34.8979C140.303 30.0998 134.881 25.9238 128.968 22.5024V22.5026C123.139 19.1298 116.832 16.4896 110.175 14.7109V14.7108C103.74 12.9923 96.9784 12.0748 89.9996 12.0748C83.1296 12.0748 76.4686 12.9626 70.1267 14.6308L69.8249 14.7108C68.9846 14.9355 68.1213 14.4365 67.8966 13.5962C67.6719 12.7559 68.171 11.8924 69.0114 11.6677L69.3254 11.5844C75.927 9.84793 82.8571 8.92481 89.9996 8.9248Z" fill="#D2C2B6"></path>
      <path d="M8.9248 89.9995C8.9248 82.7434 9.87916 75.7067 11.6677 69.0114L11.7552 68.6869C13.6051 61.877 16.3217 55.4239 19.7761 49.4533V49.4531L19.9435 49.1651C23.4716 43.1261 27.7578 37.5831 32.6707 32.6702L32.7294 32.6144C33.3477 32.0558 34.3021 32.0744 34.898 32.6702C35.513 33.2853 35.513 34.2826 34.898 34.8977L34.6735 35.123C29.9696 39.8653 25.8704 45.2109 22.5024 51.0306L22.5026 51.0307C19.1298 56.8604 16.4896 63.1671 14.7109 69.8245C12.9925 76.2573 12.0748 83.0207 12.0748 89.9995C12.0748 96.8696 12.9627 103.53 14.6308 109.872L14.7108 110.174L14.7298 110.253C14.904 111.068 14.4102 111.885 13.5962 112.103C12.7821 112.32 11.9464 111.859 11.6907 111.066L11.6677 110.988L11.5844 110.674C9.84794 104.072 8.92481 97.142 8.9248 89.9995Z" fill="#D2C2B6"></path>
      <path d="M20.3506 128.394C21.08 127.972 22.007 128.2 22.4602 128.899L22.5026 128.968L22.6634 129.245C26.053 135.049 30.1732 140.377 34.8979 145.101C39.6961 149.899 45.119 154.075 51.0311 157.497H51.031C56.8606 160.869 63.1673 163.51 69.8248 165.288H69.8246C76.259 167.007 83.0209 167.924 89.9998 167.924C96.9789 167.924 103.742 167.008 110.174 165.288L110.253 165.269C111.068 165.095 111.885 165.589 112.103 166.403C112.327 167.243 111.828 168.107 110.988 168.332L110.674 168.415C104.072 170.151 97.1423 171.074 89.9998 171.074C82.7436 171.074 75.7085 170.12 69.0118 168.332H69.0117C62.1904 166.509 55.724 163.818 49.7381 160.387L49.4535 160.223L49.4534 160.223C43.3025 156.663 37.6613 152.319 32.6705 147.329C27.7563 142.414 23.4701 136.873 19.9433 130.834L19.7759 130.546L19.7371 130.474C19.3569 129.733 19.6212 128.816 20.3506 128.394Z" fill="#D2C2B6"></path>
      <path d="M167.925 89.9998C167.925 89.13 168.63 88.4248 169.5 88.4248C170.37 88.4248 171.075 89.13 171.075 89.9998C171.075 97.1425 170.15 104.073 168.415 110.674L168.332 110.988C166.48 117.917 163.733 124.481 160.223 130.546L160.223 130.546C156.664 136.697 152.32 142.338 147.329 147.329L147.27 147.385C146.652 147.944 145.697 147.925 145.101 147.329C144.486 146.714 144.486 145.717 145.101 145.102L145.326 144.876C149.955 140.209 153.999 134.958 157.336 129.245L157.497 128.968C160.87 123.139 163.51 116.832 165.288 110.175L165.368 109.873C167.035 103.531 167.925 96.8697 167.925 89.9998Z" fill="#D2C2B6"></path>
      <path d="M173.925 89.9998C173.925 82.484 172.937 75.2017 171.085 68.2727L170.994 67.9368C169.08 60.8929 166.321 54.3017 162.693 48.0328C159.008 41.6647 154.511 35.8262 149.342 30.6575C144.173 25.4887 138.335 20.9903 131.967 17.3066L131.967 17.3065C125.787 13.7297 119.11 10.9206 112.063 9.00537L111.727 8.91484C104.8 7.06298 97.5157 6.0748 89.9998 6.0748C82.484 6.0748 75.2016 7.06282 68.2725 8.9147L68.2727 8.91484C61.1034 10.8315 54.3106 13.6744 48.0326 17.3066L48.0325 17.3065C41.6645 20.9918 35.8262 25.4888 30.6575 30.6575C25.4887 35.8264 20.9903 41.6648 17.3066 48.0325L17.3065 48.0328C13.7297 54.2124 10.9206 60.8896 9.00537 67.9366L8.91484 68.2725C7.06298 75.2001 6.0748 82.4839 6.0748 89.9998C6.0748 97.5156 7.06298 104.798 8.91484 111.727L9.00537 112.063C10.9206 119.108 13.7311 125.787 17.3065 131.967L17.4798 132.265C21.1325 138.517 25.5695 144.254 30.6575 149.342C35.7456 154.43 41.4825 158.869 47.7344 162.52L48.0325 162.693L48.0328 162.693L48.3275 162.863C54.5229 166.415 61.2137 169.198 68.2725 171.085L68.5976 171.171C75.4278 172.967 82.6013 173.925 89.9998 173.925C97.5156 173.925 104.798 172.937 111.727 171.085L112.063 170.994C118.997 169.109 125.575 166.358 131.672 162.863L131.967 162.693C138.335 159.008 144.173 154.511 149.342 149.342C154.511 144.173 159.009 138.335 162.693 131.967L162.693 131.967L162.863 131.672C166.415 125.477 169.198 118.786 171.085 111.727L171.171 111.402C172.967 104.572 173.925 97.3983 173.925 89.9998ZM177.075 89.9998C177.075 97.6711 176.082 105.114 174.217 112.203L174.128 112.541C172.139 119.983 169.19 127.031 165.419 133.545C161.597 140.152 156.931 146.208 151.57 151.57C146.208 156.931 140.152 161.596 133.545 165.419L133.544 165.42C127.132 169.129 120.202 172.046 112.889 174.034L112.541 174.128C105.349 176.05 97.7929 177.075 89.9998 177.075C82.3285 177.075 74.8858 176.082 67.7964 174.217L67.4591 174.128C60.0169 172.139 52.969 169.19 46.4548 165.419V165.419C39.8477 161.597 33.7911 156.931 28.4301 151.57C23.0688 146.208 18.4038 140.152 14.5801 133.545L14.58 133.544C10.8701 127.132 7.9534 120.202 5.96567 112.889L5.87178 112.541C3.94967 105.349 2.9248 97.7929 2.9248 89.9998C2.9248 82.2067 3.94964 74.6495 5.87178 67.4591L5.96567 67.1106C7.95334 59.7968 10.8686 52.8673 14.5801 46.4548C18.4024 39.8476 23.069 33.7911 28.4301 28.4301C33.7913 23.0688 39.8479 18.4038 46.4548 14.5801L46.4551 14.58L46.7608 14.4039C53.1894 10.7193 60.1346 7.82998 67.4591 5.87178L67.7966 5.78228C74.8872 3.91784 82.3285 2.9248 89.9998 2.9248C97.7929 2.9248 105.35 3.94964 112.541 5.87178L112.889 5.96567C120.203 7.95331 127.132 10.8685 133.544 14.58L133.854 14.7597C140.341 18.5482 146.292 23.1527 151.57 28.4301C156.931 33.7913 161.596 39.8479 165.419 46.4548C169.183 52.9581 172.048 59.802 174.034 67.1106L174.128 67.4591L174.217 67.7966C176.082 74.8872 177.075 82.3285 177.075 89.9998Z" fill="#D2C2B6"></path>
      <path d="M118.262 106.982C118.262 106.813 118.398 106.688 118.566 106.688H123.102C123.281 106.688 123.407 106.813 123.407 106.982V107.36C123.407 107.527 123.281 107.664 123.102 107.664H119.312V109.701H122.577C122.745 109.701 122.871 109.827 122.871 110.005V110.373C122.871 110.552 122.745 110.677 122.577 110.677H119.312V112.799H123.155C123.333 112.799 123.459 112.935 123.459 113.103V113.481C123.459 113.649 123.333 113.775 123.155 113.775H118.566C118.398 113.775 118.262 113.649 118.262 113.481V106.982Z" fill="#3E4049"></path>
      <path d="M115.688 112.274C115.048 113.271 113.924 113.901 112.601 113.901C110.512 113.901 108.937 112.326 108.937 110.226C108.937 108.137 110.512 106.562 112.601 106.562C113.924 106.562 115.048 107.202 115.688 108.189C115.772 108.336 115.73 108.504 115.562 108.557L115.1 108.735C115.058 108.746 115.016 108.756 114.974 108.756C114.859 108.756 114.733 108.693 114.659 108.588C114.187 107.958 113.462 107.57 112.601 107.57C111.131 107.57 110.018 108.714 110.018 110.226C110.018 111.749 111.131 112.893 112.601 112.893C113.462 112.893 114.187 112.505 114.659 111.875C114.733 111.77 114.848 111.717 114.974 111.717C115.016 111.717 115.058 111.717 115.1 111.738L115.562 111.906C115.73 111.959 115.772 112.127 115.688 112.274Z" fill="#3E4049"></path>
      <path d="M100.351 106.982C100.351 106.813 100.487 106.688 100.655 106.688H101.002C101.159 106.688 101.348 106.782 101.453 106.908L105.464 111.969V106.982C105.464 106.813 105.59 106.688 105.758 106.688H106.168C106.346 106.688 106.472 106.813 106.472 106.982V113.481C106.472 113.649 106.346 113.775 106.178 113.775H105.821C105.664 113.775 105.475 113.681 105.38 113.565L101.369 108.504V113.481C101.369 113.649 101.233 113.775 101.065 113.775H100.655C100.487 113.775 100.351 113.649 100.351 113.481V106.982Z" fill="#3E4049"></path>
      <path d="M92.7944 106.982C92.7944 106.813 92.9309 106.688 93.0989 106.688H97.6349C97.8134 106.688 97.9394 106.813 97.9394 106.982V107.36C97.9394 107.527 97.8134 107.664 97.6349 107.664H93.8444V109.701H97.1099C97.2779 109.701 97.4039 109.827 97.4039 110.005V110.373C97.4039 110.552 97.2779 110.677 97.1099 110.677H93.8444V112.799H97.6874C97.8659 112.799 97.9919 112.935 97.9919 113.103V113.481C97.9919 113.649 97.8659 113.775 97.6874 113.775H93.0989C92.9309 113.775 92.7944 113.649 92.7944 113.481V106.982Z" fill="#3E4049"></path>
      <path d="M83.834 113.481V106.982C83.834 106.813 83.9705 106.688 84.1385 106.688H86.6585C88.748 106.688 90.3335 108.231 90.3335 110.226C90.3335 112.221 88.748 113.775 86.6585 113.775H84.1385C83.9705 113.775 83.834 113.649 83.834 113.481ZM86.6585 107.664H84.884V112.799H86.6585C88.1285 112.799 89.2415 111.675 89.2415 110.226C89.2415 108.788 88.1285 107.664 86.6585 107.664Z" fill="#3E4049"></path>
      <path d="M80.0615 113.481V106.982C80.0615 106.813 80.198 106.688 80.366 106.688H80.8175C80.9855 106.688 81.1115 106.813 81.1115 106.982V113.481C81.1115 113.649 80.9855 113.775 80.8175 113.775H80.366C80.198 113.775 80.0615 113.649 80.0615 113.481Z" fill="#3E4049"></path>
      <path d="M76.2425 108.263C76.043 107.874 75.539 107.57 74.909 107.57C74.153 107.57 73.5545 107.99 73.5545 108.557C73.5545 109.208 74.3525 109.428 75.4655 109.733C76.358 109.964 77.597 110.321 77.597 111.738C77.597 113.04 76.5155 113.901 75.0035 113.901C73.7435 113.901 72.788 113.303 72.431 112.484C72.3575 112.337 72.4415 112.169 72.6095 112.116L73.1555 111.948C73.1765 111.938 73.1975 111.938 73.2185 111.938C73.3025 111.938 73.3865 111.99 73.439 112.085C73.6385 112.547 74.2265 112.893 75.014 112.893C75.875 112.893 76.547 112.452 76.547 111.822C76.547 111.15 75.7805 110.909 75.161 110.751C73.88 110.384 72.515 110.058 72.515 108.63C72.515 107.391 73.502 106.562 74.888 106.562C76.022 106.562 76.904 107.118 77.2505 107.864C77.324 108.011 77.2505 108.179 77.072 108.231L76.5155 108.389C76.4945 108.399 76.4735 108.399 76.4525 108.399C76.379 108.399 76.295 108.347 76.2425 108.263Z" fill="#3E4049"></path>
      <path d="M65.0112 106.982C65.0112 106.813 65.1477 106.688 65.3157 106.688H69.8517C70.0302 106.688 70.1562 106.813 70.1562 106.982V107.36C70.1562 107.527 70.0302 107.664 69.8517 107.664H66.0612V109.701H69.3267C69.4947 109.701 69.6207 109.827 69.6207 110.005V110.373C69.6207 110.552 69.4947 110.677 69.3267 110.677H66.0612V112.799H69.9042C70.0827 112.799 70.2087 112.935 70.2087 113.103V113.481C70.2087 113.649 70.0827 113.775 69.9042 113.775H65.3157C65.1477 113.775 65.0112 113.649 65.0112 113.481V106.982Z" fill="#3E4049"></path>
      <path d="M56.8916 106.982C56.8916 106.813 57.0281 106.688 57.1961 106.688H60.1256C61.4591 106.688 62.4671 107.643 62.4671 108.903C62.4671 109.858 61.9001 110.635 61.0496 110.961L62.5826 113.523C62.6771 113.67 62.6141 113.775 62.4461 113.775H61.8686C61.6901 113.775 61.5011 113.67 61.4066 113.523L59.9576 111.129H57.9416V113.481C57.9416 113.649 57.8156 113.775 57.6476 113.775H57.1961C57.0281 113.775 56.8916 113.649 56.8916 113.481V106.982ZM60.1256 107.664H57.9416V110.152H60.1256C60.8396 110.152 61.3751 109.617 61.3751 108.903C61.3751 108.199 60.8396 107.664 60.1256 107.664Z" fill="#3E4049"></path>
      <path d="M43.305 72.1654C44.175 72.1654 45.045 72.7654 45.3 73.6354L50.055 88.8904L54.69 73.5154C54.915 72.7204 55.71 72.1504 56.505 72.1504H58.095C58.92 72.1504 59.715 72.7204 59.94 73.5154L64.62 88.8904L69.33 73.6354C69.555 72.7654 70.425 72.1654 71.325 72.1654H73.74C74.61 72.1654 75.06 72.8104 74.76 73.6354L67.185 96.3004C66.915 97.0504 66.135 97.6654 65.295 97.6654H63.705C62.91 97.6654 62.115 97.0954 61.89 96.3004L57.33 81.6004L52.725 96.3004C52.5 97.0954 51.705 97.6654 50.88 97.6654H49.29C48.495 97.6654 47.7 97.0654 47.445 96.3004L39.825 73.6354C39.525 72.8104 39.975 72.1654 40.875 72.1654H43.29H43.305Z" fill="#3E4049"></path>
      <path d="M79.7252 72.165H95.5202C96.4202 72.165 97.0652 72.81 97.0652 73.71V75.6C97.0652 76.47 96.4202 77.145 95.5202 77.145H83.5652V82.32H93.4802C94.3502 82.32 95.0252 82.965 95.0252 83.835V85.725C95.0252 86.625 94.3502 87.27 93.4802 87.27H83.5652V92.715H95.7002C96.6002 92.715 97.2452 93.36 97.2452 94.23V96.12C97.2452 96.99 96.6002 97.665 95.7002 97.665H79.7252C78.8552 97.665 78.1802 96.99 78.1802 96.12V73.725C78.1802 72.825 78.8552 72.18 79.7252 72.18V72.165Z" fill="#3E4049"></path>
      <path d="M102.525 72.165H104.82C105.69 72.165 106.365 72.81 106.365 73.71V92.715H117.33C118.2 92.715 118.875 93.36 118.875 94.23V96.12C118.875 96.99 118.2 97.665 117.33 97.665H102.525C101.655 97.665 100.98 96.99 100.98 96.12V73.725C100.98 72.825 101.655 72.18 102.525 72.18V72.165Z" fill="#3E4049"></path>
      <path d="M123.885 72.165H126.18C127.05 72.165 127.725 72.81 127.725 73.71V92.715H138.69C139.56 92.715 140.235 93.36 140.235 94.23V96.12C140.235 96.99 139.56 97.665 138.69 97.665H123.885C123.015 97.665 122.34 96.99 122.34 96.12V73.725C122.34 72.825 123.015 72.18 123.885 72.18V72.165Z" fill="#3E4049"></path>
    </svg>