<svg width="180" height="180" viewBox="0 0 180 180" fill="none" xmlns="http://www.w3.org/2000/svg">
      <path d="M90 180C139.706 180 180 139.706 180 90C180 40.2944 139.706 0 90 0C40.2944 0 0 40.2944 0 90C0 139.706 40.2944 180 90 180Z" fill="#EDF0F2"></path>
      <path d="M147.146 122.898C147.599 122.199 148.526 121.97 149.256 122.393C150.009 122.828 150.266 123.792 149.83 124.545L149.687 124.79C146.681 129.935 143.03 134.657 138.843 138.844C134.59 143.096 129.785 146.797 124.545 149.83L124.544 149.83C119.376 152.82 113.785 155.16 107.882 156.738H107.881C102.176 158.263 96.1819 159.076 89.9997 159.076C83.8178 159.076 77.8234 158.265 72.1176 156.738V156.738C66.3068 155.185 60.7981 152.893 55.6975 149.97L55.4549 149.83L55.4547 149.83C50.2144 146.797 45.4088 143.096 41.156 138.844C36.9696 134.657 33.3183 129.935 30.3122 124.79L30.1695 124.545L30.1307 124.474C29.7503 123.732 30.0144 122.815 30.7437 122.393C31.473 121.971 32.4 122.199 32.8534 122.898L32.8959 122.967L33.169 123.435C36.012 128.255 39.4502 132.683 43.3834 136.616C47.4435 140.676 52.0308 144.209 57.0324 147.103L57.496 147.369C62.2986 150.096 67.4757 152.237 72.9315 153.695H72.9316L73.4427 153.83C78.7316 155.199 84.2792 155.926 89.9997 155.926C95.72 155.926 101.268 155.197 106.557 153.83L107.068 153.695C112.524 152.236 117.701 150.096 122.503 147.369L122.967 147.103C127.968 144.209 132.556 140.676 136.616 136.616C140.676 132.556 144.209 127.968 147.104 122.967L147.146 122.898Z" fill="#BCC4CD"></path>
      <path d="M155.926 90.0012C155.926 84.0964 155.149 78.3756 153.695 72.9329V72.9327C152.189 67.3011 149.957 61.9665 147.104 57.0342L146.83 56.5665C143.987 51.7463 140.549 47.3182 136.616 43.3849C132.556 39.3248 127.968 35.7923 122.967 32.8974V32.8972C118.111 30.0882 112.866 27.8814 107.332 26.3769L107.068 26.3057L106.99 26.2829C106.197 26.0272 105.735 25.1915 105.953 24.3774C106.171 23.5633 106.988 23.0694 107.803 23.2436L107.881 23.2627L108.158 23.3372C113.867 24.8892 119.282 27.1542 124.302 30.0313L124.544 30.1709L124.545 30.171L124.79 30.3137C129.935 33.3199 134.657 36.9711 138.843 41.1575C143.03 45.3439 146.681 50.0659 149.687 55.2109L149.83 55.4563L149.83 55.4564L149.97 55.699C152.847 60.7188 155.112 66.1336 156.664 71.8429L156.738 72.1194V72.1196L156.879 72.6553C158.313 78.1997 159.076 84.0122 159.076 90.0012C159.076 90.8711 158.371 91.5762 157.501 91.5762C156.631 91.5762 155.926 90.8711 155.926 90.0012Z" fill="#BCC4CD"></path>
      <path d="M20.9248 89.9999C20.9248 83.8179 21.7366 77.8235 23.2628 72.1178C24.8411 66.2147 27.1808 60.6235 30.171 55.455L30.1712 55.4549L30.3139 55.2095C33.32 50.0645 36.9713 45.3425 41.1577 41.1561C45.4105 36.9033 50.216 33.2027 55.4563 30.1696C56.2091 29.7339 57.1727 29.991 57.6084 30.7438C58.0442 31.4967 57.7871 32.4603 57.0342 32.896C52.0326 35.7909 47.4451 39.3234 43.385 43.3835C39.3248 47.4437 35.7923 52.0311 32.8974 57.0328C30.0438 61.9652 27.8116 67.2999 26.3059 72.9316L26.3058 72.9318C24.85 78.374 24.0748 84.0948 24.0748 89.9999C24.0748 90.8697 23.3696 91.5748 22.4998 91.5748C21.63 91.5748 20.9248 90.8697 20.9248 89.9999Z" fill="#BCC4CD"></path>
      <path d="M89.9998 14.9247C96.719 14.9247 103.234 15.8084 109.434 17.465H109.434L109.735 17.546C116.04 19.2595 122.015 21.7744 127.545 24.9734L127.811 25.1283C133.316 28.3431 138.373 32.2387 142.868 36.6978L143.085 36.914L143.141 36.9728C143.7 37.5911 143.681 38.5455 143.085 39.1413C142.49 39.7372 141.535 39.7559 140.917 39.1973L140.858 39.1413L140.65 38.9342C136.342 34.6608 131.496 30.9281 126.223 27.8484L125.967 27.7C120.586 24.5868 114.765 22.1504 108.621 20.5082V20.5084C102.683 18.9219 96.4417 18.0747 89.9998 18.0747C83.558 18.0747 77.3166 18.9219 71.3789 20.5084L71.3787 20.5082C65.2342 22.1504 59.4137 24.5868 54.0327 27.7H54.0325C48.5752 30.8573 43.5707 34.7121 39.1415 39.1413C34.7123 43.5706 30.8575 48.575 27.7002 54.0323C27.2646 54.7853 26.3011 55.0426 25.5482 54.607C24.7953 54.1714 24.538 53.2079 24.9735 52.455C28.2693 46.7584 32.2925 41.5358 36.9142 36.914C41.5359 32.2923 46.7585 28.2691 52.4552 24.9734L52.7187 24.8216C58.262 21.6444 64.2496 19.153 70.5658 17.465L70.8567 17.388C76.9697 15.7811 83.3857 14.9247 89.9998 14.9247Z" fill="#BCC4CD"></path>
      <path d="M14.9248 89.9998C14.9248 89.13 15.63 88.4248 16.4998 88.4248C17.3697 88.4248 18.0748 89.13 18.0748 89.9998C18.0748 96.4416 18.9221 102.683 20.5085 108.621H20.5083C22.1505 114.765 24.5869 120.586 27.7001 125.967V125.967L27.8485 126.223C30.9779 131.581 34.7814 136.498 39.1415 140.858C43.5015 145.218 48.4189 149.022 53.777 152.151L54.0325 152.299L54.1016 152.342C54.8008 152.795 55.0291 153.722 54.6071 154.451C54.1852 155.181 53.2678 155.445 52.5263 155.065L52.4551 155.026L52.1884 154.871C46.5953 151.605 41.4637 147.635 36.9142 143.085C32.3646 138.536 28.395 133.404 25.1285 127.811L24.9735 127.544C21.7745 122.015 19.2596 116.04 17.5461 109.734L17.4651 109.434C15.8086 103.234 14.9248 96.719 14.9248 89.9998Z" fill="#BCC4CD"></path>
      <path d="M161.925 89.9997C161.925 83.5579 161.078 77.3165 159.491 71.3788C159.267 70.5384 159.766 69.6751 160.606 69.4506C161.447 69.2261 162.31 69.7254 162.534 70.5658C164.191 76.766 165.075 83.2806 165.075 89.9997C165.075 96.7189 164.191 103.234 162.534 109.434C160.903 115.54 158.358 121.729 155.178 127.281L155.026 127.545C151.73 133.241 147.707 138.464 143.085 143.086C138.536 147.635 133.404 151.604 127.811 154.871L127.544 155.026C121.928 158.276 115.85 160.82 109.434 162.534L109.355 162.553C108.54 162.727 107.723 162.234 107.506 161.42C107.281 160.579 107.78 159.716 108.621 159.491L108.908 159.414C114.947 157.773 120.67 155.364 125.967 152.3L126.222 152.151C131.581 149.022 136.498 145.218 140.858 140.858C145.287 136.429 149.142 131.424 152.299 125.967L152.445 125.714C155.489 120.399 157.93 114.463 159.491 108.621C161.078 102.683 161.925 96.4416 161.925 89.9997Z" fill="#BCC4CD"></path>
      <path d="M89.9998 8.92474C97.1425 8.92474 104.071 9.84942 110.674 11.5843L110.988 11.6675L110.988 11.6677L111.312 11.7551C118.122 13.6051 124.575 16.3217 130.546 19.776H130.546L130.834 19.9434C136.873 23.4715 142.416 27.7577 147.329 32.6706C152.243 37.5848 156.529 43.1263 160.056 49.1656L160.224 49.4536L160.262 49.5248C160.643 50.2663 160.378 51.1837 159.649 51.6056C158.919 52.0275 157.993 51.7992 157.539 51.1001L157.497 51.0309L157.336 50.7541C153.947 44.9498 149.826 39.6226 145.102 34.8979C140.304 30.0998 134.881 25.9238 128.969 22.5024V22.5025C123.139 19.1297 116.832 16.4895 110.175 14.7109V14.7107C103.74 12.9923 96.9786 12.0747 89.9998 12.0747C83.1297 12.0747 76.4688 12.9626 70.1268 14.6307L69.8251 14.7107C68.9847 14.9354 68.1214 14.4364 67.8967 13.5961C67.6721 12.7558 68.1711 11.8923 69.0115 11.6677L69.3255 11.5843C75.9271 9.84786 82.8572 8.92474 89.9998 8.92474Z" fill="#BCC4CD"></path>
      <path d="M8.92468 89.9999C8.92468 82.7437 9.87904 75.707 11.6676 69.0117L11.7551 68.6873C13.605 61.8773 16.3216 55.4242 19.776 49.4536V49.4534L19.9434 49.1654C23.4715 43.1264 27.7577 37.5834 32.6705 32.6706L32.7293 32.6147C33.3475 32.0561 34.302 32.0747 34.8978 32.6706C35.5129 33.2856 35.5129 34.2829 34.8978 34.898L34.6734 35.1233C29.9695 39.8656 25.8703 45.2112 22.5023 51.0309L22.5025 51.0311C19.1297 56.8607 16.4895 63.1674 14.7108 69.8249C12.9924 76.2576 12.0747 83.021 12.0747 89.9999C12.0747 96.8699 12.9625 103.531 14.6307 109.873L14.7107 110.174L14.7297 110.253C14.9039 111.068 14.4101 111.885 13.5961 112.103C12.782 112.321 11.9463 111.859 11.6906 111.066L11.6676 110.988L11.5843 110.674C9.84782 104.072 8.92469 97.1423 8.92468 89.9999Z" fill="#BCC4CD"></path>
      <path d="M20.3506 128.394C21.08 127.972 22.007 128.2 22.4602 128.899L22.5026 128.969L22.6634 129.245C26.053 135.05 30.1732 140.377 34.8979 145.102C39.6961 149.9 45.119 154.076 51.0311 157.497H51.031C56.8606 160.87 63.1673 163.51 69.8248 165.289H69.8246C76.259 167.007 83.0209 167.925 89.9998 167.925C96.9789 167.925 103.742 167.008 110.174 165.289L110.253 165.27C111.068 165.096 111.885 165.589 112.103 166.403C112.327 167.244 111.828 168.107 110.988 168.332L110.674 168.415C104.072 170.152 97.1423 171.075 89.9998 171.075C82.7436 171.075 75.7085 170.12 69.0118 168.332H69.0117C62.1904 166.509 55.724 163.818 49.7381 160.387L49.4535 160.224L49.4533 160.223C43.3025 156.664 37.6613 152.32 32.6705 147.329C27.7563 142.415 23.4701 136.873 19.9433 130.834L19.7759 130.546L19.7371 130.475C19.3569 129.733 19.6212 128.816 20.3506 128.394Z" fill="#BCC4CD"></path>
      <path d="M167.925 89.9998C167.925 89.13 168.63 88.4248 169.5 88.4248C170.37 88.4248 171.075 89.13 171.075 89.9998C171.075 97.1425 170.15 104.073 168.415 110.674L168.332 110.988C166.481 117.917 163.733 124.481 160.224 130.546L160.224 130.546C156.664 136.697 152.32 142.338 147.329 147.329L147.27 147.385C146.652 147.944 145.698 147.925 145.102 147.329C144.487 146.714 144.487 145.717 145.102 145.102L145.326 144.876C149.955 140.209 153.999 134.958 157.336 129.245L157.497 128.968C160.87 123.139 163.51 116.832 165.289 110.175L165.369 109.873C167.036 103.531 167.925 96.8697 167.925 89.9998Z" fill="#BCC4CD"></path>
      <path d="M173.925 90C173.925 82.4842 172.937 75.2019 171.085 68.2728L170.994 67.9369C169.08 60.8931 166.321 54.3019 162.693 48.0329C159.008 41.6649 154.511 35.8264 149.342 30.6577C144.173 25.4889 138.335 20.9905 131.967 17.3068L131.967 17.3067C125.787 13.7299 119.11 10.9207 112.063 9.00555L111.727 8.91503C104.8 7.06317 97.5158 6.07499 89.9999 6.07499C82.4841 6.07499 75.2017 7.063 68.2726 8.91488L68.2728 8.91503C61.1035 10.8317 54.3108 13.6746 48.0327 17.3068L48.0326 17.3067C41.6646 20.992 35.8263 25.489 30.6576 30.6577C25.4888 35.8265 20.9905 41.665 17.3068 48.0326L17.3066 48.0329C13.7298 54.2126 10.9207 60.8898 9.00549 67.9368L8.91497 68.2727C7.0631 75.2002 6.07493 82.4841 6.07493 90C6.07493 97.5158 7.0631 104.798 8.91497 111.727L9.00549 112.063C10.9207 119.109 13.7312 125.787 17.3066 131.967L17.4799 132.265C21.1326 138.517 25.5697 144.254 30.6576 149.342C35.7457 154.43 41.4826 158.869 47.7345 162.52L48.0326 162.693L48.0329 162.693L48.3276 162.863C54.523 166.415 61.2139 169.198 68.2726 171.085L68.5977 171.171C75.4279 172.967 82.6015 173.925 89.9999 173.925C97.5157 173.925 104.798 172.937 111.727 171.085L112.063 170.994C118.997 169.11 125.575 166.358 131.673 162.863L131.967 162.693C138.335 159.008 144.174 154.511 149.342 149.342C154.511 144.173 159.009 138.335 162.693 131.967L162.693 131.967L162.863 131.672C166.415 125.477 169.198 118.786 171.085 111.727L171.171 111.402C172.967 104.572 173.925 97.3984 173.925 90ZM177.075 90C177.075 97.6713 176.082 105.114 174.217 112.203L174.128 112.541C172.139 119.983 169.19 127.031 165.42 133.545C161.597 140.152 156.931 146.209 151.57 151.57C146.208 156.931 140.152 161.596 133.545 165.42L133.545 165.42C127.132 169.13 120.202 172.046 112.889 174.034L112.541 174.128C105.349 176.05 97.7931 177.075 89.9999 177.075C82.3286 177.075 74.8859 176.082 67.7966 174.218L67.4592 174.128C60.017 172.139 52.9692 169.19 46.455 165.42V165.42C39.8478 161.597 33.7913 156.931 28.4302 151.57C23.0689 146.208 18.4039 140.152 14.5802 133.545L14.5801 133.545C10.8703 127.132 7.95352 120.202 5.9658 112.889L5.8719 112.541C3.94979 105.349 2.92493 97.7931 2.92493 90C2.92493 82.2069 3.94976 74.6497 5.8719 67.4593L5.9658 67.1108C7.95346 59.797 10.8687 52.8675 14.5802 46.455C18.4025 39.8478 23.0691 33.7913 28.4302 28.4303C33.7915 23.069 39.848 18.4039 46.455 14.5803L46.4552 14.5802L46.761 14.4041C53.1896 10.7194 60.1347 7.83016 67.4592 5.87196L67.7967 5.78246C74.8873 3.91803 82.3286 2.92499 89.9999 2.92499C97.793 2.92499 105.35 3.94982 112.541 5.87196L112.889 5.96586C120.203 7.95349 127.132 10.8687 133.545 14.5802L133.854 14.7599C140.341 18.5484 146.292 23.1529 151.57 28.4303C156.931 33.7915 161.596 39.8481 165.42 46.455C169.183 52.9583 172.048 59.8021 174.034 67.1108L174.128 67.4593L174.217 67.7968C176.082 74.8874 177.075 82.3286 177.075 90Z" fill="#BCC4CD"></path>
      <path d="M69.9311 105.673C69.6711 105.167 69.0145 104.77 68.1937 104.77C67.2087 104.77 66.429 105.317 66.429 106.056C66.429 106.904 67.4686 107.192 68.9187 107.588C70.0815 107.889 71.6958 108.354 71.6958 110.201C71.6958 111.897 70.2867 113.019 68.3168 113.019C66.6752 113.019 65.4303 112.239 64.9652 111.172C64.8694 110.981 64.9789 110.762 65.1978 110.694L65.9091 110.475C65.9365 110.461 65.9638 110.461 65.9912 110.461C66.1006 110.461 66.2101 110.529 66.2785 110.653C66.5384 111.254 67.3045 111.706 68.3305 111.706C69.4522 111.706 70.3278 111.131 70.3278 110.311C70.3278 109.435 69.3291 109.12 68.522 108.915C66.853 108.436 65.0746 108.012 65.0746 106.152C65.0746 104.538 66.3606 103.457 68.1663 103.457C69.6438 103.457 70.7929 104.182 71.2443 105.153C71.3401 105.345 71.2443 105.564 71.0118 105.632L70.2867 105.837C70.2594 105.851 70.232 105.851 70.2047 105.851C70.1089 105.851 69.9995 105.782 69.9311 105.673ZM74.9072 112.472V104.004C74.9072 103.785 75.085 103.621 75.3039 103.621H75.8921C76.111 103.621 76.2752 103.785 76.2752 104.004V112.472C76.2752 112.691 76.111 112.855 75.8921 112.855H75.3039C75.085 112.855 74.9072 112.691 74.9072 112.472ZM79.8218 104.004C79.8218 103.785 79.9996 103.621 80.2185 103.621H80.8068C81.0256 103.621 81.1898 103.785 81.1898 104.004V111.583H85.6905C85.9094 111.583 86.0872 111.761 86.0872 111.98V112.472C86.0872 112.691 85.9094 112.855 85.6905 112.855H80.2185C79.9996 112.855 79.8218 112.691 79.8218 112.472V104.004ZM87.6137 103.621H88.2704C88.4893 103.621 88.7081 103.772 88.8039 103.977L91.7314 110.885L94.6453 103.977C94.741 103.772 94.9599 103.621 95.1925 103.621H95.8354C96.068 103.621 96.1637 103.772 96.068 103.977L92.4154 112.527C92.3333 112.718 92.1145 112.855 91.9229 112.855H91.5262C91.321 112.855 91.1158 112.718 91.0337 112.527L87.3812 103.977C87.2854 103.772 87.3949 103.621 87.6137 103.621ZM99.0027 104.004C99.0027 103.785 99.1805 103.621 99.3994 103.621H105.309C105.542 103.621 105.706 103.785 105.706 104.004V104.497C105.706 104.715 105.542 104.893 105.309 104.893H100.371V107.547H104.625C104.844 107.547 105.008 107.711 105.008 107.944V108.423C105.008 108.655 104.844 108.819 104.625 108.819H100.371V111.583H105.378C105.61 111.583 105.774 111.761 105.774 111.98V112.472C105.774 112.691 105.61 112.855 105.378 112.855H99.3994C99.1805 112.855 99.0027 112.691 99.0027 112.472V104.004ZM108.847 104.004C108.847 103.785 109.025 103.621 109.244 103.621H113.06C114.798 103.621 116.111 104.866 116.111 106.508C116.111 107.752 115.372 108.765 114.264 109.189L116.261 112.527C116.385 112.718 116.303 112.855 116.084 112.855H115.331C115.099 112.855 114.852 112.718 114.729 112.527L112.841 109.408H110.215V112.472C110.215 112.691 110.051 112.855 109.832 112.855H109.244C109.025 112.855 108.847 112.691 108.847 112.472V104.004ZM113.06 104.893H110.215V108.135H113.06C113.991 108.135 114.688 107.438 114.688 106.508C114.688 105.591 113.991 104.893 113.06 104.893Z" fill="#3E4049"></path>
      <path d="M43.305 69.495C44.175 69.495 45.045 70.095 45.3 70.965L50.055 86.22L54.69 70.845C54.915 70.05 55.71 69.48 56.505 69.48H58.095C58.92 69.48 59.715 70.05 59.94 70.845L64.62 86.22L69.33 70.965C69.555 70.095 70.425 69.495 71.325 69.495H73.74C74.61 69.495 75.06 70.14 74.76 70.965L67.185 93.63C66.915 94.38 66.135 94.995 65.295 94.995H63.705C62.91 94.995 62.115 94.425 61.89 93.63L57.33 78.93L52.725 93.63C52.5 94.425 51.705 94.995 50.88 94.995H49.29C48.495 94.995 47.7 94.395 47.445 93.63L39.825 70.965C39.525 70.14 39.975 69.495 40.875 69.495H43.29H43.305Z" fill="#3E4049"></path>
      <path d="M79.7248 69.4949H95.5198C96.4198 69.4949 97.0648 70.1399 97.0648 71.0399V72.9299C97.0648 73.7999 96.4198 74.4749 95.5198 74.4749H83.5648V79.6499H93.4798C94.3498 79.6499 95.0248 80.2949 95.0248 81.1649V83.0549C95.0248 83.9549 94.3498 84.5999 93.4798 84.5999H83.5648V90.0449H95.6998C96.5998 90.0449 97.2448 90.6899 97.2448 91.5599V93.4499C97.2448 94.3199 96.5998 94.9949 95.6998 94.9949H79.7248C78.8548 94.9949 78.1798 94.3199 78.1798 93.4499V71.0549C78.1798 70.1549 78.8548 69.5099 79.7248 69.5099V69.4949Z" fill="#3E4049"></path>
      <path d="M102.525 69.4949H104.82C105.69 69.4949 106.365 70.1399 106.365 71.0399V90.0449H117.33C118.2 90.0449 118.875 90.6899 118.875 91.5599V93.4499C118.875 94.3199 118.2 94.9949 117.33 94.9949H102.525C101.655 94.9949 100.98 94.3199 100.98 93.4499V71.0549C100.98 70.1549 101.655 69.5099 102.525 69.5099V69.4949Z" fill="#3E4049"></path>
      <path d="M123.885 69.4949H126.18C127.05 69.4949 127.725 70.1399 127.725 71.0399V90.0449H138.69C139.56 90.0449 140.235 90.6899 140.235 91.5599V93.4499C140.235 94.3199 139.56 94.9949 138.69 94.9949H123.885C123.015 94.9949 122.34 94.3199 122.34 93.4499V71.0549C122.34 70.1549 123.015 69.5099 123.885 69.5099V69.4949Z" fill="#3E4049"></path>
    </svg>