<svg xmlns="http://www.w3.org/2000/svg" width="120" height="120" viewBox="0 0 120 120" fill="none">
      <path d="M60 0C93.1371 0 120 26.8629 120 60C120 93.1371 93.1371 120 60 120C26.8629 120 0 93.1371 0 60C0 26.8629 26.8629 0 60 0ZM45.7295 4.35059C44.665 4.35059 43.7911 5.1661 43.6992 6.20605C39.5978 7.45441 35.6492 9.17185 31.9482 11.3125C27.6971 13.7641 23.7661 16.7829 20.2793 20.2676C16.7779 23.7741 13.7642 27.6957 11.3184 31.9297C8.84343 36.2 6.95019 40.7758 5.68359 45.5117C4.4243 50.2549 3.78418 55.1585 3.78418 60.0908C3.7842 65.0231 4.42429 69.9268 5.68359 74.6699C6.95748 79.4276 8.85799 84.0035 11.3184 88.252C13.7715 92.5004 16.7926 96.4285 20.2793 99.9131C23.788 103.412 27.7116 106.425 31.9482 108.869C36.2211 111.342 40.7994 113.234 45.5381 114.5C50.2841 115.759 55.1907 116.398 60.126 116.398C65.0614 116.398 69.9682 115.759 74.707 114.5C79.4677 113.227 84.0467 111.328 88.2979 108.869C92.5489 106.418 96.4791 103.398 99.9658 99.9131C103.467 96.4066 106.481 92.4859 108.927 88.252C111.08 84.5373 112.791 80.591 114.034 76.5098C115.08 76.4235 115.902 75.5493 115.902 74.4814C115.902 73.3566 114.99 72.4443 113.864 72.4443C112.739 72.4444 111.826 73.3567 111.826 74.4814C111.826 75.1455 112.146 75.7336 112.638 76.1055C111.429 80.0771 109.76 83.9107 107.668 87.5244C105.288 91.642 102.346 95.4689 98.9395 98.8809C95.5401 102.278 91.7189 105.21 87.5771 107.604C83.428 109.997 78.9728 111.845 74.3359 113.089C69.7208 114.318 64.9376 114.943 60.126 114.943C55.3145 114.943 50.5392 114.318 45.917 113.089C41.2947 111.859 36.8395 110.011 32.6758 107.604C28.5557 105.225 24.7265 102.285 21.3125 98.8809C17.9131 95.4835 14.9799 91.6638 12.585 87.5244C10.19 83.3777 8.34048 78.9251 7.0957 74.291C5.86556 69.6789 5.24026 64.8994 5.24023 60.0908C5.24023 55.2822 5.86554 50.5023 7.0957 45.8828C8.32592 41.2632 10.1755 36.8107 12.585 32.6494C14.9653 28.5319 17.9058 24.7049 21.3125 21.293C24.7119 17.8956 28.5339 14.9637 32.6758 12.5703C36.2741 10.491 40.1089 8.824 44.0986 7.60645C44.4704 8.10235 45.0618 8.4248 45.7295 8.4248C46.855 8.42462 47.7675 7.51251 47.7676 6.3877C47.7676 5.26282 46.855 4.35077 45.7295 4.35059ZM110.14 58.0547C109.014 58.0547 108.101 58.966 108.101 60.0908C108.101 60.9396 108.621 61.6666 109.359 61.9727C109.22 65.6496 108.676 69.2945 107.73 72.8438C106.624 76.9905 104.964 80.9843 102.802 84.7236C100.647 88.4411 98.0047 91.8751 94.9619 94.916C91.9192 97.9569 88.4906 100.59 84.7637 102.751C81.0221 104.912 77.0261 106.571 72.877 107.677C68.7569 108.783 64.4619 109.342 60.1162 109.342C55.7997 109.342 51.5119 108.782 47.3555 107.677C43.2062 106.571 39.2094 104.912 35.4678 102.751C31.7481 100.598 28.3122 97.9569 25.2695 94.916C22.6729 92.3209 20.3743 89.4442 18.4121 86.3418C18.6833 85.9959 18.8467 85.5614 18.8467 85.0879C18.8466 83.963 17.9342 83.0508 16.8086 83.0508C15.683 83.0508 14.7706 83.963 14.7705 85.0879C14.7705 86.2129 15.6829 87.125 16.8086 87.125C16.9307 87.125 17.0499 87.1124 17.166 87.0918C19.1912 90.2968 21.5648 93.2725 24.2432 95.9492C27.3805 99.0773 30.911 101.798 34.7471 104.017C38.5979 106.243 42.7114 107.946 46.9844 109.088C51.2644 110.223 55.6828 110.797 60.123 110.797C64.5997 110.797 69.0184 110.223 73.2549 109.088C77.5206 107.946 81.6414 106.243 85.4922 104.017C89.3283 101.791 92.8661 99.0773 95.9961 95.9492C99.1335 92.8137 101.848 89.285 104.068 85.4512C106.296 81.6029 108 77.4929 109.143 73.2227C110.114 69.5624 110.674 65.8005 110.815 62.0107C111.608 61.7318 112.178 60.9786 112.178 60.0908C112.178 58.9662 111.265 58.055 110.14 58.0547ZM21.6621 35.8584C20.5367 35.8587 19.6242 36.7708 19.624 37.8955C19.624 38.3981 19.8075 38.8576 20.1094 39.2129C18.5744 42.1428 17.367 45.2297 16.5186 48.4141C15.5067 52.2189 14.9971 56.1478 14.9971 60.0908C14.9971 64.0483 15.5073 67.9765 16.5264 71.7666C17.5382 75.564 19.0592 79.2234 21.0391 82.6426C23.0191 86.0545 25.4288 89.1981 28.2168 91.9844C31.0193 94.7778 34.1641 97.1931 37.5635 99.1572C40.9847 101.136 44.6465 102.657 48.4463 103.668C52.2533 104.679 56.1846 105.188 60.1299 105.188C64.1043 105.187 68.0351 104.679 71.8057 103.66C75.6054 102.649 79.2672 101.128 82.6885 99.1494C85.5305 97.5057 88.1752 95.5643 90.5879 93.3574C90.8698 93.4969 91.1866 93.5771 91.5225 93.5771C92.6882 93.577 93.6328 92.6328 93.6328 91.4678C93.6328 90.3027 92.6882 89.3585 91.5225 89.3584C90.3566 89.3584 89.4111 90.3026 89.4111 91.4678C89.4111 91.7664 89.474 92.0502 89.5859 92.3076C87.2587 94.4328 84.7037 96.3076 81.9678 97.8916C78.6558 99.8048 75.1105 101.274 71.4346 102.256C67.7805 103.238 63.9805 103.733 60.1299 103.733C56.3082 103.733 52.5076 103.231 48.8242 102.256C45.1483 101.274 41.603 99.8048 38.291 97.8916C35.008 95.9928 31.9652 93.6574 29.25 90.9512C26.5566 88.2594 24.2201 85.2179 22.3057 81.915C20.3913 78.6051 18.9212 75.0623 17.9385 71.3887C16.9558 67.7222 16.4531 63.9174 16.4531 60.0908C16.4531 56.2716 16.9484 52.4667 17.9238 48.793C18.7456 45.721 19.9085 42.7405 21.3867 39.9111C21.4769 39.9233 21.5686 39.9326 21.6621 39.9326C22.7878 39.9326 23.7012 39.0205 23.7012 37.8955C23.701 36.7706 22.7877 35.8584 21.6621 35.8584ZM32.6924 30.6357C31.5667 30.6357 30.6533 31.5479 30.6533 32.6729C30.6534 32.9818 30.7245 33.2738 30.8477 33.5361C28.9554 35.618 27.2895 37.8948 25.8838 40.3252C24.1587 43.3005 22.826 46.5082 21.9307 49.8545C21.0499 53.1863 20.5987 56.6276 20.5986 60.083C20.5986 63.5675 21.0427 67.0089 21.9307 70.3115C22.826 73.6506 24.1514 76.8591 25.8838 79.8418C27.609 82.8245 29.727 85.5752 32.1729 88.0195C34.6187 90.4639 37.371 92.5805 40.3555 94.3047C43.3325 96.0287 46.5424 97.3601 49.8906 98.2549C53.2246 99.1351 56.6683 99.5859 60.126 99.5859C63.6126 99.5859 67.0556 99.1355 70.3457 98.248C73.6868 97.3533 76.8974 96.0219 79.8818 94.2979C82.8664 92.5737 85.6186 90.4561 88.0645 88.0117C90.0545 86.0228 91.8266 83.8308 93.3477 81.4766C93.473 81.5006 93.602 81.5146 93.7344 81.5146C94.8601 81.5146 95.7725 80.6025 95.7725 79.4775C95.7723 78.3527 94.86 77.4404 93.7344 77.4404C92.6089 77.4405 91.6965 78.3528 91.6963 79.4775C91.6963 79.9402 91.8523 80.366 92.1123 80.708C90.652 82.9635 88.9508 85.067 87.0381 86.9785C84.6868 89.3283 82.0365 91.3653 79.1611 93.0312C76.2858 94.6972 73.1921 95.9775 69.9746 96.8359C66.7935 97.6944 63.4812 98.124 60.1182 98.124C56.7844 98.124 53.4727 97.687 50.2627 96.8359C47.038 95.9702 43.9442 94.6899 41.0762 93.0312C38.2081 91.3726 35.5577 89.3356 33.1992 86.9785C30.8481 84.6288 28.8095 81.9809 27.1426 79.1074C25.4757 76.234 24.1949 73.1421 23.3359 69.9268C22.477 66.7476 22.0479 63.4372 22.0479 60.0762C22.0479 56.7443 22.4843 53.4338 23.3359 50.2256C24.2022 47.003 25.483 43.9111 27.1426 41.0449C28.4874 38.7225 30.0808 36.5431 31.8916 34.5459C32.1374 34.6509 32.4082 34.709 32.6924 34.709C33.8178 34.7088 34.7303 33.7975 34.7305 32.6729C34.7305 31.548 33.8179 30.6359 32.6924 30.6357ZM60.1289 8.0752C59.2463 8.0754 58.4961 8.63634 58.2129 9.4209C54.4184 9.56213 50.6521 10.1221 46.9873 11.0938C42.7216 12.2359 38.6008 13.9379 34.75 16.1641C30.9138 18.3902 27.3762 21.1042 24.2461 24.2324C21.116 27.3679 18.394 30.8966 16.1738 34.7305C13.9464 38.5788 12.2425 42.6887 11.0996 46.959C10.1275 50.6209 9.56726 54.3843 9.42578 58.1758C8.64112 58.459 8.08026 59.209 8.08008 60.0908C8.08008 61.2158 8.99248 62.1279 10.1182 62.1279C11.2437 62.1278 12.1562 61.2157 12.1562 60.0908C12.1561 59.2361 11.6287 58.5052 10.8818 58.2031C11.0213 54.5266 11.5668 50.8792 12.5117 47.3379C13.6182 43.1912 15.2785 39.1973 17.4404 35.458C19.6024 31.7405 22.2375 28.3065 25.2803 25.2656C28.323 22.2247 31.7515 19.5913 35.4785 17.4307C39.2201 15.27 43.2161 13.6107 47.3652 12.5049C50.9096 11.5603 54.5605 11.0152 58.2402 10.876C58.5427 11.622 59.274 12.1482 60.1289 12.1484C61.2546 12.1484 62.168 11.2363 62.168 10.1113C62.1677 8.98653 61.2544 8.0752 60.1289 8.0752Z" fill="currentColor"></path>
    </svg>