<svg xmlns="http://www.w3.org/2000/svg" width="14.400" height="14.400" viewBox="0 0 14.400 14.400" fill="none">
  <path d="M 10.065 14.253 C 9.983 14.659 10.247 15.054 10.653 15.135 C 11.059 15.217 11.454 14.953 11.535 14.547 L 10.8 14.4 L 10.065 14.253 Z M 12.6 11.4 L 12.098 10.843 C 12.089 10.851 12.079 10.86 12.07 10.87 L 12.6 11.4 Z M 7.2 0 L 7.2 -0.75 L 7.2 0 Z M 0 7.2 L -0.75 7.2 L 0 7.2 Z M 2.865 14.547 C 2.946 14.953 3.341 15.217 3.747 15.135 C 4.153 15.054 4.417 14.659 4.335 14.253 L 3.6 14.4 L 2.865 14.547 Z M 10.8 14.4 L 11.535 14.547 C 11.734 13.553 12.22 12.841 13.13 11.93 L 12.6 11.4 L 12.07 10.87 C 11.06 11.879 10.346 12.847 10.065 14.253 L 10.8 14.4 Z M 12.6 11.4 L 13.102 11.957 C 14.479 10.718 15.15 8.945 15.15 7.2 L 14.4 7.2 L 13.65 7.2 C 13.65 8.575 13.121 9.922 12.098 10.843 L 12.6 11.4 Z M 14.4 7.2 L 15.15 7.2 C 15.15 5.092 14.312 3.069 12.821 1.579 L 12.291 2.109 L 11.761 2.639 C 12.97 3.849 13.65 5.489 13.65 7.2 L 14.4 7.2 Z M 12.291 2.109 L 12.821 1.579 C 11.331 0.088 9.308 -0.75 7.2 -0.75 L 7.2 0 L 7.2 0.75 C 8.911 0.75 10.551 1.43 11.761 2.639 L 12.291 2.109 Z M 7.2 0 L 7.2 -0.75 C 5.092 -0.75 3.069 0.088 1.579 1.579 L 2.109 2.109 L 2.639 2.639 C 3.849 1.43 5.489 0.75 7.2 0.75 L 7.2 0 Z M 2.109 2.109 L 1.579 1.579 C 0.088 3.069 -0.75 5.092 -0.75 7.2 L 0 7.2 L 0.75 7.2 C 0.75 5.489 1.43 3.849 2.639 2.639 L 2.109 2.109 Z M 0 7.2 L -0.75 7.2 C -0.75 8.547 -0.464 10.197 1.27 11.93 L 1.8 11.4 L 2.33 10.87 C 0.944 9.483 0.75 8.253 0.75 7.2 L 0 7.2 Z M 1.8 11.4 L 1.27 11.93 C 2.067 12.728 2.667 13.56 2.865 14.547 L 3.6 14.4 L 4.335 14.253 C 4.053 12.84 3.213 11.752 2.33 10.87 L 1.8 11.4 Z" fill="currentColor" fill-rule="nonzero"></path>
</svg>