<svg xmlns="http://www.w3.org/2000/svg" width="11.200" height="11.200" viewBox="0 0 11.200 11.200" fill="none">
  <path d="M 11.2 5.6 L 10.45 5.6 C 10.45 8.279 8.279 10.45 5.6 10.45 L 5.6 11.2 L 5.6 11.95 C 9.107 11.95 11.95 9.107 11.95 5.6 L 11.2 5.6 Z M 5.6 11.2 L 5.6 10.45 C 2.921 10.45 0.75 8.279 0.75 5.6 L 0 5.6 L -0.75 5.6 C -0.75 9.107 2.093 11.95 5.6 11.95 L 5.6 11.2 Z M 0 5.6 L 0.75 5.6 C 0.75 2.921 2.921 0.75 5.6 0.75 L 5.6 0 L 5.6 -0.75 C 2.093 -0.75 -0.75 2.093 -0.75 5.6 L 0 5.6 Z M 5.6 0 L 5.6 0.75 C 8.279 0.75 10.45 2.921 10.45 5.6 L 11.2 5.6 L 11.95 5.6 C 11.95 2.093 9.107 -0.75 5.6 -0.75 L 5.6 0 Z" fill="currentColor" fill-rule="nonzero"></path>
</svg>