<svg xmlns="http://www.w3.org/2000/svg" width="22" height="22" viewBox="0 0 22 22" fill="none">
  <path d="M 22 11.75 C 22.414 11.75 22.75 11.414 22.75 11 C 22.75 10.586 22.414 10.25 22 10.25 L 22 11 L 22 11.75 Z M 19.272 11 L 19.27 11.75 L 19.272 11.75 L 19.272 11 Z M 17.149 12.606 L 17.871 12.809 L 17.871 12.808 L 17.149 12.606 Z M 14.564 21.802 L 15.284 22.012 L 15.286 22.005 L 14.564 21.802 Z M 14.036 21.802 L 13.314 22.005 L 13.316 22.012 L 14.036 21.802 Z M 7.964 0.198 L 8.686 -0.005 L 8.684 -0.012 L 7.964 0.198 Z M 7.7 0 L 7.7 -0.75 L 7.7 0 Z M 7.436 0.198 L 6.716 -0.012 L 6.714 -0.005 L 7.436 0.198 Z M 4.851 9.394 L 4.129 9.191 L 4.129 9.192 L 4.851 9.394 Z M 2.739 11 L 2.739 11.75 L 2.741 11.75 L 2.739 11 Z M 0 10.25 C -0.414 10.25 -0.75 10.586 -0.75 11 C -0.75 11.414 -0.414 11.75 0 11.75 L 0 11 L 0 10.25 Z M 22 11 L 22 10.25 L 19.272 10.25 L 19.272 11 L 19.272 11.75 L 22 11.75 L 22 11 Z M 19.272 11 L 19.274 10.25 C 18.629 10.249 18.002 10.458 17.488 10.847 L 17.94 11.445 L 18.393 12.044 C 18.645 11.852 18.954 11.749 19.27 11.75 L 19.272 11 Z M 17.94 11.445 L 17.488 10.847 C 16.973 11.236 16.601 11.783 16.427 12.404 L 17.149 12.606 L 17.871 12.808 C 17.957 12.503 18.14 12.235 18.393 12.044 L 17.94 11.445 Z M 17.149 12.606 L 16.427 12.403 L 13.842 21.599 L 14.564 21.802 L 15.286 22.005 L 17.871 12.809 L 17.149 12.606 Z M 14.564 21.802 L 13.844 21.592 C 13.873 21.493 13.933 21.407 14.015 21.345 L 14.465 21.945 L 14.915 22.545 C 15.092 22.412 15.222 22.225 15.284 22.012 L 14.564 21.802 Z M 14.465 21.945 L 14.015 21.345 C 14.097 21.283 14.197 21.25 14.3 21.25 L 14.3 22 L 14.3 22.75 C 14.522 22.75 14.738 22.678 14.915 22.545 L 14.465 21.945 Z M 14.3 22 L 14.3 21.25 C 14.403 21.25 14.503 21.283 14.585 21.345 L 14.135 21.945 L 13.685 22.545 C 13.862 22.678 14.078 22.75 14.3 22.75 L 14.3 22 Z M 14.135 21.945 L 14.585 21.345 C 14.667 21.407 14.727 21.493 14.756 21.592 L 14.036 21.802 L 13.316 22.012 C 13.378 22.225 13.508 22.412 13.685 22.545 L 14.135 21.945 Z M 14.036 21.802 L 14.758 21.599 L 8.686 -0.005 L 7.964 0.198 L 7.242 0.401 L 13.314 22.005 L 14.036 21.802 Z M 7.964 0.198 L 8.684 -0.012 C 8.622 -0.225 8.492 -0.412 8.315 -0.545 L 7.865 0.055 L 7.415 0.655 C 7.333 0.593 7.273 0.507 7.244 0.408 L 7.964 0.198 Z M 7.865 0.055 L 8.315 -0.545 C 8.138 -0.678 7.922 -0.75 7.7 -0.75 L 7.7 0 L 7.7 0.75 C 7.597 0.75 7.497 0.717 7.415 0.655 L 7.865 0.055 Z M 7.7 0 L 7.7 -0.75 C 7.478 -0.75 7.262 -0.678 7.085 -0.545 L 7.535 0.055 L 7.985 0.655 C 7.903 0.717 7.803 0.75 7.7 0.75 L 7.7 0 Z M 7.535 0.055 L 7.085 -0.545 C 6.908 -0.412 6.778 -0.225 6.716 -0.012 L 7.436 0.198 L 8.156 0.408 C 8.127 0.507 8.067 0.593 7.985 0.655 L 7.535 0.055 Z M 7.436 0.198 L 6.714 -0.005 L 4.129 9.191 L 4.851 9.394 L 5.573 9.597 L 8.158 0.401 L 7.436 0.198 Z M 4.851 9.394 L 4.129 9.192 C 4.044 9.495 3.862 9.763 3.61 9.954 L 4.064 10.551 L 4.518 11.148 C 5.029 10.76 5.4 10.215 5.573 9.596 L 4.851 9.394 Z M 4.064 10.551 L 3.61 9.954 C 3.359 10.145 3.052 10.249 2.737 10.25 L 2.739 11 L 2.741 11.75 C 3.383 11.748 4.007 11.537 4.518 11.148 L 4.064 10.551 Z M 2.739 11 L 2.739 10.25 L 0 10.25 L 0 11 L 0 11.75 L 2.739 11.75 L 2.739 11 Z" fill="currentColor" fill-rule="nonzero"></path>
</svg>