<svg xmlns="http://www.w3.org/2000/svg" width="15.955" height="22" viewBox="0 0 15.955 22" fill="none">
  <path d="M 0.006 1.278 L 0.752 1.2 L 0.752 1.2 L 0.006 1.278 Z M 1.157 0 L 1.157 -0.75 L 1.157 -0.75 L 1.157 0 Z M 14.797 0 L 14.798 -0.75 L 14.797 -0.75 L 14.797 0 Z M 15.948 1.279 L 15.202 1.201 L 15.202 1.201 L 15.948 1.279 Z M 13.987 19.927 L 14.733 20.006 L 14.733 20.006 L 13.987 19.927 Z M 11.682 22 L 11.683 21.25 L 11.682 21.25 L 11.682 22 Z M 4.272 22 L 4.272 21.25 L 4.268 21.25 L 4.272 22 Z M 1.956 19.927 L 1.21 20.005 L 1.21 20.006 L 1.956 19.927 Z M 0.006 1.278 L 0.752 1.2 C 0.746 1.143 0.752 1.086 0.77 1.032 L 0.057 0.8 L -0.656 0.568 C -0.739 0.822 -0.767 1.091 -0.74 1.356 L 0.006 1.278 Z M 0.057 0.8 L 0.77 1.032 C 0.788 0.977 0.817 0.927 0.855 0.885 L 0.297 0.383 L -0.26 -0.119 C -0.439 0.08 -0.574 0.314 -0.656 0.568 L 0.057 0.8 Z M 0.297 0.383 L 0.855 0.885 C 0.893 0.843 0.94 0.809 0.992 0.785 L 0.687 0.1 L 0.381 -0.585 C 0.137 -0.476 -0.081 -0.317 -0.26 -0.119 L 0.297 0.383 Z M 0.687 0.1 L 0.992 0.785 C 1.044 0.762 1.101 0.75 1.158 0.75 L 1.157 0 L 1.157 -0.75 C 0.89 -0.75 0.625 -0.694 0.381 -0.585 L 0.687 0.1 Z M 1.157 0 L 1.157 0.75 L 14.797 0.75 L 14.797 0 L 14.797 -0.75 L 1.157 -0.75 L 1.157 0 Z M 14.797 0 L 14.797 0.75 C 14.854 0.75 14.911 0.762 14.963 0.785 L 15.268 0.1 L 15.573 -0.585 C 15.329 -0.694 15.065 -0.75 14.798 -0.75 L 14.797 0 Z M 15.268 0.1 L 14.963 0.785 C 15.015 0.809 15.062 0.843 15.1 0.885 L 15.658 0.384 L 16.215 -0.118 C 16.036 -0.317 15.818 -0.476 15.573 -0.585 L 15.268 0.1 Z M 15.658 0.384 L 15.1 0.885 C 15.138 0.928 15.167 0.978 15.185 1.032 L 15.898 0.801 L 16.611 0.569 C 16.529 0.315 16.394 0.081 16.215 -0.118 L 15.658 0.384 Z M 15.898 0.801 L 15.185 1.032 C 15.202 1.086 15.208 1.144 15.202 1.201 L 15.948 1.279 L 16.694 1.358 C 16.722 1.092 16.694 0.824 16.611 0.569 L 15.898 0.801 Z M 15.948 1.279 L 15.202 1.201 L 13.241 19.849 L 13.987 19.927 L 14.733 20.006 L 16.694 1.358 L 15.948 1.279 Z M 13.987 19.927 L 13.241 19.849 C 13.2 20.233 13.019 20.59 12.731 20.848 L 13.232 21.406 L 13.734 21.964 C 14.297 21.457 14.653 20.76 14.733 20.006 L 13.987 19.927 Z M 13.232 21.406 L 12.731 20.848 C 12.443 21.107 12.07 21.25 11.683 21.25 L 11.682 22 L 11.682 22.75 C 12.44 22.75 13.171 22.47 13.734 21.964 L 13.232 21.406 Z M 11.682 22 L 11.682 21.25 L 4.272 21.25 L 4.272 22 L 4.272 22.75 L 11.682 22.75 L 11.682 22 Z M 4.272 22 L 4.268 21.25 C 3.88 21.252 3.504 21.11 3.215 20.851 L 2.715 21.41 L 2.215 21.969 C 2.781 22.476 3.516 22.754 4.276 22.75 L 4.272 22 Z M 2.715 21.41 L 3.215 20.851 C 2.926 20.592 2.743 20.235 2.702 19.849 L 1.956 19.927 L 1.21 20.006 C 1.29 20.762 1.648 21.462 2.215 21.969 L 2.715 21.41 Z M 1.956 19.927 L 2.702 19.849 L 0.752 1.2 L 0.006 1.278 L -0.74 1.356 L 1.21 20.005 L 1.956 19.927 Z" fill="currentColor" fill-rule="nonzero"></path>
</svg>