<svg xmlns="http://www.w3.org/2000/svg" width="16.800" height="4.800" viewBox="0 0 16.800 4.800" fill="none">
  <path d="M 13.41 3.72 C 13.079 3.471 12.609 3.539 12.36 3.87 C 12.111 4.201 12.179 4.671 12.51 4.92 L 12.96 4.32 L 13.41 3.72 Z M 16.081 4.113 L 16.606 4.648 L 16.081 4.113 Z M 0 -0.75 C -0.414 -0.75 -0.75 -0.414 -0.75 0 C -0.75 0.414 -0.414 0.75 0 0.75 L 0 0 L 0 -0.75 Z M 12.96 4.32 L 12.51 4.92 C 12.909 5.219 13.374 5.42 13.866 5.504 L 13.993 4.765 L 14.12 4.026 C 13.863 3.982 13.619 3.877 13.41 3.72 L 12.96 4.32 Z M 13.993 4.765 L 13.866 5.504 C 14.358 5.589 14.863 5.556 15.339 5.407 L 15.116 4.691 L 14.892 3.975 C 14.642 4.053 14.378 4.07 14.12 4.026 L 13.993 4.765 Z M 15.116 4.691 L 15.339 5.407 C 15.816 5.258 16.25 4.998 16.606 4.648 L 16.081 4.113 L 15.556 3.578 C 15.369 3.761 15.142 3.897 14.892 3.975 L 15.116 4.691 Z M 16.081 4.113 L 16.606 4.648 C 16.962 4.299 17.231 3.87 17.388 3.396 L 16.677 3.159 L 15.965 2.922 C 15.883 3.17 15.742 3.395 15.556 3.578 L 16.081 4.113 Z M 16.677 3.159 L 17.388 3.396 C 17.546 2.923 17.589 2.418 17.514 1.925 L 16.773 2.038 L 16.031 2.151 C 16.071 2.41 16.048 2.674 15.965 2.922 L 16.677 3.159 Z M 16.773 2.038 L 17.514 1.925 C 17.439 1.432 17.247 0.963 16.955 0.558 L 16.347 0.997 L 15.739 1.435 C 15.891 1.647 15.992 1.893 16.031 2.151 L 16.773 2.038 Z M 16.347 0.997 L 16.955 0.558 C 16.664 0.153 16.28 -0.177 15.835 -0.404 L 15.494 0.264 L 15.152 0.931 C 15.385 1.05 15.586 1.223 15.739 1.435 L 16.347 0.997 Z M 15.494 0.264 L 15.835 -0.404 C 15.391 -0.631 14.899 -0.75 14.4 -0.75 L 14.4 0 L 14.4 0.75 C 14.661 0.75 14.919 0.812 15.152 0.931 L 15.494 0.264 Z M 14.4 0 L 14.4 -0.75 L 0 -0.75 L 0 0 L 0 0.75 L 14.4 0.75 L 14.4 0 Z" fill="currentColor" fill-rule="nonzero"></path>
</svg>