<svg xmlns="http://www.w3.org/2000/svg" width="24" height="21.600" viewBox="0 0 24 21.600" fill="none">
  <path d="M 20.4 13.2 L 19.875 12.664 L 19.87 12.67 L 20.4 13.2 Z M 12 2.4 L 11.47 2.93 C 11.763 3.223 12.237 3.223 12.53 2.93 L 12 2.4 Z M 0 6.6 L -0.75 6.6 L 0 6.6 Z M 3.6 13.2 L 4.13 12.67 L 4.121 12.661 L 3.6 13.2 Z M 12 21.6 L 11.47 22.13 C 11.763 22.423 12.237 22.423 12.53 22.13 L 12 21.6 Z M 20.4 13.2 L 20.925 13.736 C 22.711 11.985 24.75 9.689 24.75 6.6 L 24 6.6 L 23.25 6.6 C 23.25 9.007 21.665 10.911 19.875 12.664 L 20.4 13.2 Z M 24 6.6 L 24.75 6.6 C 24.75 4.651 23.976 2.781 22.597 1.403 L 22.067 1.933 L 21.537 2.463 C 22.634 3.561 23.25 5.048 23.25 6.6 L 24 6.6 Z M 22.067 1.933 L 22.597 1.403 C 21.219 0.024 19.349 -0.75 17.4 -0.75 L 17.4 0 L 17.4 0.75 C 18.952 0.75 20.439 1.366 21.537 2.463 L 22.067 1.933 Z M 17.4 0 L 17.4 -0.75 C 16.269 -0.75 15.262 -0.589 14.284 -0.163 C 13.31 0.261 12.412 0.927 11.47 1.87 L 12 2.4 L 12.53 2.93 C 13.388 2.073 14.134 1.539 14.882 1.213 C 15.626 0.889 16.419 0.75 17.4 0.75 L 17.4 0 Z M 12 2.4 L 12.53 1.87 C 11.588 0.927 10.69 0.261 9.716 -0.163 C 8.738 -0.589 7.731 -0.75 6.6 -0.75 L 6.6 0 L 6.6 0.75 C 7.581 0.75 8.374 0.889 9.118 1.213 C 9.866 1.539 10.612 2.073 11.47 2.93 L 12 2.4 Z M 6.6 0 L 6.6 -0.75 C 4.651 -0.75 2.781 0.024 1.403 1.403 L 1.933 1.933 L 2.463 2.463 C 3.561 1.366 5.048 0.75 6.6 0.75 L 6.6 0 Z M 1.933 1.933 L 1.403 1.403 C 0.024 2.781 -0.75 4.651 -0.75 6.6 L 0 6.6 L 0.75 6.6 C 0.75 5.048 1.366 3.561 2.463 2.463 L 1.933 1.933 Z M 0 6.6 L -0.75 6.6 C -0.75 9.7 1.274 11.995 3.079 13.739 L 3.6 13.2 L 4.121 12.661 C 2.326 10.925 0.75 9.02 0.75 6.6 L 0 6.6 Z M 3.6 13.2 L 3.07 13.73 L 11.47 22.13 L 12 21.6 L 12.53 21.07 L 4.13 12.67 L 3.6 13.2 Z M 12 21.6 L 12.53 22.13 L 20.93 13.73 L 20.4 13.2 L 19.87 12.67 L 11.47 21.07 L 12 21.6 Z" fill="currentColor" fill-rule="nonzero"></path>
</svg>