<svg xmlns="http://www.w3.org/2000/svg" width="9.778" height="22" viewBox="0 0 9.778 22" fill="none">
  <path d="M 9.778 17.111 L 10.528 17.111 L 9.778 17.111 Z M 0 17.111 L -0.75 17.111 L 0 17.111 Z M 2.444 0 L 2.444 -0.75 L 2.444 0 Z M 7.333 0 L 7.333 -0.75 L 7.333 0 Z M 9.778 17.111 L 9.028 17.111 C 9.028 18.209 8.592 19.262 7.816 20.038 L 8.346 20.568 L 8.876 21.098 C 9.934 20.041 10.528 18.607 10.528 17.111 L 9.778 17.111 Z M 8.346 20.568 L 7.816 20.038 C 7.039 20.814 5.987 21.25 4.889 21.25 L 4.889 22 L 4.889 22.75 C 6.384 22.75 7.819 22.156 8.876 21.098 L 8.346 20.568 Z M 4.889 22 L 4.889 21.25 C 3.791 21.25 2.738 20.814 1.962 20.038 L 1.432 20.568 L 0.902 21.098 C 1.959 22.156 3.393 22.75 4.889 22.75 L 4.889 22 Z M 1.432 20.568 L 1.962 20.038 C 1.186 19.262 0.75 18.209 0.75 17.111 L 0 17.111 L -0.75 17.111 C -0.75 18.607 -0.156 20.041 0.902 21.098 L 1.432 20.568 Z M 0 17.111 L 0.75 17.111 L 0.75 2.444 L 0 2.444 L -0.75 2.444 L -0.75 17.111 L 0 17.111 Z M 0 2.444 L 0.75 2.444 C 0.75 1.995 0.929 1.564 1.246 1.246 L 0.716 0.716 L 0.186 0.186 C -0.413 0.785 -0.75 1.597 -0.75 2.444 L 0 2.444 Z M 0.716 0.716 L 1.246 1.246 C 1.564 0.929 1.995 0.75 2.444 0.75 L 2.444 0 L 2.444 -0.75 C 1.597 -0.75 0.785 -0.413 0.186 0.186 L 0.716 0.716 Z M 2.444 0 L 2.444 0.75 L 7.333 0.75 L 7.333 0 L 7.333 -0.75 L 2.444 -0.75 L 2.444 0 Z M 7.333 0 L 7.333 0.75 C 7.783 0.75 8.214 0.929 8.531 1.246 L 9.062 0.716 L 9.592 0.186 C 8.993 -0.413 8.181 -0.75 7.333 -0.75 L 7.333 0 Z M 9.062 0.716 L 8.531 1.246 C 8.849 1.564 9.028 1.995 9.028 2.444 L 9.778 2.444 L 10.528 2.444 C 10.528 1.597 10.191 0.785 9.592 0.186 L 9.062 0.716 Z M 9.778 2.444 L 9.028 2.444 L 9.028 17.111 L 9.778 17.111 L 10.528 17.111 L 10.528 2.444 L 9.778 2.444 Z" fill="currentColor" fill-rule="nonzero"></path>
</svg>