<svg xmlns="http://www.w3.org/2000/svg" width="11.998" height="24" viewBox="0 0 11.998 24" fill="none">
  <path d="M 11.998 3.61 L 11.248 3.608 L 11.248 3.61 L 11.998 3.61 Z M 4.803 3.76 L 4.99 4.486 C 5.334 4.398 5.569 4.081 5.553 3.726 L 4.803 3.76 Z M 1.773 10.682 L 2.246 11.264 C 2.525 11.037 2.604 10.644 2.433 10.327 L 1.773 10.682 Z M 2.44 18.586 L 3.184 18.682 C 3.223 18.379 3.075 18.083 2.809 17.933 L 2.44 18.586 Z M 11.998 19.206 L 12.748 19.207 L 12.748 19.206 L 11.998 19.206 Z M 11.998 3.61 L 12.748 3.612 C 12.75 3.032 12.636 2.458 12.412 1.923 L 11.72 2.212 L 11.028 2.501 C 11.174 2.851 11.249 3.228 11.248 3.608 L 11.998 3.61 Z M 11.72 2.212 L 12.412 1.923 C 12.189 1.388 11.86 0.903 11.447 0.496 L 10.921 1.032 L 10.396 1.567 C 10.667 1.833 10.882 2.15 11.028 2.501 L 11.72 2.212 Z M 10.921 1.032 L 11.447 0.496 C 11.033 0.09 10.542 -0.229 10.003 -0.443 L 9.727 0.254 L 9.45 0.951 C 9.803 1.091 10.125 1.3 10.396 1.567 L 10.921 1.032 Z M 9.727 0.254 L 10.003 -0.443 C 9.464 -0.657 8.888 -0.761 8.308 -0.749 L 8.324 0.001 L 8.34 0.751 C 8.719 0.743 9.097 0.811 9.45 0.951 L 9.727 0.254 Z M 8.324 0.001 L 8.308 -0.749 C 7.729 -0.737 7.157 -0.609 6.628 -0.373 L 6.933 0.312 L 7.239 0.997 C 7.586 0.842 7.96 0.759 8.34 0.751 L 8.324 0.001 Z M 6.933 0.312 L 6.628 -0.373 C 6.098 -0.137 5.621 0.203 5.225 0.626 L 5.772 1.139 L 6.32 1.652 C 6.579 1.374 6.892 1.152 7.239 0.997 L 6.933 0.312 Z M 5.772 1.139 L 5.225 0.626 C 4.828 1.049 4.521 1.548 4.32 2.091 L 5.023 2.351 L 5.727 2.611 C 5.858 2.255 6.06 1.929 6.32 1.652 L 5.772 1.139 Z M 5.023 2.351 L 4.32 2.091 C 4.119 2.635 4.028 3.214 4.054 3.793 L 4.803 3.76 L 5.553 3.726 C 5.536 3.347 5.595 2.968 5.727 2.611 L 5.023 2.351 Z M 4.803 3.76 L 4.617 3.033 C 3.801 3.243 3.044 3.636 2.403 4.181 L 2.889 4.752 L 3.375 5.324 C 3.843 4.925 4.395 4.639 4.99 4.486 L 4.803 3.76 Z M 2.889 4.752 L 2.403 4.181 C 1.762 4.727 1.253 5.411 0.915 6.182 L 1.602 6.483 L 2.289 6.784 C 2.536 6.221 2.907 5.722 3.375 5.324 L 2.889 4.752 Z M 1.602 6.483 L 0.915 6.182 C 0.578 6.953 0.42 7.791 0.454 8.633 L 1.204 8.602 L 1.953 8.572 C 1.928 7.958 2.043 7.346 2.289 6.784 L 1.602 6.483 Z M 1.204 8.602 L 0.454 8.633 C 0.488 9.474 0.713 10.296 1.113 11.038 L 1.773 10.682 L 2.433 10.327 C 2.142 9.786 1.978 9.186 1.953 8.572 L 1.204 8.602 Z M 1.773 10.682 L 1.3 10.1 C 0.598 10.67 0.047 11.403 -0.307 12.235 L 0.383 12.528 L 1.073 12.822 C 1.331 12.215 1.734 11.68 2.246 11.264 L 1.773 10.682 Z M 0.383 12.528 L -0.307 12.235 C -0.661 13.067 -0.806 13.973 -0.73 14.873 L 0.017 14.81 L 0.764 14.747 C 0.709 14.09 0.815 13.429 1.073 12.822 L 0.383 12.528 Z M 0.017 14.81 L -0.73 14.873 C -0.654 15.774 -0.359 16.643 0.129 17.404 L 0.76 16.999 L 1.391 16.594 C 1.035 16.038 0.82 15.405 0.764 14.747 L 0.017 14.81 Z M 0.76 16.999 L 0.129 17.404 C 0.617 18.165 1.284 18.795 2.071 19.239 L 2.44 18.586 L 2.809 17.933 C 2.234 17.609 1.748 17.149 1.391 16.594 L 0.76 16.999 Z M 2.44 18.586 L 1.696 18.49 C 1.599 19.242 1.657 20.006 1.867 20.735 L 2.587 20.528 L 3.308 20.32 C 3.155 19.789 3.113 19.231 3.184 18.682 L 2.44 18.586 Z M 2.587 20.528 L 1.867 20.735 C 2.076 21.464 2.433 22.142 2.915 22.728 L 3.494 22.251 L 4.073 21.774 C 3.722 21.347 3.461 20.852 3.308 20.32 L 2.587 20.528 Z M 3.494 22.251 L 2.915 22.728 C 3.397 23.313 3.994 23.794 4.669 24.14 L 5.011 23.472 L 5.353 22.805 C 4.861 22.552 4.425 22.202 4.073 21.774 L 3.494 22.251 Z M 5.011 23.472 L 4.669 24.14 C 5.344 24.485 6.083 24.689 6.84 24.738 L 6.889 23.99 L 6.937 23.242 C 6.385 23.206 5.846 23.057 5.353 22.805 L 5.011 23.472 Z M 6.889 23.99 L 6.84 24.738 C 7.597 24.787 8.356 24.681 9.07 24.425 L 8.817 23.719 L 8.564 23.013 C 8.043 23.2 7.489 23.277 6.937 23.242 L 6.889 23.99 Z M 8.817 23.719 L 9.07 24.425 C 9.784 24.17 10.438 23.77 10.992 23.252 L 10.479 22.704 L 9.967 22.157 C 9.562 22.535 9.085 22.826 8.564 23.013 L 8.817 23.719 Z M 10.479 22.704 L 10.992 23.252 C 11.545 22.733 11.987 22.107 12.289 21.411 L 11.601 21.113 L 10.913 20.814 C 10.693 21.322 10.371 21.779 9.967 22.157 L 10.479 22.704 Z M 11.601 21.113 L 12.289 21.411 C 12.591 20.716 12.747 19.965 12.748 19.207 L 11.998 19.206 L 11.248 19.205 C 11.248 19.759 11.134 20.306 10.913 20.814 L 11.601 21.113 Z M 11.998 19.206 L 12.748 19.206 L 12.748 3.61 L 11.998 3.61 L 11.248 3.61 L 11.248 19.206 L 11.998 19.206 Z" fill="currentColor" fill-rule="nonzero"></path>
</svg>