<svg xmlns="http://www.w3.org/2000/svg" width="24" height="12" viewBox="0 0 24 12" fill="none">
  <path d="M 12 12 L 12 12.75 L 12 12 Z M 24 0 L 24.75 0 C 24.75 -0.199 24.671 -0.39 24.53 -0.53 C 24.39 -0.671 24.199 -0.75 24 -0.75 L 24 0 Z M 0 0 L 0 -0.75 C -0.199 -0.75 -0.39 -0.671 -0.53 -0.53 C -0.671 -0.39 -0.75 -0.199 -0.75 0 L 0 0 Z M 12 12 L 12 12.75 C 15.382 12.75 18.625 11.407 21.016 9.016 L 20.485 8.485 L 19.955 7.955 C 17.845 10.065 14.984 11.25 12 11.25 L 12 12 Z M 20.485 8.485 L 21.016 9.016 C 23.407 6.625 24.75 3.382 24.75 0 L 24 0 L 23.25 0 C 23.25 2.984 22.065 5.845 19.955 7.955 L 20.485 8.485 Z M 24 0 L 24 -0.75 L 0 -0.75 L 0 0 L 0 0.75 L 24 0.75 L 24 0 Z M 0 0 L -0.75 0 C -0.75 3.382 0.593 6.625 2.984 9.016 L 3.515 8.485 L 4.045 7.955 C 1.935 5.845 0.75 2.984 0.75 0 L 0 0 Z M 3.515 8.485 L 2.984 9.016 C 5.375 11.407 8.618 12.75 12 12.75 L 12 12 L 12 11.25 C 9.016 11.25 6.155 10.065 4.045 7.955 L 3.515 8.485 Z" fill="currentColor" fill-rule="nonzero"></path>
</svg>