<svg xmlns="http://www.w3.org/2000/svg" width="13.895" height="2.316" viewBox="0 0 13.895 2.316" fill="none">
  <path d="M -0.45 0.558 C -0.781 0.806 -0.849 1.277 -0.6 1.608 C -0.351 1.939 0.119 2.006 0.45 1.758 L 0 1.158 L -0.45 0.558 Z M 14.345 1.758 C 14.676 1.509 14.743 1.039 14.495 0.708 C 14.246 0.377 13.776 0.309 13.445 0.558 L 13.895 1.158 L 14.345 1.758 Z M 0 1.158 L 0.45 1.758 C 1.322 1.104 2.383 0.75 3.474 0.75 L 3.474 0 L 3.474 -0.75 C 2.059 -0.75 0.682 -0.291 -0.45 0.558 L 0 1.158 Z M 3.474 0 L 3.474 0.75 C 4.564 0.75 5.625 1.104 6.497 1.758 L 6.947 1.158 L 7.397 0.558 C 6.265 -0.291 4.889 -0.75 3.474 -0.75 L 3.474 0 Z M 6.947 1.158 L 6.497 1.758 C 7.629 2.607 9.006 3.066 10.421 3.066 L 10.421 2.316 L 10.421 1.566 C 9.331 1.566 8.27 1.212 7.397 0.558 L 6.947 1.158 Z M 10.421 2.316 L 10.421 3.066 C 11.836 3.066 13.213 2.607 14.345 1.758 L 13.895 1.158 L 13.445 0.558 C 12.572 1.212 11.511 1.566 10.421 1.566 L 10.421 2.316 Z" fill="currentColor" fill-rule="nonzero"></path>
</svg>