<svg width="277" height="180" viewBox="0 0 277 180" fill="none" xmlns="http://www.w3.org/2000/svg">
      <path d="M102.502 65.5561C102.502 65.4009 102.605 65.3077 102.75 65.3077H103.05C103.205 65.3077 103.299 65.4112 103.299 65.5561V78.9803C103.299 79.1355 103.195 79.2287 103.05 79.2287H102.75C102.595 79.2287 102.502 79.1252 102.502 78.9803V65.5561Z" fill="#3E4049"></path>
      <path d="M108.546 65.2972H108.815C108.919 65.2972 109.064 65.38 109.146 65.4628L119.051 77.7588V65.5456C119.051 65.3904 119.155 65.2972 119.3 65.2972H119.579C119.693 65.2972 119.828 65.4007 119.828 65.5456V78.9905C119.828 79.1457 119.724 79.2285 119.59 79.2285H119.341C119.238 79.2285 119.093 79.1457 119.01 79.0629L109.105 66.7669V78.9801C109.105 79.1354 109.001 79.2285 108.857 79.2285H108.577C108.422 79.2285 108.329 79.125 108.329 78.9801V65.5249C108.329 65.38 108.411 65.2972 108.546 65.2972Z" fill="#3E4049"></path>
      <path d="M129.047 65.9512C126.905 65.9512 125.28 67.1725 125.28 68.8493C125.28 70.6709 127.226 71.2091 129.296 71.7163C131.542 72.182 133.964 72.9065 133.964 75.4216C133.964 77.7297 131.883 79.365 129.079 79.365C126.563 79.365 124.659 78.0713 124.173 76.26C124.141 76.1461 124.204 76.0116 124.359 75.9702L124.69 75.8563C124.711 75.8563 124.721 75.8563 124.721 75.8563C124.825 75.8563 124.907 75.9184 124.959 76.0219C125.332 77.5124 126.946 78.5888 129.079 78.5888C131.407 78.5888 133.167 77.295 133.167 75.4734C133.167 73.6 131.273 72.979 129.13 72.5236C126.988 72.0164 124.493 71.3644 124.493 68.87C124.493 66.6964 126.398 65.1853 129.027 65.1853C131.356 65.1853 133.146 66.3756 133.612 68.0523C133.643 68.1662 133.581 68.3007 133.426 68.3421L133.074 68.456C132.97 68.4767 132.877 68.4249 132.805 68.2904C132.473 66.9448 130.952 65.9512 129.047 65.9512Z" fill="#3E4049"></path>
      <path d="M136.675 65.2972H148.743C148.888 65.2972 148.992 65.4007 148.992 65.5456V65.8147C148.992 65.97 148.888 66.0631 148.743 66.0631H143.102V78.9698C143.102 79.125 142.999 79.2182 142.854 79.2182H142.575C142.419 79.2182 142.326 79.1147 142.326 78.9698V66.0735H136.685C136.53 66.0735 136.437 65.97 136.437 65.8251V65.556C136.427 65.4214 136.53 65.2972 136.675 65.2972Z" fill="#3E4049"></path>
      <path d="M152.598 65.5561C152.598 65.4009 152.701 65.3077 152.846 65.3077H153.146C153.291 65.3077 153.395 65.4112 153.395 65.5561V78.9803C153.395 79.1355 153.291 79.2287 153.146 79.2287H152.846C152.701 79.2287 152.598 79.1252 152.598 78.9803V65.5561Z" fill="#3E4049"></path>
      <path d="M157.254 65.2972H169.322C169.477 65.2972 169.57 65.4007 169.57 65.5456V65.8147C169.57 65.97 169.467 66.0631 169.322 66.0631H163.681V78.9698C163.681 79.125 163.578 79.2182 163.433 79.2182H163.153C162.998 79.2182 162.905 79.1147 162.905 78.9698V66.0735H157.254C157.109 66.0735 157.005 65.97 157.005 65.8251V65.556C157.005 65.4214 157.109 65.2972 157.254 65.2972Z" fill="#3E4049"></path>
      <path d="M172.632 73.6639V65.5701C172.632 65.4149 172.736 65.3217 172.881 65.3217H173.181C173.326 65.3217 173.429 65.4252 173.429 65.5701V73.6639C173.429 76.4585 175.52 78.5906 178.346 78.5906C181.171 78.5906 183.272 76.4585 183.272 73.6639V65.5701C183.272 65.4149 183.386 65.3217 183.521 65.3217H183.821C183.976 65.3217 184.069 65.4252 184.069 65.5701V73.6639C184.069 76.8932 181.627 79.3772 178.346 79.3772C175.075 79.3669 172.632 76.9035 172.632 73.6639Z" fill="#3E4049"></path>
      <path d="M187.407 65.2972H199.475C199.63 65.2972 199.724 65.4007 199.724 65.5456V65.8147C199.724 65.97 199.62 66.0631 199.475 66.0631H193.834V78.9698C193.834 79.125 193.731 79.2182 193.586 79.2182H193.307C193.162 79.2182 193.058 79.1147 193.058 78.9698V66.0735H187.417C187.272 66.0735 187.169 65.97 187.169 65.8251V65.556C187.148 65.4214 187.252 65.2972 187.407 65.2972Z" fill="#3E4049"></path>
      <path d="M203.549 65.2972H212.792C212.947 65.2972 213.04 65.4007 213.04 65.5456V65.8147C213.04 65.97 212.937 66.0631 212.792 66.0631H204.108V71.7764H211.87C212.015 71.7764 212.119 71.8799 212.119 72.0248V72.3146C212.119 72.4699 212.015 72.563 211.87 72.563H204.108V78.4626H212.895C213.04 78.4626 213.144 78.5661 213.144 78.711V78.9801C213.144 79.1354 213.04 79.2285 212.895 79.2285H203.559C203.414 79.2285 203.311 79.125 203.311 78.9801V65.5663C203.3 65.4214 203.404 65.2972 203.549 65.2972Z" fill="#3E4049"></path>
      <path d="M102.502 58.7254V45.3012C102.502 45.146 102.605 45.0528 102.75 45.0528H108.929C110.989 45.0528 112.531 46.5432 112.531 48.4891C112.531 49.8657 111.765 51.0042 110.627 51.5527C112.22 52.0599 113.318 53.4261 113.318 55.1442C113.318 57.3074 111.589 58.9634 109.312 58.9634H102.75C102.605 58.9738 102.502 58.8599 102.502 58.7254ZM103.309 45.8187V51.2629H108.929C110.523 51.2629 111.724 50.0934 111.724 48.5512C111.724 47.009 110.502 45.8394 108.929 45.8394H103.309V45.8187ZM103.309 52.0392V58.2079H109.322C111.134 58.2079 112.469 56.8831 112.469 55.1235C112.469 53.364 111.134 52.0599 109.322 52.0599H103.309V52.0392Z" fill="#3E4049"></path>
      <path d="M117.253 53.4196V45.3257C117.253 45.1705 117.357 45.0773 117.502 45.0773H117.802C117.957 45.0773 118.05 45.1808 118.05 45.3257V53.4196C118.05 56.2141 120.141 58.3462 122.967 58.3462C125.792 58.3462 127.883 56.2141 127.883 53.4196V45.3257C127.883 45.1705 127.997 45.0773 128.131 45.0773H128.432C128.587 45.0773 128.68 45.1808 128.68 45.3257V53.4196C128.68 56.6592 126.237 59.1328 122.956 59.1328C119.696 59.1121 117.253 56.6488 117.253 53.4196Z" fill="#3E4049"></path>
      <path d="M133.523 45.3012C133.523 45.146 133.627 45.0528 133.772 45.0528H134.072C134.227 45.0528 134.32 45.1563 134.32 45.3012V58.7254C134.32 58.8806 134.217 58.9738 134.072 58.9738H133.772C133.616 58.9738 133.523 58.8703 133.523 58.7254V45.3012Z" fill="#3E4049"></path>
      <path d="M139.577 45.0528H139.877C140.032 45.0528 140.125 45.1563 140.125 45.3012V58.2079H147.971C148.115 58.2079 148.219 58.3114 148.219 58.4563V58.7254C148.219 58.8806 148.115 58.9738 147.971 58.9738H139.566C139.411 58.9738 139.318 58.8703 139.318 58.7254V45.3012C139.349 45.1667 139.442 45.0528 139.577 45.0528Z" fill="#3E4049"></path>
      <path d="M151.992 45.3012C151.992 45.146 152.095 45.0528 152.24 45.0528H157.332C161.369 45.0528 164.412 48.0854 164.412 52.0081C164.412 55.9308 161.369 58.9841 157.332 58.9841H152.24C152.095 58.9841 151.992 58.8806 151.992 58.7357V45.3012ZM152.799 45.8187V58.2079H157.332C160.893 58.2079 163.594 55.5065 163.594 52.0081C163.594 48.5408 160.903 45.8291 157.332 45.8291H152.799V45.8187Z" fill="#3E4049"></path>
      <path d="M168.723 45.3012C168.723 45.146 168.827 45.0528 168.972 45.0528H169.272C169.417 45.0528 169.52 45.1563 169.52 45.3012V58.7254C169.52 58.8806 169.417 58.9738 169.272 58.9738H168.972C168.827 58.9738 168.723 58.8703 168.723 58.7254V45.3012Z" fill="#3E4049"></path>
      <path d="M174.744 45.0528H175.013C175.117 45.0528 175.262 45.1356 175.344 45.2184L185.25 57.5144V45.3012C185.25 45.146 185.353 45.0528 185.498 45.0528H185.788C185.902 45.0528 186.036 45.1563 186.036 45.3012V58.7461C186.036 58.9013 185.933 58.9841 185.798 58.9841H185.55C185.446 58.9841 185.301 58.9013 185.218 58.8185L175.313 46.5018V58.715C175.313 58.8703 175.21 58.9634 175.065 58.9634H174.785C174.641 58.9634 174.537 58.8599 174.537 58.715V45.2598C174.547 45.1356 174.63 45.0528 174.744 45.0528Z" fill="#3E4049"></path>
      <path d="M197.363 59.1101C193.398 59.1101 190.345 56.0465 190.345 51.9996C190.345 47.9526 193.44 44.9304 197.559 44.9304C200.136 44.9304 202.3 46.1 203.531 47.994C203.614 48.0975 203.604 48.2424 203.449 48.2942L203.148 48.408C203.117 48.4287 203.086 48.4287 203.045 48.4287C202.941 48.4287 202.859 48.3666 202.796 48.2735C201.658 46.6692 199.764 45.6549 197.57 45.6549C193.957 45.6549 191.194 48.3666 191.194 51.9582C191.194 55.56 193.885 58.2925 197.373 58.2925C200.685 58.2925 203.293 55.8912 203.552 52.6309H196.907C196.752 52.6309 196.659 52.5274 196.659 52.3825V52.1134C196.659 51.9582 196.762 51.865 196.907 51.865H204.152C204.297 51.865 204.401 51.9685 204.401 52.1134C204.204 56.3466 201.192 59.1101 197.363 59.1101Z" fill="#3E4049"></path>
      <path d="M104.955 20.1505C105.555 20.1505 106.155 20.5645 106.331 21.1648L109.612 31.7013L112.81 21.0923C112.966 20.5438 113.514 20.1505 114.063 20.1505H115.16C115.729 20.1505 116.278 20.5438 116.433 21.0923L119.662 31.7013L122.912 21.1751C123.067 20.5748 123.668 20.1608 124.289 20.1608H125.955C126.555 20.1608 126.866 20.6059 126.659 21.1751L121.432 36.8143C121.246 37.3318 120.708 37.7561 120.128 37.7561H119.031C118.482 37.7561 117.934 37.3628 117.778 36.8143L114.632 26.6711L111.454 36.8143C111.299 37.3628 110.751 37.7561 110.181 37.7561H109.084C108.536 37.7561 107.987 37.3421 107.811 36.8143L102.553 21.1751C102.346 20.6059 102.657 20.1608 103.278 20.1608H104.955V20.1505Z" fill="#3E4049"></path>
      <path d="M130.084 20.1505H140.982C141.603 20.1505 142.049 20.5955 142.049 21.2165V22.5206C142.049 23.1209 141.603 23.5867 140.982 23.5867H132.733V27.1575H139.575C140.175 27.1575 140.641 27.6026 140.641 28.2029V29.507C140.641 30.128 140.175 30.5731 139.575 30.5731H132.733V34.3302H141.107C141.728 34.3302 142.173 34.7752 142.173 35.3755V36.6796C142.173 37.2799 141.728 37.7457 141.107 37.7457H130.084C129.483 37.7457 129.018 37.2799 129.018 36.6796V21.2269C129.018 20.5955 129.483 20.1505 130.084 20.1505Z" fill="#3E4049"></path>
      <path d="M145.817 20.1505H147.4C148 20.1505 148.466 20.5955 148.466 21.2165V34.3302H156.032C156.633 34.3302 157.098 34.7752 157.098 35.3755V36.6796C157.098 37.2799 156.633 37.7457 156.032 37.7457H145.817C145.216 37.7457 144.75 37.2799 144.75 36.6796V21.2269C144.75 20.5955 145.216 20.1505 145.817 20.1505Z" fill="#3E4049"></path>
      <path d="M160.557 20.1505H162.14C162.741 20.1505 163.206 20.5955 163.206 21.2165V34.3302H170.772C171.373 34.3302 171.839 34.7752 171.839 35.3755V36.6796C171.839 37.2799 171.373 37.7457 170.772 37.7457H160.557C159.957 37.7457 159.491 37.2799 159.491 36.6796V21.2269C159.491 20.5955 159.967 20.1505 160.557 20.1505Z" fill="#3E4049"></path>
      <path d="M102.502 0.381338C102.502 0.226086 102.605 0.132935 102.75 0.132935H103.05C103.206 0.132935 103.299 0.236436 103.299 0.381338V13.8055C103.299 13.9607 103.195 14.0539 103.05 14.0539H102.75C102.595 14.0539 102.502 13.9504 102.502 13.8055V0.381338Z" fill="#3E4049"></path>
      <path d="M108.546 0.132935H108.815C108.919 0.132935 109.064 0.215736 109.147 0.298537L119.052 12.5945V0.381338C119.052 0.226086 119.155 0.132935 119.3 0.132935H119.58C119.693 0.132935 119.828 0.236436 119.828 0.381338V13.8262C119.828 13.9814 119.724 14.0642 119.59 14.0642H119.341C119.238 14.0642 119.093 13.9814 119.01 13.8986L109.105 1.58196V13.7951C109.105 13.9504 109.002 14.0435 108.857 14.0435H108.577C108.422 14.0435 108.329 13.94 108.329 13.7951V0.350288C108.329 0.215736 108.412 0.132935 108.546 0.132935Z" fill="#3E4049"></path>
      <path d="M123.68 0.132935H135.748C135.903 0.132935 135.996 0.236436 135.996 0.381338V0.650442C135.996 0.805695 135.893 0.898846 135.748 0.898846H130.107V13.8055C130.107 13.9607 130.004 14.0539 129.859 14.0539H129.579C129.424 14.0539 129.331 13.9504 129.331 13.8055V0.898846H123.69C123.535 0.898846 123.442 0.795344 123.442 0.650442V0.381338C123.431 0.246786 123.524 0.132935 123.68 0.132935Z" fill="#3E4049"></path>
      <path d="M139.82 0.132935H149.063C149.218 0.132935 149.311 0.236436 149.311 0.381338V0.650442C149.311 0.805695 149.208 0.898846 149.063 0.898846H140.379V6.61213H148.141C148.286 6.61213 148.39 6.71563 148.39 6.86054V7.15034C148.39 7.30559 148.286 7.39874 148.141 7.39874H140.379V13.2983H149.166C149.321 13.2983 149.415 13.4018 149.415 13.5467V13.8158C149.415 13.9711 149.311 14.0642 149.166 14.0642H139.83C139.675 14.0642 139.582 13.9607 139.582 13.8158V0.381338C139.571 0.246786 139.696 0.132935 139.82 0.132935Z" fill="#3E4049"></path>
      <path d="M153.572 0.132935H159.451C161.863 0.132935 163.653 1.89246 163.653 4.1902C163.653 6.18778 162.329 7.761 160.455 8.16466L164.005 13.8262C164.067 13.9297 164.026 14.0228 163.891 14.0228H163.477C163.333 14.0228 163.146 13.9193 163.094 13.8262L159.596 8.25781C159.565 8.25781 159.513 8.25781 159.482 8.25781H154.173V13.7848C154.173 13.94 154.069 14.0332 153.924 14.0332H153.624C153.469 14.0332 153.376 13.9297 153.376 13.7848V0.381338C153.324 0.246786 153.427 0.132935 153.572 0.132935ZM154.131 0.898846V7.50225H159.441C161.387 7.50225 162.825 6.09463 162.825 4.20055C162.825 2.32717 161.387 0.898846 159.441 0.898846H154.131Z" fill="#3E4049"></path>
      <path d="M168.079 0.132935H168.348C168.451 0.132935 168.596 0.215736 168.679 0.298537L178.584 12.5945V0.381338C178.584 0.226086 178.687 0.132935 178.832 0.132935H179.122C179.236 0.132935 179.371 0.236436 179.371 0.381338V13.8262C179.371 13.9814 179.267 14.0642 179.133 14.0642H178.884C178.781 14.0642 178.636 13.9814 178.553 13.8986L168.648 1.58196V13.7951C168.648 13.9504 168.544 14.0435 168.399 14.0435H168.12C167.975 14.0435 167.872 13.94 167.872 13.7951V0.350288C167.861 0.215736 167.944 0.132935 168.079 0.132935Z" fill="#3E4049"></path>
      <path d="M189.11 0.30523C189.141 0.201728 189.276 0.118927 189.389 0.118927H189.576C189.69 0.118927 189.824 0.201728 189.855 0.30523L195.931 13.8122C196.014 13.9674 195.931 14.0502 195.775 14.0502H195.424C195.279 14.0502 195.144 13.9674 195.072 13.8122L193.519 10.3449H185.436L183.883 13.8122C183.821 13.9674 183.686 14.0502 183.531 14.0502H183.179C183.024 14.0502 182.941 13.9674 183.024 13.8122L189.11 0.30523ZM185.788 9.58932H193.198L189.503 1.38165L185.788 9.58932Z" fill="#3E4049"></path>
      <path d="M196.282 0.132935H208.35C208.505 0.132935 208.598 0.236436 208.598 0.381338V0.650442C208.598 0.805695 208.495 0.898846 208.35 0.898846H202.709V13.8055C202.709 13.9607 202.606 14.0539 202.461 14.0539H202.181C202.036 14.0539 201.933 13.9504 201.933 13.8055V0.898846H196.292C196.147 0.898846 196.044 0.795344 196.044 0.650442V0.381338C196.033 0.246786 196.137 0.132935 196.282 0.132935Z" fill="#3E4049"></path>
      <path d="M212.212 0.381338C212.212 0.226086 212.316 0.132935 212.461 0.132935H212.761C212.916 0.132935 213.009 0.236436 213.009 0.381338V13.8055C213.009 13.9607 212.906 14.0539 212.761 14.0539H212.461C212.305 14.0539 212.212 13.9504 212.212 13.8055V0.381338Z" fill="#3E4049"></path>
      <path d="M224.395 0C228.431 0 231.474 3.0326 231.474 7.06916C231.474 11.1057 228.431 14.1797 224.395 14.1797C220.358 14.1797 217.315 11.1161 217.315 7.06916C217.315 3.0326 220.358 0 224.395 0ZM224.395 13.4138C227.976 13.4138 230.657 10.7021 230.657 7.07951C230.657 3.48801 227.976 0.776263 224.395 0.776263C220.834 0.776263 218.133 3.48801 218.133 7.07951C218.133 10.6814 220.824 13.4138 224.395 13.4138Z" fill="#3E4049"></path>
      <path d="M236.006 0.132935H236.275C236.379 0.132935 236.524 0.215736 236.606 0.298537L246.511 12.5945V0.381338C246.511 0.226086 246.615 0.132935 246.76 0.132935H247.05C247.164 0.132935 247.298 0.236436 247.298 0.381338V13.8262C247.298 13.9814 247.195 14.0642 247.06 14.0642H246.812C246.708 14.0642 246.563 13.9814 246.48 13.8986L236.565 1.58196V13.7951C236.565 13.9504 236.461 14.0435 236.317 14.0435H236.037C235.882 14.0435 235.789 13.94 235.789 13.7951V0.350288C235.789 0.215736 235.871 0.132935 236.006 0.132935Z" fill="#3E4049"></path>
      <path d="M257.019 0.30523C257.05 0.201728 257.185 0.118927 257.299 0.118927H257.485C257.599 0.118927 257.734 0.201728 257.765 0.30523L263.84 13.8122C263.923 13.9674 263.84 14.0502 263.685 14.0502H263.333C263.188 14.0502 263.054 13.9674 262.981 13.8122L261.429 10.3449H253.345L251.792 13.8122C251.73 13.9674 251.596 14.0502 251.441 14.0502H251.089C250.933 14.0502 250.851 13.9674 250.933 13.8122L257.019 0.30523ZM253.707 9.58932H261.118L257.423 1.38165L253.707 9.58932Z" fill="#3E4049"></path>
      <path d="M267.762 0.132935H268.062C268.217 0.132935 268.31 0.236436 268.31 0.381338V13.288H276.156C276.3 13.288 276.404 13.3915 276.404 13.5364V13.8055C276.404 13.9607 276.3 14.0539 276.156 14.0539H267.751C267.606 14.0539 267.503 13.9504 267.503 13.8055V0.381338C267.524 0.246786 267.627 0.132935 267.762 0.132935Z" fill="#3E4049"></path>
      <path d="M91.5061 180C83.476 180 75.5042 178.961 67.8125 176.907C60.0976 174.841 52.6627 171.76 45.7414 167.756C38.8317 163.753 32.459 158.863 26.7982 153.202C21.1374 147.541 16.247 141.168 12.2436 134.259C8.22854 127.326 5.15889 119.903 3.093 112.188C1.03878 104.496 0 96.5244 0 88.4943C0 80.4642 1.03878 72.4924 3.093 64.8008C5.15889 57.0859 8.24022 49.651 12.2436 42.7297C16.247 35.8201 21.1374 29.4474 26.7982 23.7866C32.459 18.1259 38.8317 13.2355 45.7414 9.2321C52.6744 5.21705 60.0976 2.14741 67.8125 0.081524C69.0614 -0.256954 70.3336 0.490031 70.6721 1.7389C71.0106 2.98776 70.2636 4.25997 69.0147 4.59845C61.7082 6.54762 54.6585 9.4772 48.0874 13.2822C41.5279 17.0754 35.482 21.7208 30.113 27.1014C24.744 32.4704 20.0987 38.5163 16.2937 45.0757C12.4887 51.6469 9.57079 58.6966 7.60994 66.0147C5.66077 73.3095 4.66868 80.8727 4.66868 88.4943C4.66868 96.1159 5.66077 103.679 7.60994 110.974C9.57079 118.292 12.4887 125.342 16.2937 131.913C20.087 138.472 24.7323 144.518 30.113 149.887C35.482 155.256 41.5279 159.901 48.0874 163.706C54.6585 167.511 61.7083 170.429 69.0264 172.39C76.3212 174.339 83.8845 175.331 91.5061 175.331C99.1277 175.331 106.691 174.339 113.986 172.39C121.304 170.429 128.354 167.511 134.925 163.706C141.484 159.913 147.53 155.268 152.899 149.887C158.268 144.518 162.914 138.461 166.718 131.913C170.523 125.342 173.441 118.292 175.402 110.974C175.741 109.725 177.013 108.99 178.262 109.316C179.511 109.655 180.246 110.927 179.919 112.176C177.853 119.891 174.772 127.326 170.769 134.247C166.765 141.157 161.875 147.529 156.214 153.19C150.553 158.851 144.18 163.741 137.271 167.745C130.338 171.76 122.915 174.829 115.2 176.895C107.508 178.961 99.5362 180 91.5061 180Z" fill="#DEDEE5"></path>
      <path d="M11.3219 90.8207C10.038 90.8207 8.98758 89.7703 8.98758 88.4864C8.98758 81.25 9.92131 74.0602 11.7771 67.1273C13.6329 60.171 16.4108 53.4714 20.029 47.2154C23.6356 40.9828 28.0475 35.2403 33.148 30.1281C38.2485 25.0276 44.0027 20.6041 50.2353 17.0092C56.4797 13.391 63.1793 10.6131 70.1473 8.75736C77.0802 6.90157 84.27 5.96783 91.5065 5.96783C92.7903 5.96783 93.8408 7.01828 93.8408 8.30216C93.8408 9.58605 92.7903 10.6365 91.5065 10.6365C84.6668 10.6365 77.8856 11.5235 71.3494 13.2743C64.7899 15.025 58.4756 17.6512 52.5697 21.0593C46.6872 24.4557 41.2715 28.6225 36.4511 33.4429C31.6307 38.2633 27.4639 43.6789 24.0674 49.5614C20.6593 55.4556 18.0448 61.77 16.2941 68.3294C14.5433 74.8656 13.6563 81.6468 13.6563 88.4864C13.6563 89.7703 12.6058 90.8207 11.3219 90.8207Z" fill="#DEDEE5"></path>
      <path d="M91.5046 171.019C84.2682 171.019 77.0784 170.085 70.1454 168.229C63.1891 166.374 56.4895 163.596 50.2335 159.978C44.0008 156.371 38.2584 151.959 33.1462 146.859C28.0456 141.758 23.6221 136.004 20.0272 129.771C19.3852 128.651 19.7587 127.227 20.8792 126.585C21.9997 125.943 23.4236 126.317 24.0656 127.437C27.462 133.32 31.6288 138.735 36.4492 143.556C41.2697 148.376 46.6853 152.543 52.5679 155.939C58.4621 159.347 64.7764 161.973 71.3476 163.724C77.8838 165.475 84.665 166.362 91.5046 166.362C98.3442 166.362 105.126 165.475 111.662 163.724C118.221 161.973 124.536 159.347 130.441 155.939C136.324 152.543 141.74 148.376 146.56 143.556C151.38 138.735 155.547 133.32 158.944 127.437C162.352 121.543 164.978 115.228 166.729 108.657C168.479 102.121 169.367 95.34 169.367 88.5004C169.367 87.2165 170.417 86.166 171.701 86.166C172.985 86.166 174.035 87.2165 174.035 88.5004C174.035 95.7368 173.101 102.927 171.246 109.859C169.39 116.816 166.612 123.515 162.994 129.771C159.387 136.004 154.975 141.746 149.875 146.859C144.774 151.971 139.02 156.383 132.787 159.978C126.543 163.596 119.844 166.374 112.876 168.229C105.931 170.085 98.7411 171.019 91.5046 171.019Z" fill="#DEDEE5"></path>
      <path d="M91.5051 162.026C85.0507 162.026 78.6429 161.185 72.4686 159.54C66.2709 157.882 60.295 155.408 54.7276 152.187C49.1719 148.977 44.048 145.043 39.5077 140.492C34.9558 135.94 31.0224 130.827 27.8127 125.272C24.5913 119.704 22.1169 113.74 20.4595 107.531C18.8138 101.356 17.9734 94.9488 17.9734 88.4943C17.9734 82.0399 18.8138 75.6322 20.4595 69.4579C22.1169 63.2602 24.5913 57.2843 27.8127 51.717C28.4546 50.5965 29.8902 50.223 30.9991 50.8649C32.1195 51.5069 32.493 52.9425 31.8511 54.0513C28.8398 59.2685 26.5171 64.8476 24.9648 70.6601C23.4241 76.4492 22.6305 82.4484 22.6305 88.4943C22.6305 94.5402 23.4125 100.539 24.9648 106.329C26.5171 112.129 28.8281 117.72 31.8511 122.937C34.8624 128.143 38.5506 132.94 42.8108 137.2C47.071 141.46 51.868 145.149 57.0736 148.16C62.2909 151.171 67.8699 153.494 73.6824 155.046C79.4716 156.587 85.4592 157.38 91.5168 157.38C97.5744 157.38 103.562 156.598 109.351 155.046C115.152 153.494 120.743 151.183 125.96 148.16C131.166 145.149 135.963 141.46 140.223 137.2C141.133 136.29 142.615 136.29 143.526 137.2C144.436 138.111 144.436 139.593 143.526 140.503C138.974 145.055 133.862 148.989 128.306 152.198C122.739 155.42 116.763 157.894 110.565 159.551C104.367 161.185 97.9596 162.026 91.5051 162.026Z" fill="#DEDEE5"></path>
      <path d="M91.5046 153.037C85.8438 153.037 80.2181 152.301 74.8024 150.854C69.3634 149.395 64.1228 147.224 59.2324 144.4C54.3536 141.575 49.86 138.12 45.8683 134.129C41.8766 130.137 38.4217 125.643 35.6089 120.765C32.7843 115.874 30.6134 110.634 29.1544 105.195C27.6955 99.7789 26.9601 94.1532 26.9601 88.4924C26.9601 82.8317 27.6955 77.206 29.1428 71.7903C30.6017 66.3513 32.7726 61.1107 35.5972 56.2203C38.4217 51.3416 41.8766 46.848 45.8566 42.8563C46.767 41.9459 48.2493 41.9459 49.1597 42.8563C50.0701 43.7667 50.0701 45.249 49.1597 46.1594C45.4598 49.8593 42.2501 54.0377 39.6356 58.5547C37.0095 63.0833 35.0019 67.9503 33.648 72.9925C32.3058 78.023 31.6288 83.2402 31.6288 88.4924C31.6288 93.7447 32.3058 98.9619 33.6597 103.992C35.0136 109.035 37.0211 113.902 39.6473 118.43C42.2617 122.947 45.4714 127.126 49.1714 130.826C52.8713 134.525 57.0498 137.735 61.5667 140.35C66.0953 142.976 70.9624 144.983 76.0046 146.337C81.0351 147.679 86.2523 148.368 91.5046 148.368C96.7569 148.368 101.974 147.691 107.005 146.337C112.047 144.983 116.914 142.976 121.442 140.35C125.959 137.735 130.138 134.525 133.838 130.826C137.538 127.126 140.747 122.947 143.362 118.43C144.004 117.31 145.439 116.936 146.548 117.578C147.669 118.22 148.042 119.656 147.4 120.765C144.576 125.643 141.121 130.137 137.141 134.129C133.149 138.12 128.656 141.575 123.777 144.388C118.886 147.213 113.646 149.383 108.207 150.842C102.791 152.301 97.1654 153.037 91.5046 153.037Z" fill="#DEDEE5"></path>
    </svg>