<svg width="180" height="180" viewBox="0 0 180 180" fill="none" xmlns="http://www.w3.org/2000/svg">
      <path d="M90 180C139.706 180 180 139.706 180 90C180 40.2944 139.706 0 90 0C40.2944 0 0 40.2944 0 90C0 139.706 40.2944 180 90 180Z" fill="#72ABD9"></path>
      <path d="M8.93994 89.9851C8.93994 89.1153 9.64509 88.4101 10.5149 88.4101C11.3848 88.4101 12.0899 89.1153 12.0899 89.9851C12.0899 96.9573 13.0018 103.721 14.7215 110.159L14.8056 110.47C16.5824 117.011 19.1975 123.198 22.5126 128.945L22.6737 129.222C26.0696 135.026 30.1902 140.358 34.9087 145.076C39.7017 149.869 45.1273 154.045 51.0384 157.472L51.3117 157.629C57.0585 160.921 63.2722 163.513 69.8263 165.263H69.8265L70.1284 165.343C76.4758 167.011 83.1367 167.895 90 167.895C96.9721 167.895 103.736 166.983 110.174 165.263L110.485 165.179C117.027 163.402 123.214 160.787 128.963 157.471C134.873 154.045 140.299 149.869 145.091 145.076C149.885 140.283 154.061 134.857 157.487 128.945C160.854 123.123 163.5 116.816 165.278 110.159L165.358 109.857C167.026 103.509 167.91 96.8484 167.91 89.9851C167.91 83.013 166.998 76.2496 165.278 69.8116V69.8115C163.5 63.1553 160.855 56.8638 157.487 51.0248L157.326 50.7481C153.93 44.9439 149.81 39.6123 145.091 34.8938C140.298 30.1004 134.872 25.9241 128.96 22.4977V22.4976C123.229 19.1833 117.028 16.5679 110.485 14.7908L110.174 14.7067C103.836 13.0138 97.1977 12.1038 90.3272 12.0758L90 12.0751L89.9188 12.073C89.0867 12.0308 88.425 11.3427 88.425 10.5001C88.425 9.63023 89.1301 8.92508 90 8.92508L90.3403 8.92581C97.4823 8.95496 104.389 9.90122 110.986 11.6635L111.311 11.7509C118.015 13.5719 124.371 16.2375 130.254 19.608L130.538 19.7717L130.54 19.7724L130.828 19.94C136.864 23.4719 142.41 27.7577 147.319 32.6664C152.227 37.5751 156.513 43.1207 160.045 49.1575L160.213 49.4453L160.213 49.4468L160.214 49.4481C163.716 55.5183 166.47 62.0659 168.322 68.9986L168.405 69.313C170.141 75.9205 171.06 82.8505 171.06 89.9851C171.06 97.1197 170.141 104.05 168.405 110.657L168.322 110.972C166.47 117.903 163.716 124.466 160.213 130.524L160.213 130.525C156.649 136.673 152.305 142.317 147.319 147.304C142.332 152.29 136.688 156.634 130.54 160.198L130.538 160.199L130.537 160.199C124.562 163.646 118.124 166.369 111.311 168.219L110.986 168.307C104.284 170.097 97.2478 171.045 90 171.045C82.8654 171.045 75.9354 170.126 69.3278 168.39L69.0135 168.307C62.0817 166.455 55.5185 163.701 49.4615 160.198L49.4602 160.198C43.3117 156.634 37.6679 152.29 32.6812 147.304C27.6946 142.317 23.3509 136.673 19.7873 130.525L19.7865 130.524L19.7856 130.522C16.3389 124.547 13.6164 118.109 11.7658 111.296L11.6783 110.972C9.88807 104.27 8.93995 97.2329 8.93994 89.9851Z" fill="white"></path>
      <path d="M71.3718 159.488C72.2121 159.713 72.7113 160.576 72.4867 161.417C72.262 162.257 71.3987 162.756 70.5584 162.532L71.3718 159.488ZM14.925 90.0001C14.925 83.2757 15.8135 76.7642 17.4682 70.5593C17.6923 69.7188 18.5554 69.2191 19.3959 69.4432C20.2363 69.6673 20.7359 70.5303 20.5118 71.3708C18.9265 77.3158 18.075 83.5546 18.075 90.0001C18.0751 96.4453 18.9263 102.684 20.5115 108.628C22.1551 114.777 24.5914 120.589 27.7039 125.977C30.8603 131.424 34.7063 136.429 39.1388 140.861C43.5578 145.28 48.5635 149.141 54.0229 152.296L54.2757 152.442C59.5927 155.485 65.3192 157.871 71.3718 159.488L70.5584 162.532C64.137 160.815 58.069 158.271 52.4472 155.024L52.4469 155.024C46.7464 151.729 41.5222 147.7 36.9113 143.089C32.2843 138.462 28.2707 133.238 24.9774 127.555L24.9768 127.554L24.9762 127.553C21.7795 122.019 19.2645 116.053 17.5495 109.743L17.4685 109.442L17.4682 109.441C15.8135 103.236 14.9251 96.7246 14.925 90.0001Z" fill="white"></path>
      <path d="M90.0001 14.925C96.6195 14.9251 103.032 15.7861 109.15 17.3913L109.441 17.4682L109.442 17.4685L109.743 17.5495C115.953 19.2373 121.829 21.6998 127.289 24.8245L127.553 24.9762L127.553 24.9764L127.82 25.1313C133.417 28.3971 138.55 32.3725 143.089 36.9113C147.643 41.4661 151.604 46.5992 154.868 52.1792L155.023 52.4453L155.062 52.5165C155.442 53.2576 155.179 54.1752 154.45 54.5977C153.721 55.0202 152.793 54.7927 152.34 54.0938L152.297 54.0248L152.149 53.7698C149.02 48.4214 145.225 43.5025 140.861 39.1388C136.442 34.7198 131.437 30.8591 125.977 27.7038V27.7039C120.589 24.5914 114.777 22.1552 108.628 20.5117V20.5115C102.684 18.9263 96.4453 18.0751 90.0001 18.075C83.5546 18.075 77.3158 18.9265 71.3708 20.5118C70.5303 20.7359 69.6673 20.2363 69.4432 19.3959C69.2191 18.5554 69.7188 17.6923 70.5593 17.4682C76.7642 15.8135 83.2757 14.925 90.0001 14.925Z" fill="white"></path>
      <path d="M155.925 90.0001C155.925 84.095 155.149 78.3821 153.699 72.933L153.628 72.6697C152.12 67.1409 149.919 61.8984 147.107 57.0392L146.833 56.5706C144.077 51.8978 140.769 47.6014 136.995 43.7658L136.616 43.3838L136.561 43.325C136.002 42.7068 136.02 41.7522 136.616 41.1563C137.212 40.5605 138.167 40.5419 138.785 41.1005L138.844 41.1563L139.043 41.356C143.144 45.4914 146.726 50.1436 149.69 55.2152L149.833 55.461L149.833 55.4613L149.973 55.704C152.853 60.7285 155.112 66.1402 156.667 71.841L156.741 72.117L156.742 72.1184L156.742 72.1201C158.262 77.8301 159.075 83.8162 159.075 90.0001C159.075 96.184 158.262 102.17 156.742 107.88L156.742 107.882C155.161 113.792 152.827 119.381 149.832 124.541L149.832 124.541C146.794 129.772 143.096 134.591 138.844 138.844C134.592 143.095 129.788 146.794 124.539 149.833L124.539 149.833C119.365 152.827 113.777 155.16 107.883 156.741L107.882 156.742L107.88 156.742C102.17 158.262 96.1839 159.075 90 159.075C83.8161 159.075 77.83 158.262 72.12 156.742L72.1179 156.742C66.3007 155.185 60.7942 152.9 55.7016 149.972L55.4595 149.832L55.3905 149.79C54.6918 149.336 54.4649 148.408 54.8879 147.679C55.3108 146.951 56.2285 146.688 56.9694 147.069L57.0406 147.108L57.5031 147.374C62.2941 150.102 67.4679 152.237 72.9321 153.699H72.932C78.3814 155.149 84.0946 155.925 90 155.925C95.905 155.925 101.618 155.149 107.067 153.699L107.33 153.628C112.859 152.12 118.102 149.919 122.961 147.107C127.972 144.206 132.558 140.675 136.616 136.616C140.674 132.559 144.206 127.958 147.108 122.959C149.963 118.039 152.19 112.708 153.699 107.068C155.149 101.619 155.925 95.9054 155.925 90.0001Z" fill="white"></path>
      <path d="M43.5726 69.3007C44.4426 69.3007 45.3126 69.9007 45.5676 70.7707L50.3226 86.0257L54.9576 70.6507C55.1826 69.8557 55.9776 69.2857 56.7726 69.2857H58.3626C59.1876 69.2857 59.9826 69.8557 60.2076 70.6507L64.8876 86.0257L69.5976 70.7707C69.8226 69.9007 70.6926 69.3007 71.5926 69.3007H74.0076C74.8776 69.3007 75.3276 69.9457 75.0276 70.7707L67.4526 93.4357C67.1826 94.1857 66.4026 94.8007 65.5626 94.8007H63.9726C63.1776 94.8007 62.3826 94.2307 62.1576 93.4357L57.5976 78.7357L52.9926 93.4357C52.7676 94.2307 51.9726 94.8007 51.1476 94.8007H49.5576C48.7626 94.8007 47.9676 94.2007 47.7126 93.4357L40.0926 70.7707C39.7926 69.9457 40.2426 69.3007 41.1426 69.3007H43.5576H43.5726Z" fill="white"></path>
      <path d="M79.9925 69.3007H95.7875C96.6875 69.3007 97.3325 69.9457 97.3325 70.8457V72.7357C97.3325 73.6057 96.6875 74.2807 95.7875 74.2807H83.8325V79.4557H93.7475C94.6175 79.4557 95.2925 80.1007 95.2925 80.9707V82.8607C95.2925 83.7607 94.6175 84.4057 93.7475 84.4057H83.8325V89.8507H95.9675C96.8675 89.8507 97.5125 90.4957 97.5125 91.3657V93.2557C97.5125 94.1257 96.8675 94.8007 95.9675 94.8007H79.9925C79.1225 94.8007 78.4475 94.1257 78.4475 93.2557V70.8607C78.4475 69.9607 79.1225 69.3157 79.9925 69.3157V69.3007Z" fill="white"></path>
      <path d="M102.793 69.3007H105.088C105.958 69.3007 106.633 69.9457 106.633 70.8457V89.8507H117.598C118.468 89.8507 119.143 90.4957 119.143 91.3657V93.2557C119.143 94.1257 118.468 94.8007 117.598 94.8007H102.793C101.923 94.8007 101.248 94.1257 101.248 93.2557V70.8607C101.248 69.9607 101.923 69.3157 102.793 69.3157V69.3007Z" fill="white"></path>
      <path d="M124.153 69.3007H126.448C127.318 69.3007 127.993 69.9457 127.993 70.8457V89.8507H138.958C139.828 89.8507 140.503 90.4957 140.503 91.3657V93.2557C140.503 94.1257 139.828 94.8007 138.958 94.8007H124.153C123.283 94.8007 122.608 94.1257 122.608 93.2557V70.8607C122.608 69.9607 123.283 69.3157 124.153 69.3157V69.3007Z" fill="white"></path>
      <path d="M44.5802 110.096V103.993C44.5802 103.835 44.7084 103.717 44.8661 103.717H45.2901C45.4479 103.717 45.5662 103.835 45.5662 103.993V106.546H49.3031V103.993C49.3031 103.835 49.4214 103.717 49.5891 103.717H50.013C50.1708 103.717 50.2891 103.835 50.2891 103.993V110.096C50.2891 110.254 50.1708 110.372 50.013 110.372H49.5891C49.4214 110.372 49.3031 110.254 49.3031 110.096V107.463H45.5662V110.096C45.5662 110.254 45.4479 110.372 45.2901 110.372H44.8661C44.7084 110.372 44.5802 110.254 44.5802 110.096ZM52.8406 103.993C52.8406 103.835 52.9688 103.717 53.1266 103.717H57.3861C57.5537 103.717 57.672 103.835 57.672 103.993V104.348C57.672 104.505 57.5537 104.634 57.3861 104.634H53.8266V106.546H56.8931C57.0509 106.546 57.1692 106.665 57.1692 106.832V107.177C57.1692 107.345 57.0509 107.463 56.8931 107.463H53.8266V109.455H57.4354C57.603 109.455 57.7213 109.583 57.7213 109.741V110.096C57.7213 110.254 57.603 110.372 57.4354 110.372H53.1266C52.9688 110.372 52.8406 110.254 52.8406 110.096V103.993ZM59.512 110.116L62.1939 103.953C62.2531 103.815 62.401 103.717 62.5489 103.717H62.8348C62.9729 103.717 63.1306 103.815 63.1898 103.953L65.8717 110.116C65.9407 110.264 65.8618 110.372 65.7041 110.372H65.2308C65.073 110.372 64.9054 110.264 64.8364 110.116L64.3335 108.952H61.0403L60.5374 110.116C60.4783 110.264 60.3107 110.372 60.1529 110.372H59.6796C59.5219 110.372 59.443 110.264 59.512 110.116ZM62.6968 105.117L61.4347 108.045H63.949L62.6968 105.117ZM67.9942 103.993C67.9942 103.835 68.1224 103.717 68.2802 103.717H68.7041C68.8619 103.717 68.9802 103.835 68.9802 103.993V109.455H72.2242C72.3819 109.455 72.5101 109.583 72.5101 109.741V110.096C72.5101 110.254 72.3819 110.372 72.2242 110.372H68.2802C68.1224 110.372 67.9942 110.254 67.9942 110.096V103.993ZM73.2018 103.993C73.2018 103.835 73.3299 103.717 73.4877 103.717H78.7135C78.8811 103.717 78.9994 103.835 78.9994 103.993V104.348C78.9994 104.505 78.8811 104.634 78.7135 104.634H76.5936V110.096C76.5936 110.254 76.4753 110.372 76.3077 110.372H75.8935C75.7259 110.372 75.6076 110.254 75.6076 110.096V104.634H73.4877C73.3299 104.634 73.2018 104.505 73.2018 104.348V103.993ZM81.1065 110.096V103.993C81.1065 103.835 81.2347 103.717 81.3924 103.717H81.8164C81.9742 103.717 82.0925 103.835 82.0925 103.993V106.546H85.8294V103.993C85.8294 103.835 85.9477 103.717 86.1154 103.717H86.5393C86.6971 103.717 86.8154 103.835 86.8154 103.993V110.096C86.8154 110.254 86.6971 110.372 86.5393 110.372H86.1154C85.9477 110.372 85.8294 110.254 85.8294 110.096V107.463H82.0925V110.096C82.0925 110.254 81.9742 110.372 81.8164 110.372H81.3924C81.2347 110.372 81.1065 110.254 81.1065 110.096ZM89.574 107.739H91.6051C91.753 107.739 91.8714 107.858 91.8714 108.006V108.301C91.8714 108.449 91.753 108.558 91.6051 108.558H89.574C89.4261 108.558 89.3078 108.449 89.3078 108.301V108.006C89.3078 107.858 89.4261 107.739 89.574 107.739ZM97.8045 105.196C97.6172 104.831 97.1439 104.545 96.5523 104.545C95.8424 104.545 95.2804 104.939 95.2804 105.472C95.2804 106.083 96.0297 106.29 97.0749 106.576C97.913 106.793 99.0765 107.128 99.0765 108.459C99.0765 109.682 98.0609 110.49 96.6411 110.49C95.4579 110.49 94.5606 109.928 94.2254 109.159C94.1563 109.021 94.2352 108.863 94.393 108.814L94.9057 108.656C94.9254 108.647 94.9451 108.647 94.9649 108.647C95.0437 108.647 95.1226 108.696 95.1719 108.785C95.3593 109.218 95.9114 109.544 96.6509 109.544C97.4594 109.544 98.0905 109.13 98.0905 108.538C98.0905 107.907 97.3707 107.68 96.789 107.532C95.586 107.187 94.3042 106.882 94.3042 105.541C94.3042 104.377 95.2311 103.598 96.5326 103.598C97.5975 103.598 98.4257 104.121 98.7511 104.821C98.8201 104.959 98.7511 105.117 98.5835 105.166L98.0609 105.314C98.0412 105.324 98.0215 105.324 98.0017 105.324C97.9327 105.324 97.8538 105.274 97.8045 105.196ZM100.794 110.116L103.476 103.953C103.535 103.815 103.683 103.717 103.831 103.717H104.117C104.255 103.717 104.412 103.815 104.472 103.953L107.154 110.116C107.223 110.264 107.144 110.372 106.986 110.372H106.513C106.355 110.372 106.187 110.264 106.118 110.116L105.615 108.952H102.322L101.819 110.116C101.76 110.264 101.592 110.372 101.435 110.372H100.961C100.804 110.372 100.725 110.264 100.794 110.116ZM103.979 105.117L102.717 108.045H105.231L103.979 105.117ZM109.276 110.096V103.993C109.276 103.835 109.404 103.717 109.562 103.717H113.821C113.989 103.717 114.107 103.835 114.107 103.993V104.348C114.107 104.505 113.989 104.634 113.821 104.634H110.262V106.527H113.328C113.486 106.527 113.605 106.645 113.605 106.803V107.158C113.605 107.315 113.486 107.434 113.328 107.434H110.262V110.096C110.262 110.254 110.144 110.372 109.986 110.372H109.562C109.404 110.372 109.276 110.254 109.276 110.096ZM116.294 103.993C116.294 103.835 116.423 103.717 116.58 103.717H120.84C121.007 103.717 121.126 103.835 121.126 103.993V104.348C121.126 104.505 121.007 104.634 120.84 104.634H117.28V106.546H120.347C120.505 106.546 120.623 106.665 120.623 106.832V107.177C120.623 107.345 120.505 107.463 120.347 107.463H117.28V109.455H120.889C121.057 109.455 121.175 109.583 121.175 109.741V110.096C121.175 110.254 121.057 110.372 120.889 110.372H116.58C116.423 110.372 116.294 110.254 116.294 110.096V103.993ZM122.956 103.993C122.956 103.835 123.084 103.717 123.242 103.717H128.468C128.635 103.717 128.754 103.835 128.754 103.993V104.348C128.754 104.505 128.635 104.634 128.468 104.634H126.348V110.096C126.348 110.254 126.229 110.372 126.062 110.372H125.648C125.48 110.372 125.362 110.254 125.362 110.096V104.634H123.242C123.084 104.634 122.956 104.505 122.956 104.348V103.993ZM130.604 103.717H131.176C131.334 103.717 131.511 103.825 131.6 103.953L133.375 106.734L135.179 103.953C135.258 103.825 135.445 103.717 135.613 103.717H136.175C136.343 103.717 136.392 103.815 136.303 103.953L133.868 107.641V110.096C133.868 110.254 133.75 110.372 133.592 110.372H133.168C133.01 110.372 132.892 110.254 132.892 110.096V107.67L130.476 103.953C130.387 103.825 130.446 103.717 130.604 103.717Z" fill="white"></path>
    </svg>