<svg width="180" height="180" viewBox="0 0 180 180" fill="none" xmlns="http://www.w3.org/2000/svg">
      <path d="M90 180C139.706 180 180 139.706 180 90C180 40.2944 139.706 0 90 0C40.2944 0 0 40.2944 0 90C0 139.706 40.2944 180 90 180Z" fill="#F9F5E1"></path>
      <path d="M147.146 122.898C147.6 122.199 148.527 121.97 149.256 122.393C150.009 122.828 150.266 123.792 149.83 124.545L149.688 124.79C146.681 129.935 143.03 134.657 138.844 138.843C134.591 143.096 129.785 146.797 124.545 149.83L124.545 149.83C119.376 152.82 113.785 155.16 107.882 156.738H107.882C102.177 158.263 96.1824 159.076 90.0002 159.076C83.8183 159.076 77.8239 158.265 72.1181 156.738V156.738C66.3072 155.185 60.7986 152.893 55.698 149.97L55.4554 149.83L55.4552 149.83C50.2149 146.797 45.4093 143.096 41.1565 138.843C36.97 134.657 33.3188 129.935 30.3127 124.79L30.17 124.545L30.1312 124.473C29.7508 123.732 30.0149 122.815 30.7442 122.393C31.4735 121.97 32.4005 122.199 32.8539 122.898L32.8963 122.967L33.1695 123.434C36.0125 128.255 39.4506 132.683 43.3839 136.616C47.444 140.676 52.0313 144.209 57.0329 147.103L57.4965 147.369C62.2991 150.096 67.4762 152.237 72.932 153.695H72.9321L73.4432 153.83C78.7321 155.199 84.2797 155.926 90.0002 155.926C95.7205 155.926 101.268 155.197 106.557 153.83L107.069 153.695C112.524 152.236 117.701 150.096 122.504 147.369L122.967 147.103C127.969 144.209 132.556 140.676 136.617 136.616C140.677 132.556 144.209 127.968 147.104 122.967L147.146 122.898Z" fill="#EADA94"></path>
      <path d="M155.927 90.0012C155.927 84.0964 155.15 78.3756 153.696 72.9329V72.9327C152.19 67.3011 149.958 61.9665 147.104 57.0342L146.831 56.5665C143.988 51.7463 140.55 47.3182 136.617 43.3849C132.556 39.3248 127.969 35.7923 122.967 32.8974V32.8972C118.112 30.0882 112.867 27.8814 107.332 26.3769L107.068 26.3057L106.991 26.2829C106.198 26.0272 105.736 25.1915 105.954 24.3774C106.171 23.5633 106.988 23.0694 107.803 23.2436L107.882 23.2627L108.159 23.3372C113.868 24.8892 119.283 27.1542 124.302 30.0313L124.545 30.1709L124.545 30.171L124.791 30.3137C129.936 33.3199 134.658 36.9711 138.844 41.1575C143.03 45.3439 146.682 50.0659 149.688 55.2109L149.83 55.4563L149.83 55.4564L149.97 55.699C152.847 60.7188 155.112 66.1336 156.664 71.8429L156.739 72.1194V72.1196L156.88 72.6553C158.314 78.1997 159.077 84.0122 159.077 90.0012C159.077 90.8711 158.372 91.5762 157.502 91.5762C156.632 91.5762 155.927 90.8711 155.927 90.0012Z" fill="#EADA94"></path>
      <path d="M20.9252 89.9999C20.9252 83.8179 21.737 77.8235 23.2632 72.1178C24.8415 66.2147 27.1812 60.6235 30.1714 55.455L30.1716 55.4549L30.3142 55.2095C33.3204 50.0645 36.9716 45.3425 41.158 41.1561C45.4109 36.9033 50.2164 33.2027 55.4567 30.1696C56.2095 29.7339 57.1731 29.991 57.6088 30.7438C58.0445 31.4967 57.7874 32.4603 57.0346 32.896C52.0329 35.7909 47.4454 39.3234 43.3853 43.3835C39.3252 47.4437 35.7927 52.0311 32.8978 57.0328C30.0441 61.9652 27.812 67.2999 26.3063 72.9316L26.3061 72.9318C24.8504 78.374 24.0752 84.0948 24.0752 89.9999C24.0751 90.8697 23.37 91.5748 22.5002 91.5748C21.6303 91.5748 20.9252 90.8697 20.9252 89.9999Z" fill="#EADA94"></path>
      <path d="M90.0002 14.9247C96.7194 14.9247 103.234 15.8084 109.434 17.465H109.434L109.735 17.546C116.041 19.2595 122.016 21.7744 127.545 24.9734L127.812 25.1283C133.316 28.3431 138.373 32.2387 142.869 36.6978L143.086 36.914L143.142 36.9728C143.7 37.5911 143.682 38.5455 143.086 39.1413C142.49 39.7372 141.536 39.7559 140.917 39.1973L140.859 39.1413L140.651 38.9342C136.342 34.6608 131.496 30.9281 126.223 27.8484L125.968 27.7C120.587 24.5868 114.766 22.1504 108.621 20.5082V20.5084C102.683 18.9219 96.442 18.0747 90.0002 18.0747C83.5584 18.0747 77.317 18.9219 71.3793 20.5084L71.3791 20.5082C65.2346 22.1504 59.414 24.5868 54.033 27.7H54.0329C48.5756 30.8573 43.5711 34.7121 39.1419 39.1413C34.7126 43.5706 30.8578 48.575 27.7006 54.0323C27.265 54.7853 26.3015 55.0426 25.5486 54.607C24.7956 54.1714 24.5383 53.2079 24.9739 52.455C28.2696 46.7584 32.2928 41.5358 36.9146 36.914C41.5363 32.2923 46.7589 28.2691 52.4555 24.9734L52.7191 24.8216C58.2624 21.6444 64.25 19.153 70.5661 17.465L70.857 17.388C76.9701 15.7811 83.386 14.9247 90.0002 14.9247Z" fill="#EADA94"></path>
      <path d="M14.9253 89.9998C14.9253 89.13 15.6304 88.4248 16.5003 88.4248C17.3701 88.4248 18.0753 89.13 18.0753 89.9998C18.0753 96.4416 18.9226 102.683 20.509 108.621H20.5088C22.151 114.765 24.5874 120.586 27.7006 125.967V125.967L27.849 126.223C30.9784 131.581 34.7819 136.498 39.1419 140.858C43.502 145.218 48.4194 149.022 53.7775 152.151L54.033 152.299L54.1021 152.342C54.8013 152.795 55.0295 153.722 54.6076 154.451C54.1856 155.181 53.2682 155.445 52.5268 155.065L52.4556 155.026L52.1889 154.871C46.5958 151.605 41.4642 147.635 36.9146 143.085C32.3651 138.536 28.3955 133.404 25.129 127.811L24.974 127.544C21.775 122.015 19.2601 116.04 17.5466 109.734L17.4656 109.434C15.8091 103.234 14.9253 96.719 14.9253 89.9998Z" fill="#EADA94"></path>
      <path d="M161.925 89.9997C161.925 83.5579 161.078 77.3165 159.492 71.3788C159.267 70.5384 159.766 69.6751 160.607 69.4506C161.447 69.2261 162.31 69.7254 162.535 70.5658C164.191 76.766 165.075 83.2806 165.075 89.9997C165.075 96.7189 164.191 103.234 162.535 109.434C160.903 115.54 158.358 121.729 155.178 127.281L155.026 127.545C151.731 133.241 147.708 138.464 143.086 143.086C138.536 147.635 133.405 151.604 127.812 154.871L127.545 155.026C121.928 158.276 115.851 160.82 109.434 162.534L109.356 162.553C108.541 162.727 107.724 162.234 107.506 161.42C107.282 160.579 107.781 159.716 108.621 159.491L108.909 159.414C114.948 157.773 120.671 155.364 125.967 152.3L126.223 152.151C131.581 149.022 136.498 145.218 140.858 140.858C145.288 136.429 149.143 131.424 152.3 125.967L152.445 125.714C155.49 120.399 157.931 114.463 159.492 108.621C161.078 102.683 161.925 96.4416 161.925 89.9997Z" fill="#EADA94"></path>
      <path d="M90.0001 8.92474C97.1429 8.92474 104.071 9.84942 110.674 11.5843L110.988 11.6675L110.988 11.6677L111.313 11.7551C118.123 13.6051 124.576 16.3217 130.546 19.776H130.547L130.834 19.9434C136.873 23.4715 142.416 27.7577 147.329 32.6706C152.243 37.5848 156.53 43.1263 160.057 49.1656L160.224 49.4536L160.263 49.5248C160.643 50.2663 160.379 51.1837 159.649 51.6056C158.92 52.0275 157.993 51.7992 157.54 51.1001L157.497 51.0309L157.336 50.7541C153.947 44.9498 149.827 39.6226 145.102 34.8979C140.304 30.0998 134.881 25.9238 128.969 22.5024V22.5025C123.139 19.1297 116.833 16.4895 110.175 14.7109V14.7107C103.741 12.9923 96.9789 12.0747 90.0001 12.0747C83.13 12.0747 76.4691 12.9626 70.1272 14.6307L69.8254 14.7107C68.9851 14.9354 68.1218 14.4364 67.8971 13.5961C67.6724 12.7558 68.1715 11.8923 69.0118 11.6677L69.3259 11.5843C75.9274 9.84786 82.8576 8.92474 90.0001 8.92474Z" fill="#EADA94"></path>
      <path d="M8.92505 89.9999C8.92505 82.7437 9.8794 75.707 11.668 69.0117L11.7554 68.6873C13.6054 61.8773 16.3219 55.4242 19.7763 49.4536V49.4534L19.9438 49.1654C23.4718 43.1264 27.758 37.5834 32.6709 32.6706L32.7296 32.6147C33.3479 32.0561 34.3023 32.0747 34.8982 32.6706C35.5133 33.2856 35.5133 34.2829 34.8982 34.898L34.6738 35.1233C29.9698 39.8656 25.8706 45.2112 22.5027 51.0309L22.5028 51.0311C19.13 56.8607 16.4898 63.1674 14.7112 69.8249C12.9928 76.2576 12.075 83.021 12.075 89.9999C12.0751 96.8699 12.9629 103.531 14.6311 109.873L14.711 110.174L14.7301 110.253C14.9042 111.068 14.4104 111.885 13.5964 112.103C12.7824 112.321 11.9467 111.859 11.691 111.066L11.668 110.988L11.5846 110.674C9.84819 104.072 8.92506 97.1423 8.92505 89.9999Z" fill="#EADA94"></path>
      <path d="M20.3511 128.394C21.0805 127.972 22.0075 128.2 22.4607 128.899L22.5031 128.969L22.6639 129.245C26.0534 135.05 30.1737 140.377 34.8984 145.102C39.6965 149.9 45.1195 154.076 51.0316 157.497H51.0315C56.8611 160.87 63.1678 163.51 69.8253 165.289H69.8251C76.2595 167.007 83.0214 167.925 90.0003 167.925C96.9794 167.925 103.743 167.008 110.175 165.289L110.254 165.27C111.069 165.096 111.886 165.589 112.103 166.403C112.328 167.244 111.829 168.107 110.989 168.332L110.674 168.415C104.073 170.151 97.1428 171.075 90.0003 171.075C82.7441 171.075 75.709 170.12 69.0123 168.332H69.0121C62.1909 166.509 55.7245 163.818 49.7386 160.387L49.454 160.223L49.4538 160.223C43.303 156.664 37.6618 152.32 32.671 147.329C27.7568 142.415 23.4706 136.873 19.9438 130.834L19.7764 130.546L19.7376 130.475C19.3574 129.733 19.6217 128.816 20.3511 128.394Z" fill="#EADA94"></path>
      <path d="M167.925 89.9998C167.925 89.13 168.63 88.4248 169.5 88.4248C170.37 88.4248 171.075 89.13 171.075 89.9998C171.075 97.1425 170.151 104.073 168.416 110.674L168.332 110.988C166.481 117.917 163.733 124.481 160.224 130.546L160.224 130.546C156.664 136.697 152.32 142.338 147.329 147.329L147.271 147.385C146.652 147.944 145.698 147.925 145.102 147.329C144.487 146.714 144.487 145.717 145.102 145.102L145.326 144.876C149.956 140.209 153.999 134.958 157.337 129.245L157.498 128.968C160.87 123.139 163.51 116.832 165.289 110.175L165.369 109.873C167.036 103.531 167.925 96.8697 167.925 89.9998Z" fill="#EADA94"></path>
      <path d="M173.925 89.9998C173.925 82.484 172.937 75.2017 171.085 68.2727L170.995 67.9368C169.081 60.8929 166.321 54.3017 162.693 48.0328C159.008 41.6647 154.511 35.8262 149.342 30.6575C144.174 25.4887 138.335 20.9903 131.967 17.3066L131.967 17.3065C125.788 13.7297 119.11 10.9206 112.063 9.00537L111.727 8.91484C104.8 7.06298 97.5161 6.0748 90.0002 6.0748C82.4843 6.0748 75.202 7.06282 68.2729 8.9147L68.273 8.91484C61.1038 10.8315 54.311 13.6744 48.033 17.3066L48.0328 17.3065C41.6649 20.9918 35.8266 25.4888 30.6579 30.6575C25.489 35.8264 20.9907 41.6648 17.307 48.0325L17.3069 48.0328C13.7301 54.2124 10.9209 60.8896 9.00574 67.9366L8.91521 68.2725C7.06335 75.2001 6.07517 82.4839 6.07517 89.9998C6.07517 97.5156 7.06335 104.798 8.91521 111.727L9.00574 112.063C10.9209 119.108 13.7314 125.787 17.3069 131.967L17.4802 132.265C21.1329 138.517 25.5699 144.254 30.6579 149.342C35.746 154.43 41.4829 158.868 47.7347 162.52L48.0328 162.693L48.0331 162.693L48.3279 162.863C54.5233 166.415 61.2141 169.198 68.2729 171.085L68.5979 171.171C75.4282 172.967 82.6017 173.925 90.0002 173.925C97.516 173.925 104.798 172.937 111.727 171.085L112.063 170.994C118.997 169.109 125.575 166.358 131.673 162.863L131.967 162.693C138.335 159.008 144.174 154.511 149.342 149.342C154.511 144.173 159.01 138.335 162.693 131.967L162.693 131.967L162.863 131.672C166.416 125.477 169.198 118.786 171.085 111.727L171.171 111.402C172.968 104.572 173.925 97.3983 173.925 89.9998ZM177.075 89.9998C177.075 97.6711 176.082 105.114 174.218 112.203L174.128 112.541C172.139 119.983 169.19 127.031 165.42 133.545C161.598 140.152 156.931 146.208 151.57 151.57C146.209 156.931 140.152 161.596 133.545 165.419L133.545 165.42C127.133 169.129 120.202 172.046 112.89 174.034L112.541 174.128C105.349 176.05 97.7933 177.075 90.0002 177.075C82.3289 177.075 74.8861 176.082 67.7968 174.217L67.4594 174.128C60.0173 172.139 52.9694 169.19 46.4552 165.419V165.419C39.848 161.597 33.7915 156.931 28.4304 151.57C23.0692 146.208 18.4041 140.152 14.5805 133.545L14.5803 133.544C10.8705 127.132 7.95377 120.202 5.96604 112.889L5.87214 112.541C3.95004 105.349 2.92517 97.7929 2.92517 89.9998C2.92517 82.2067 3.95001 74.6495 5.87214 67.4591L5.96604 67.1106C7.9537 59.7968 10.869 52.8673 14.5805 46.4548C18.4028 39.8476 23.0694 33.7911 28.4304 28.4301C33.7917 23.0688 39.8482 18.4038 46.4552 14.5801L46.4555 14.58L46.7612 14.4039C53.1898 10.7193 60.135 7.82998 67.4594 5.87178L67.7969 5.78228C74.8876 3.91784 82.3288 2.9248 90.0002 2.9248C97.7933 2.9248 105.35 3.94964 112.541 5.87178L112.889 5.96567C120.203 7.95331 127.132 10.8685 133.545 14.58L133.854 14.7597C140.341 18.5482 146.293 23.1527 151.57 28.4301C156.931 33.7913 161.596 39.8479 165.42 46.4548C169.183 52.9581 172.048 59.802 174.034 67.1106L174.128 67.4591L174.218 67.7966C176.082 74.8872 177.075 82.3285 177.075 89.9998Z" fill="#EADA94"></path>
      <path d="M78.9089 108.272C78.8952 110.954 76.8706 113.019 74.1756 113.019C71.4807 113.019 69.4287 110.967 69.4287 108.231C69.4287 105.509 71.508 103.457 74.2851 103.457C76.0361 103.457 77.5272 104.291 78.3617 105.577C78.4712 105.769 78.4028 105.988 78.1839 106.056L77.582 106.289C77.5272 106.302 77.4862 106.316 77.4315 106.316C77.281 106.316 77.1168 106.234 77.0211 106.097C76.4192 105.276 75.4342 104.77 74.2851 104.77C72.3288 104.77 70.8377 106.261 70.8377 108.231C70.8377 110.215 72.2878 111.706 74.1346 111.706C75.6941 111.706 77.0348 110.666 77.3631 109.161H74.3261C74.1072 109.161 73.9294 108.984 73.9294 108.765V108.272C73.9294 108.053 74.1072 107.889 74.3261 107.889H78.5122C78.7311 107.889 78.9089 108.067 78.9089 108.272ZM81.8112 108.245C81.8112 105.509 83.8632 103.457 86.5855 103.457C89.3079 103.457 91.3735 105.509 91.3735 108.245C91.3735 110.967 89.3079 113.019 86.5855 113.019C83.8632 113.019 81.8112 110.967 81.8112 108.245ZM83.2203 108.245C83.2203 110.215 84.6703 111.706 86.5855 111.706C88.5007 111.706 89.9508 110.215 89.9508 108.245C89.9508 106.261 88.5007 104.77 86.5855 104.77C84.6703 104.77 83.2203 106.261 83.2203 108.245ZM94.5752 104.004C94.5752 103.785 94.753 103.621 94.9719 103.621H95.5602C95.779 103.621 95.9432 103.785 95.9432 104.004V111.583H100.444C100.663 111.583 100.841 111.761 100.841 111.98V112.472C100.841 112.691 100.663 112.855 100.444 112.855H94.9719C94.753 112.855 94.5752 112.691 94.5752 112.472V104.004ZM103.792 112.472V104.004C103.792 103.785 103.969 103.621 104.188 103.621H107.471C110.194 103.621 112.259 105.632 112.259 108.231C112.259 110.83 110.194 112.855 107.471 112.855H104.188C103.969 112.855 103.792 112.691 103.792 112.472ZM107.471 104.893H105.16V111.583H107.471C109.387 111.583 110.837 110.119 110.837 108.231C110.837 106.357 109.387 104.893 107.471 104.893Z" fill="#3E4049"></path>
      <path d="M43.3045 69.495C44.1745 69.495 45.0445 70.095 45.2995 70.965L50.0545 86.22L54.6895 70.845C54.9145 70.05 55.7095 69.48 56.5045 69.48H58.0945C58.9195 69.48 59.7145 70.05 59.9395 70.845L64.6195 86.22L69.3295 70.965C69.5545 70.095 70.4245 69.495 71.3245 69.495H73.7395C74.6095 69.495 75.0595 70.14 74.7595 70.965L67.1845 93.63C66.9145 94.38 66.1345 94.995 65.2945 94.995H63.7045C62.9095 94.995 62.1145 94.425 61.8895 93.63L57.3295 78.93L52.7245 93.63C52.4995 94.425 51.7045 94.995 50.8795 94.995H49.2895C48.4945 94.995 47.6995 94.395 47.4445 93.63L39.8245 70.965C39.5245 70.14 39.9745 69.495 40.8745 69.495H43.2895H43.3045Z" fill="#3E4049"></path>
      <path d="M79.7244 69.4949H95.5194C96.4194 69.4949 97.0644 70.1399 97.0644 71.0399V72.9299C97.0644 73.7999 96.4194 74.4749 95.5194 74.4749H83.5644V79.6499H93.4794C94.3494 79.6499 95.0244 80.2949 95.0244 81.1649V83.0549C95.0244 83.9549 94.3494 84.5999 93.4794 84.5999H83.5644V90.0449H95.6994C96.5994 90.0449 97.2444 90.6899 97.2444 91.5599V93.4499C97.2444 94.3199 96.5994 94.9949 95.6994 94.9949H79.7244C78.8544 94.9949 78.1794 94.3199 78.1794 93.4499V71.0549C78.1794 70.1549 78.8544 69.5099 79.7244 69.5099V69.4949Z" fill="#3E4049"></path>
      <path d="M102.524 69.4949H104.819C105.689 69.4949 106.364 70.1399 106.364 71.0399V90.0449H117.329C118.199 90.0449 118.874 90.6899 118.874 91.5599V93.4499C118.874 94.3199 118.199 94.9949 117.329 94.9949H102.524C101.654 94.9949 100.979 94.3199 100.979 93.4499V71.0549C100.979 70.1549 101.654 69.5099 102.524 69.5099V69.4949Z" fill="#3E4049"></path>
      <path d="M123.885 69.4949H126.18C127.05 69.4949 127.725 70.1399 127.725 71.0399V90.0449H138.69C139.56 90.0449 140.235 90.6899 140.235 91.5599V93.4499C140.235 94.3199 139.56 94.9949 138.69 94.9949H123.885C123.015 94.9949 122.34 94.3199 122.34 93.4499V71.0549C122.34 70.1549 123.015 69.5099 123.885 69.5099V69.4949Z" fill="#3E4049"></path>
    </svg>