<svg width="15" height="16" viewBox="0 0 15 16" fill="none" xmlns="http://www.w3.org/2000/svg">
        <path d="M11.9504 3.5498V13.3498C11.9504 13.7211 11.8029 14.0772 11.5403 14.3398C11.2778 14.6023 10.9217 14.7498 10.5504 14.7498H3.55039C3.17909 14.7498 2.82299 14.6023 2.56044 14.3398C2.29789 14.0772 2.15039 13.7211 2.15039 13.3498V3.5498" fill="white"></path>
        <path d="M11.9504 3.5498V13.3498C11.9504 13.7211 11.8029 14.0772 11.5403 14.3398C11.2778 14.6023 10.9217 14.7498 10.5504 14.7498H3.55039C3.17909 14.7498 2.82299 14.6023 2.56044 14.3398C2.29789 14.0772 2.15039 13.7211 2.15039 13.3498V3.5498" stroke="currentColor" stroke-width="1.5" stroke-linecap="round" stroke-linejoin="round"></path>
        <path d="M0.75 3.5498H13.35" stroke="currentColor" stroke-width="1.5" stroke-linecap="round" stroke-linejoin="round"></path>
        <path d="M4.25 3.55V2.15C4.25 1.7787 4.3975 1.4226 4.66005 1.16005C4.9226 0.8975 5.2787 0.75 5.65 0.75H8.45C8.8213 0.75 9.1774 0.8975 9.43995 1.16005C9.7025 1.4226 9.85 1.7787 9.85 2.15V3.55" stroke="currentColor" stroke-width="1.5" stroke-linecap="round" stroke-linejoin="round"></path>
      </svg>