<svg xmlns="http://www.w3.org/2000/svg" width="18" height="18" viewBox="0 0 18 18" fill="none">
        <path d="M8.75 16.75C13.1683 16.75 16.75 13.1683 16.75 8.75C16.75 4.33172 13.1683 0.75 8.75 0.75C4.33172 0.75 0.75 4.33172 0.75 8.75C0.75 13.1683 4.33172 16.75 8.75 16.75Z" fill="#F7F2F6" stroke="#905C84" stroke-width="1.5" stroke-linecap="round" stroke-linejoin="round"></path>
        <path d="M10.5977 5.55078L15.1897 13.5028L10.5977 5.55078Z" fill="#F7F2F6"></path>
        <path d="M10.5977 5.55078L15.1897 13.5028" stroke="#905C84" stroke-width="1.5" stroke-linecap="round" stroke-linejoin="round"></path>
        <path d="M6.90234 5.55078H16.0863H6.90234Z" fill="#F7F2F6"></path>
        <path d="M6.90234 5.55078H16.0863" stroke="#905C84" stroke-width="1.5" stroke-linecap="round" stroke-linejoin="round"></path>
        <path d="M5.05469 8.74888L9.64669 0.796875L5.05469 8.74888Z" fill="#F7F2F6"></path>
        <path d="M5.05469 8.74887L9.64669 0.796875" stroke="#905C84" stroke-width="1.5" stroke-linecap="round" stroke-linejoin="round"></path>
        <path d="M6.90255 11.95L2.31055 3.99805L6.90255 11.95Z" fill="#F7F2F6"></path>
        <path d="M6.90255 11.95L2.31055 3.99805" stroke="#905C84" stroke-width="1.5" stroke-linecap="round" stroke-linejoin="round"></path>
        <path d="M10.5981 11.9492H1.41406H10.5981Z" fill="#F7F2F6"></path>
        <path d="M10.5981 11.9492H1.41406" stroke="#905C84" stroke-width="1.5" stroke-linecap="round" stroke-linejoin="round"></path>
        <path d="M12.4455 8.75L7.85352 16.702L12.4455 8.75Z" fill="#F7F2F6"></path>
        <path d="M12.4455 8.75L7.85352 16.702" stroke="#905C84" stroke-width="1.5" stroke-linecap="round" stroke-linejoin="round"></path>
      </svg>