<svg width="27" height="22" viewBox="0 0 27 22" fill="none">
      <path d="M25.584 10.75C25.584 16.2728 21.1068 20.75 15.584 20.75C10.0611 20.75 5.58398 16.2728 5.58398 10.75C5.58398 5.22715 10.0611 0.75 15.584 0.75C21.1068 0.75 25.584 5.22715 25.584 10.75Z" fill="#D6F4FB" stroke="#128BA6" stroke-width="1.5" stroke-linecap="round" stroke-linejoin="round"></path>
      <path d="M20.584 10.75C20.584 13.5114 18.3454 15.75 15.584 15.75C12.8226 15.75 10.584 13.5114 10.584 10.75C10.584 7.98858 12.8226 5.75 15.584 5.75C18.3454 5.75 20.584 7.98858 20.584 10.75Z" fill="white" stroke="#128BA6" stroke-width="1.5" stroke-linecap="round" stroke-linejoin="round"></path>
      <path d="M3.25 10.75L15.5833 10.75" stroke="#171820" stroke-width="1.5" stroke-linecap="round"></path>
      <path d="M0.75 8.25L3.25 10.75L0.75 13.25" stroke="#171820" stroke-width="1.5" stroke-linecap="round"></path>
    </svg>