<svg xmlns="http://www.w3.org/2000/svg" width="14" height="14" viewBox="0 0 14 14" fill="none">
        <path d="M13.13 3.8375L8.17 0.3675C7.47 -0.1225 6.54 -0.1225 5.83 0.3675L0.87 3.8375C0.33 4.2175 0 4.8375 0 5.5075V11.5075C0 12.6275 0.91 13.5475 2.04 13.5475H3.95C4.39 13.5475 4.75 13.1875 4.75 12.7475V8.9575C4.75 7.7675 5.61 6.6575 6.8 6.5575C8.13 6.4375 9.25 7.4875 9.25 8.7975V12.7475C9.25 13.1875 9.61 13.5475 10.05 13.5475H11.96C13.08 13.5475 14 12.6375 14 11.5075V5.5075C14 4.8475 13.68 4.2175 13.13 3.8375Z" fill="currentColor"></path>
      </svg>