<svg xmlns="http://www.w3.org/2000/svg" width="16" height="12" viewBox="0 0 16 12" fill="none">
        <path d="M0.793752 5.89291C0.735416 5.73576 0.735416 5.56289 0.793752 5.40573C1.36191 4.0281 2.32633 2.85019 3.56475 2.02133C4.80317 1.19248 6.25981 0.75 7.75 0.75C9.24019 0.75 10.6968 1.19248 11.9352 2.02133C13.1737 2.85019 14.1381 4.0281 14.7062 5.40573C14.7646 5.56289 14.7646 5.73576 14.7062 5.89291C14.1381 7.27054 13.1737 8.44845 11.9352 9.27731C10.6968 10.1062 9.24019 10.5486 7.75 10.5486C6.25981 10.5486 4.80317 10.1062 3.56475 9.27731C2.32633 8.44845 1.36191 7.27054 0.793752 5.89291Z" stroke="#71747D" stroke-width="1.5" stroke-linecap="round" stroke-linejoin="round"></path>
        <path d="M7.75039 7.74945C8.91019 7.74945 9.85039 6.80924 9.85039 5.64945C9.85039 4.48965 8.91019 3.54945 7.75039 3.54945C6.59059 3.54945 5.65039 4.48965 5.65039 5.64945C5.65039 6.80924 6.59059 7.74945 7.75039 7.74945Z" stroke="#71747D" stroke-width="1.5" stroke-linecap="round" stroke-linejoin="round"></path>
      </svg>