<svg xmlns="http://www.w3.org/2000/svg" width="30" height="28" viewBox="0 0 30 28" fill="none">
        <path d="M29 20.162C29 20.888 28.705 21.5843 28.1799 22.0977C27.6548 22.611 26.9426 22.8995 26.2 22.8995H7.7592C7.01665 22.8996 6.30458 23.1881 5.7796 23.7015L2.6968 26.7154C2.55779 26.8513 2.38068 26.9438 2.18788 26.9813C1.99508 27.0188 1.79524 26.9996 1.61363 26.926C1.43202 26.8525 1.27678 26.728 1.16756 26.5682C1.05834 26.4084 1.00003 26.2205 1 26.0283V3.73743C1 3.01142 1.295 2.31514 1.8201 1.80178C2.3452 1.28841 3.05739 1 3.8 1H26.2C26.9426 1 27.6548 1.28841 28.1799 1.80178C28.705 2.31514 29 3.01142 29 3.73743V20.162Z" fill="#D6F4FB" stroke="#71747D" stroke-width="2" stroke-linecap="round" stroke-linejoin="round"></path>
      </svg>