<svg width="48" height="48" viewBox="0 0 48 48" fill="none" xmlns="http://www.w3.org/2000/svg">
      <path id="bg" d="currentColor" fill="currentColor"></path>
      <g id="icon_2">
        <path id="vector" d="M23.9982 15.6098C23.9996 15.1299 23.9051 14.6546 23.7201 14.2119C23.5352 13.7691 23.2635 13.3678 22.9212 13.0315C22.5789 12.6952 22.1727 12.4308 21.7267 12.2538C21.2807 12.0768 20.8038 11.9908 20.3241 12.0008C19.8443 12.0108 19.3714 12.1166 18.9331 12.3121C18.4949 12.5075 18.1002 12.7886 17.7721 13.1388C17.4441 13.4891 17.1894 13.9014 17.0231 14.3515C16.8567 14.8016 16.7821 15.2804 16.8035 15.7597C16.0983 15.9411 15.4436 16.2805 14.889 16.7523C14.3344 17.2241 13.8944 17.8159 13.6024 18.4829C13.3104 19.15 13.174 19.8747 13.2036 20.6022C13.2331 21.3298 13.4278 22.041 13.773 22.6822C13.1661 23.1752 12.6889 23.809 12.3829 24.5285C12.0769 25.2479 11.9512 26.0313 12.017 26.8104C12.0828 27.5895 12.3379 28.3407 12.7602 28.9988C13.1825 29.6568 13.7591 30.2016 14.44 30.586C14.3559 31.2365 14.4061 31.8974 14.5874 32.5277C14.7688 33.1581 15.0774 33.7446 15.4943 34.2511C15.9112 34.7575 16.4275 35.1731 17.0113 35.4722C17.5951 35.7712 18.234 35.9475 18.8886 35.9899C19.5431 36.0324 20.1995 35.9402 20.817 35.7191C21.4346 35.498 22.0002 35.1526 22.4791 34.7043C22.9579 34.256 23.3398 33.7143 23.6011 33.1127C23.8624 32.511 23.9975 31.8622 23.9982 31.2062V15.6098Z" stroke="currentColor" stroke-width="1.5" stroke-linecap="round" stroke-linejoin="round"></path>
        <path id="vector_2" d="M23.9982 15.6098C23.9967 15.1299 24.0913 14.6546 24.2763 14.2119C24.4612 13.7691 24.7329 13.3678 25.0752 13.0315C25.4175 12.6952 25.8236 12.4308 26.2696 12.2538C26.7157 12.0768 27.1926 11.9908 27.6723 12.0008C28.1521 12.0108 28.625 12.1166 29.0632 12.3121C29.5015 12.5075 29.8962 12.7886 30.2242 13.1388C30.5523 13.4891 30.8069 13.9014 30.9733 14.3515C31.1397 14.8016 31.2143 15.2804 31.1929 15.7597C31.8981 15.9411 32.5528 16.2805 33.1074 16.7523C33.662 17.2241 34.102 17.8159 34.394 18.4829C34.686 19.15 34.8224 19.8747 34.7928 20.6022C34.7633 21.3298 34.5686 22.041 34.2234 22.6822C34.8303 23.1752 35.3075 23.809 35.6135 24.5285C35.9195 25.2479 36.0451 26.0313 35.9794 26.8104C35.9136 27.5895 35.6585 28.3407 35.2362 28.9988C34.8139 29.6568 34.2373 30.2016 33.5564 30.586C33.6404 31.2365 33.5903 31.8974 33.4089 32.5277C33.2276 33.1581 32.919 33.7446 32.5021 34.2511C32.0852 34.7575 31.5689 35.1731 30.9851 35.4722C30.4013 35.7712 29.7624 35.9475 29.1078 35.9899C28.4532 36.0324 27.7969 35.9402 27.1794 35.7191C26.5618 35.498 25.9961 35.1526 25.5173 34.7043C25.0384 34.256 24.6566 33.7143 24.3953 33.1127C24.134 32.511 23.9989 31.8622 23.9982 31.2062V15.6098Z" stroke="currentColor" stroke-width="1.5" stroke-linecap="round" stroke-linejoin="round"></path>
        <path id="vector_3" d="M27.5973 25.2076C26.5901 24.8533 25.7105 24.2082 25.0699 23.354C24.4292 22.4998 24.0563 21.4749 23.9981 20.4087C23.94 21.4749 23.567 22.4998 22.9264 23.354C22.2857 24.2082 21.4062 24.8533 20.399 25.2076" stroke="currentColor" stroke-width="1.5" stroke-linecap="round" stroke-linejoin="round"></path>
        <path id="vector_4" d="M30.7155 17.4094C31.0059 16.9062 31.1701 16.3402 31.1942 15.7598" stroke="currentColor" stroke-width="1.5" stroke-linecap="round" stroke-linejoin="round"></path>
        <path id="vector_5" d="M16.8033 15.7598C16.827 16.3401 16.9908 16.9061 17.2808 17.4094" stroke="currentColor" stroke-width="1.5" stroke-linecap="round" stroke-linejoin="round"></path>
        <path id="vector_6" d="M13.7729 22.6834C13.9924 22.5046 14.2273 22.3456 14.4748 22.2083" stroke="currentColor" stroke-width="1.5" stroke-linecap="round" stroke-linejoin="round"></path>
        <path id="vector_7" d="M33.5215 22.2083C33.769 22.3456 34.0039 22.5046 34.2234 22.6834" stroke="currentColor" stroke-width="1.5" stroke-linecap="round" stroke-linejoin="round"></path>
        <path id="vector_8" d="M16.7997 31.2062C15.9729 31.2066 15.16 30.9934 14.4399 30.5872" stroke="currentColor" stroke-width="1.5" stroke-linecap="round" stroke-linejoin="round"></path>
        <path id="vector_9" d="M33.5564 30.5872C32.8362 30.9934 32.0233 31.2066 31.1965 31.2062" stroke="currentColor" stroke-width="1.5" stroke-linecap="round" stroke-linejoin="round"></path>
      </g>
    </svg>