<svg xmlns="http://www.w3.org/2000/svg" width="31" height="34" viewBox="0 0 31 34" fill="none">
        <path d="M10.6002 5.79905C10.6002 8.44949 8.45114 10.5981 5.80011 10.5981C3.14908 10.5981 1 8.44949 1 5.79905C1 3.14861 3.14908 1 5.80011 1C8.45114 1 10.6002 3.14861 10.6002 5.79905Z" fill="#E0FBF5" stroke="currentColor" stroke-width="2" stroke-linecap="round" stroke-linejoin="round"></path>
        <path d="M5.80078 16.998L5.80078 24.9965C5.80078 25.845 6.13793 26.6588 6.73806 27.2587C7.33819 27.8587 8.15214 28.1958 9.00086 28.1958L20.2011 28.1958" stroke="currentColor" stroke-width="2" stroke-linecap="round" stroke-linejoin="round"></path>
        <path d="M10.6002 21.7971L5.80011 16.998L1 21.7971" stroke="currentColor" stroke-width="2" stroke-linecap="round" stroke-linejoin="round"></path>
        <path d="M29.8001 28.2014C29.8001 30.8518 27.651 33.0004 24.9999 33.0004C22.3489 33.0004 20.1998 30.8518 20.1998 28.2014C20.1998 25.551 22.3489 23.4023 24.9999 23.4023C27.651 23.4023 29.8001 25.5509 29.8001 28.2014Z" fill="#EFF5FB" stroke="currentColor" stroke-width="2" stroke-linecap="round" stroke-linejoin="round"></path>
        <path d="M25.0002 16.9946V8.99624C25.0002 8.14771 24.663 7.33394 24.0629 6.73395C23.4628 6.13395 22.6488 5.79687 21.8001 5.79687L10.5999 5.79688" stroke="currentColor" stroke-width="2" stroke-linecap="round" stroke-linejoin="round"></path>
        <path d="M20.1998 12.2012L24.9999 17.0002L29.8001 12.2012" stroke="currentColor" stroke-width="2" stroke-linecap="round" stroke-linejoin="round"></path>
      </svg>